<svg id="Layer_1" data-name="Layer 1" xmlns="http://www.w3.org/2000/svg" viewBox="0 0 219.81 207.61"><defs><style>.cls-1{fill:#3182cf;}</style></defs><path class="cls-1" d="M190.24,167.73l0,0a6.36,6.36,0,0,0-4.48-1.85H89.51a6.37,6.37,0,0,0-6.36,6.36v7.5H75.4A3.23,3.23,0,0,0,72.17,183v7.49H58.66a3.23,3.23,0,0,0-3.23,3.23v10.71a3.23,3.23,0,0,0,3.23,3.23H216.59a3.22,3.22,0,0,0,3.22-3.23V193.67a3.22,3.22,0,0,0-3.22-3.23H203.08V183a3.23,3.23,0,0,0-3.22-3.23H192.1v-7.5A6.32,6.32,0,0,0,190.24,167.73Zm6.39,18.45v7.49a3.22,3.22,0,0,0,3.23,3.22h13.5v4.27H61.89v-4.27H75.4a3.22,3.22,0,0,0,3.22-3.22v-7.49h7.76A3.23,3.23,0,0,0,89.61,183l-.1-10.64h96.14V183a3.23,3.23,0,0,0,3.22,3.23Z"/><path class="cls-1" d="M114.8,100.08a13,13,0,0,0,17.89,18.78l36.1-28.09A13,13,0,0,0,156.9,68.11L119.34,19.83a13,13,0,0,0-19-17.08L64.21,30.83A13,13,0,0,0,78,52.77L89.87,68,2.29,132a5.6,5.6,0,0,0-2.24,3.75,5.49,5.49,0,0,0,0,1.46A5.73,5.73,0,0,0,1.17,140l11.24,14.45a5.78,5.78,0,0,0,1,1,5.65,5.65,0,0,0,2.79,1.14q.3,0,.6,0a5.69,5.69,0,0,0,3.6-1.29L104,86.17Zm42.52-25.14.17-.1h0A6.6,6.6,0,0,1,166,76.45a6.59,6.59,0,0,1-1.15,9.23l-36.11,28.08a6.58,6.58,0,1,1-8.08-10.38l36.11-28.09C156.93,75.16,157.13,75.05,157.32,74.94Zm-80.59-29-.48.38a6.58,6.58,0,0,1-8.08-10.39L104.28,7.84h0a6.49,6.49,0,0,1,4-1.38,5.69,5.69,0,0,1,.83,0A6.49,6.49,0,0,1,113.51,9a6.57,6.57,0,0,1-.53,8.61l-.15.15a4.08,4.08,0,0,1-.47.46ZM83.26,49l23.81-18.52,7.73-6,36.47,46.88L119.73,95.91ZM93.71,86.29,17,149.79,6.79,136.69,87.26,77.93l6.57-4.8,6.19,8Z"/></svg>