<svg id="Layer_1" data-name="Layer 1" xmlns="http://www.w3.org/2000/svg" viewBox="0 0 275.86 207.61"><defs><style>.cls-1{fill:#3182cf;}</style></defs><path class="cls-1" d="M235.8,6.15H168.13a24,24,0,0,0-15.9,6V0H11.6V123.46A18.4,18.4,0,0,0,0,140.53v15.15a18.41,18.41,0,0,0,18.39,18.39H34.33c0,.14,0,.28,0,.41a33.13,33.13,0,1,0,66.26,0c0-.13,0-.27,0-.41h86.32c0,.14,0,.28,0,.41a33.13,33.13,0,1,0,65.95-4.24A40.09,40.09,0,0,0,275.86,134V46.2A40.1,40.1,0,0,0,235.8,6.15Zm-216,2.08H144V122.14H19.84Zm47.6,191.15a24.9,24.9,0,1,1,24.89-24.9A24.93,24.93,0,0,1,67.44,199.38Zm152.53,0a24.9,24.9,0,1,1,24.88-24.9A24.92,24.92,0,0,1,220,199.38ZM267.63,134a31.82,31.82,0,0,1-16.95,28.11A33.09,33.09,0,0,0,188,165.83H99.38a33.08,33.08,0,0,0-63.88,0H18.39A10.16,10.16,0,0,1,8.24,155.68V140.53a10.17,10.17,0,0,1,10.15-10.16H152.23V30.28a15.92,15.92,0,0,1,15.9-15.9H235.8A31.86,31.86,0,0,1,267.63,46.2Z"/><path class="cls-1" d="M67.44,158.51a16,16,0,1,0,16,16A16,16,0,0,0,67.44,158.51Zm0,23.71a7.74,7.74,0,1,1,7.73-7.74A7.75,7.75,0,0,1,67.44,182.22Z"/><path class="cls-1" d="M220,158.51a16,16,0,1,0,16,16A16,16,0,0,0,220,158.51Zm0,23.71a7.74,7.74,0,1,1,7.73-7.74A7.75,7.75,0,0,1,220,182.22Z"/><path class="cls-1" d="M231.5,40.48H212.23v-.24H166V98.81H231.5a21.61,21.61,0,0,0,21.59-21.58V62.07A21.61,21.61,0,0,0,231.5,40.48Zm13.35,36.75A13.36,13.36,0,0,1,231.5,90.58H174.27V48.47H204v.25H231.5a13.36,13.36,0,0,1,13.35,13.35Z"/></svg>