<?xml version="1.0" encoding="utf-8"?>
<!-- Generator: Adobe Illustrator 26.5.0, SVG Export Plug-In . SVG Version: 6.00 Build 0)  -->
<svg version="1.1" id="Layer_1" xmlns="http://www.w3.org/2000/svg" xmlns:xlink="http://www.w3.org/1999/xlink" x="0px" y="0px"
	 viewBox="0 0 559.5 670.4" style="enable-background:new 0 0 559.5 670.4;" xml:space="preserve">
<style type="text/css">
	.st0{fill:url(#SVGID_1_);}
	.st1{fill:#21669E;}
	.st2{fill:url(#SVGID_00000029749257877054393020000016052209540834221953_);}
	.st3{fill:url(#SVGID_00000062890771248563104660000007251184390827334299_);}
	.st4{fill:url(#SVGID_00000029019647097457394500000009979372015943481534_);}
	.st5{fill:url(#SVGID_00000061458620061609578490000002537407073648166560_);}
	.st6{fill:url(#SVGID_00000173122722211761485930000013976825992003288485_);}
	.st7{fill:url(#SVGID_00000054245588252723998400000009684593767123984314_);}
	.st8{fill:url(#SVGID_00000139270572439475218120000012293216136950812807_);}
	.st9{fill:url(#SVGID_00000163770893708277724190000001138472134019128727_);}
	.st10{fill:url(#SVGID_00000021113864079268986790000013025748393133613737_);}
	.st11{fill:url(#SVGID_00000025423690672517844540000005172135195004857234_);}
	.st12{fill:url(#SVGID_00000170993167024026631350000017935252963813035692_);}
	.st13{fill:url(#SVGID_00000137106074180218381960000011865856808473768345_);}
	.st14{fill:url(#SVGID_00000075871226476964591830000016590087431481567914_);}
	.st15{fill:url(#SVGID_00000011004869548885562670000010974933648280772513_);}
	.st16{fill:#E24782;}
	.st17{fill:#BC3796;}
	.st18{fill:#FF929F;}
	.st19{fill:#D139AD;}
	.st20{fill:#261F21;}
	.st21{fill:#F9F3DC;}
	.st22{fill:#473A3D;}
	.st23{fill:#665459;}
	.st24{fill:#5371A5;}
	.st25{fill:#991D7C;}
	.st26{fill:#FFEED9;}
	.st27{fill:url(#SVGID_00000179640555862064366190000001233230299141473711_);}
	.st28{fill:#F2E2CC;}
	.st29{fill:#F2DBA2;}
	.st30{fill:#FCEBC5;}
	.st31{fill:#E0B96C;}
	.st32{fill:#F7E4B7;}
	.st33{fill:#CC9C48;}
	.st34{fill:url(#SVGID_00000051344681612463591430000008739181644008157363_);}
	.st35{fill:#FFFEE1;}
	.st36{fill:url(#SVGID_00000009551718838917133280000011566686267306019496_);}
	.st37{fill:url(#SVGID_00000154395531124153447640000003364766911244809386_);}
	.st38{opacity:0.31;fill:#FFFFFF;}
	.st39{fill:#F79839;}
	.st40{opacity:0.99;fill:#FFF3D0;}
	.st41{opacity:0.67;fill:#FFFFFF;}
	.st42{fill:url(#SVGID_00000100378035027349465430000017303321620607960767_);}
</style>
<g>
	<linearGradient id="SVGID_1_" gradientUnits="userSpaceOnUse" x1="207.2055" y1="611.7694" x2="428.0649" y2="584.5028">
		<stop  offset="0" style="stop-color:#FFC145"/>
		<stop  offset="5.794610e-02" style="stop-color:#FFC348"/>
		<stop  offset="1" style="stop-color:#FFDB80"/>
	</linearGradient>
	<path class="st0" d="M322.4,597.3c0,6.9,5.6,12.4,12.4,12.4c6.9,0,12.4-5.6,12.4-12.4c0-5.7-3.8-10.4-9-11.9l0-43.3
		c0-3.1,2.5-5.7,5.7-5.7h11.2c1.6,6.7,7.6,11.7,14.8,11.7h4.1v17.8c0,3.1-2.5,5.7-5.7,5.7c-7,0-12.8,5.7-12.8,12.8l0,46.1
		c-5.1,1.6-8.8,6.3-8.8,11.9c0,6.9,5.6,12.4,12.4,12.4c6.9,0,12.4-5.6,12.4-12.4c0-5.7-3.8-10.4-9-11.9l0-7h13.8
		c3.1,0,5.7,2.5,5.7,5.7v17.1c-5.1,1.6-8.8,6.3-8.8,11.9c0,6.9,5.6,12.4,12.4,12.4s12.4-5.6,12.4-12.4c0-5.7-3.8-10.4-9-11.9v-17
		c0-7-5.7-12.8-12.8-12.8h-13.8v-31.9c0-3.1,2.5-5.7,5.7-5.7c7,0,12.8-5.7,12.8-12.8V548h10.1c4.5,0,8.1,3.6,8.1,8.1l0,39
		c-4.9,1.7-8.5,6.3-8.5,11.8c0,6.9,5.6,12.4,12.4,12.4c6.9,0,12.4-5.6,12.4-12.4c0-5.8-3.9-10.6-9.3-12l0-38.7
		c0-8.4-6.8-15.2-15.2-15.2H370c-4.5,0-8.1-3.6-8.1-8.1v-16.9c0-2-1.6-3.6-3.5-3.6c-2,0-3.5,1.6-3.5,3.6v13.4H344
		c-7,0-12.8,5.7-12.8,12.8l0,43.3C326.1,586.9,322.4,591.7,322.4,597.3z"/>
	
		<ellipse transform="matrix(0.7071 -0.7071 0.7071 0.7071 -172.1638 306.4427)" class="st1" cx="283.8" cy="361" rx="220.3" ry="220.3"/>
	<g>
		<g>
			
				<linearGradient id="SVGID_00000000190579771201802270000016317879791237679519_" gradientUnits="userSpaceOnUse" x1="232.6515" y1="477.84" x2="355.2628" y2="411.4724" gradientTransform="matrix(0.9993 3.640000e-02 -3.640000e-02 0.9993 6.8953 -17.2259)">
				<stop  offset="0" style="stop-color:#BC3796"/>
				<stop  offset="1" style="stop-color:#E24782"/>
			</linearGradient>
			<path style="fill:url(#SVGID_00000000190579771201802270000016317879791237679519_);" d="M242,448.8l-20.1-0.5
				c-3.3-0.1-5.9,2.8-5.8,6.4l0.5,16c0.1,3.3,2.6,6.2,5.7,6.5l18.7,2c3.5,0.4,6.5-2.2,6.7-5.7l0.8-17.5
				C248.7,452.2,245.8,448.9,242,448.8z"/>
			
				<linearGradient id="SVGID_00000121249032323341668740000013692426565574311348_" gradientUnits="userSpaceOnUse" x1="245.8201" y1="502.1651" x2="368.4307" y2="435.7979" gradientTransform="matrix(0.9993 3.640000e-02 -3.640000e-02 0.9993 6.8953 -17.2259)">
				<stop  offset="0" style="stop-color:#BC3796"/>
				<stop  offset="1" style="stop-color:#E24782"/>
			</linearGradient>
			<path style="fill:url(#SVGID_00000121249032323341668740000013692426565574311348_);" d="M271,468.3l-12.2-0.3
				c-2,0-3.6,1.9-3.5,4.3l0.2,10.7c0,2.2,1.6,4.1,3.5,4.3l11.3,1.3c2.1,0.3,4-1.4,4.1-3.8l0.5-11.7
				C275.1,470.6,273.3,468.4,271,468.3z"/>
			
				<linearGradient id="SVGID_00000038376167458835417750000015318880228753043878_" gradientUnits="userSpaceOnUse" x1="246.9267" y1="504.2085" x2="369.537" y2="437.8414" gradientTransform="matrix(0.9993 3.640000e-02 -3.640000e-02 0.9993 6.8953 -17.2259)">
				<stop  offset="0" style="stop-color:#BC3796"/>
				<stop  offset="1" style="stop-color:#E24782"/>
			</linearGradient>
			<path style="fill:url(#SVGID_00000038376167458835417750000015318880228753043878_);" d="M290.8,449.9l16.8,0
				c2.8,0,4.8,3,4.6,6.6l-0.8,16c-0.2,3.3-2.3,6.1-4.9,6.4l-15.7,1.6c-2.9,0.3-5.4-2.3-5.4-5.9l-0.3-17.5
				C285.1,453.1,287.6,449.8,290.8,449.9z"/>
			
				<linearGradient id="SVGID_00000003786526210094450640000018065603348663059098_" gradientUnits="userSpaceOnUse" x1="250.1176" y1="510.1023" x2="372.7281" y2="443.735" gradientTransform="matrix(0.9993 3.640000e-02 -3.640000e-02 0.9993 6.8953 -17.2259)">
				<stop  offset="0" style="stop-color:#BC3796"/>
				<stop  offset="1" style="stop-color:#E24782"/>
			</linearGradient>
			<path style="fill:url(#SVGID_00000003786526210094450640000018065603348663059098_);" d="M326,448.7l8.7,0c1.4,0,2.5,1.5,2.4,3.4
				l-0.4,8.3c-0.1,1.7-1.2,3.2-2.6,3.3l-8.1,0.8c-1.5,0.2-2.8-1.2-2.8-3l-0.1-9.1C323,450.4,324.4,448.7,326,448.7z"/>
			
				<linearGradient id="SVGID_00000109752214206207495670000008004687304848822206_" gradientUnits="userSpaceOnUse" x1="275.5624" y1="557.1036" x2="398.1725" y2="490.7367" gradientTransform="matrix(0.9993 3.640000e-02 -3.640000e-02 0.9993 6.8953 -17.2259)">
				<stop  offset="0" style="stop-color:#BC3796"/>
				<stop  offset="1" style="stop-color:#E24782"/>
			</linearGradient>
			<path style="fill:url(#SVGID_00000109752214206207495670000008004687304848822206_);" d="M372.9,487.1l6.9,0c1.1,0,2,1.2,1.9,2.7
				l-0.3,6.6c-0.1,1.3-1,2.5-2,2.6l-6.4,0.6c-1.2,0.1-2.2-0.9-2.2-2.4l-0.1-7.2C370.5,488.5,371.6,487.1,372.9,487.1z"/>
			
				<linearGradient id="SVGID_00000137105584029331014280000006878408929651189435_" gradientUnits="userSpaceOnUse" x1="284.3406" y1="573.3217" x2="406.951" y2="506.9546" gradientTransform="matrix(0.9993 3.640000e-02 -3.640000e-02 0.9993 6.8953 -17.2259)">
				<stop  offset="0" style="stop-color:#BC3796"/>
				<stop  offset="1" style="stop-color:#E24782"/>
			</linearGradient>
			<path style="fill:url(#SVGID_00000137105584029331014280000006878408929651189435_);" d="M329.7,529.1l6.9,0c1.1,0,2,1.2,1.9,2.7
				l-0.3,6.6c-0.1,1.3-1,2.5-2,2.6l-6.4,0.6c-1.2,0.1-2.2-0.9-2.2-2.4l-0.1-7.2C327.3,530.4,328.4,529.1,329.7,529.1z"/>
			
				<linearGradient id="SVGID_00000109739035192215259950000005080217681220679359_" gradientUnits="userSpaceOnUse" x1="263.1149" y1="534.1111" x2="385.7251" y2="467.744" gradientTransform="matrix(0.9993 3.640000e-02 -3.640000e-02 0.9993 6.8953 -17.2259)">
				<stop  offset="0" style="stop-color:#BC3796"/>
				<stop  offset="1" style="stop-color:#E24782"/>
			</linearGradient>
			<path style="fill:url(#SVGID_00000109739035192215259950000005080217681220679359_);" d="M345.9,467.2l10.6-0.5
				c1.7-0.1,3,1.8,2.9,4.2l-0.5,10.5c-0.1,2.2-1.5,4.1-3.1,4.3l-9.8,1.5c-1.8,0.3-3.4-1.4-3.4-3.7l-0.2-11.4
				C342.3,469.5,343.9,467.3,345.9,467.2z"/>
			
				<linearGradient id="SVGID_00000039851578568493287190000012194970353532756660_" gradientUnits="userSpaceOnUse" x1="267.1103" y1="541.492" x2="389.7201" y2="475.1252" gradientTransform="matrix(0.9993 3.640000e-02 -3.640000e-02 0.9993 6.8953 -17.2259)">
				<stop  offset="0" style="stop-color:#BC3796"/>
				<stop  offset="1" style="stop-color:#E24782"/>
			</linearGradient>
			<path style="fill:url(#SVGID_00000039851578568493287190000012194970353532756660_);" d="M312.8,496.6l7.7-1.3
				c1.3-0.2,2.2,1,2.1,2.7l-0.4,7.6c-0.1,1.6-1.1,3.1-2.3,3.4l-7.1,2c-1.3,0.4-2.5-0.7-2.5-2.3l-0.1-8.2
				C310.2,498.6,311.4,496.8,312.8,496.6z"/>
			
				<linearGradient id="SVGID_00000124873175381571469630000008788690903837405330_" gradientUnits="userSpaceOnUse" x1="287.436" y1="579.0408" x2="410.0455" y2="512.6742" gradientTransform="matrix(0.9993 3.640000e-02 -3.640000e-02 0.9993 6.8953 -17.2259)">
				<stop  offset="0" style="stop-color:#BC3796"/>
				<stop  offset="1" style="stop-color:#E24782"/>
			</linearGradient>
			<path style="fill:url(#SVGID_00000124873175381571469630000008788690903837405330_);" d="M292.3,554.4l7.7-1.3
				c1.3-0.2,2.2,1,2.1,2.7l-0.4,7.6c-0.1,1.6-1.1,3.1-2.3,3.4l-7.1,2c-1.3,0.4-2.5-0.7-2.5-2.3l-0.1-8.2
				C289.7,556.4,290.9,554.6,292.3,554.4z"/>
			
				<linearGradient id="SVGID_00000000218473600147537660000009577634125482052249_" gradientUnits="userSpaceOnUse" x1="260.2412" y1="528.8019" x2="382.8516" y2="462.4348" gradientTransform="matrix(0.9993 3.640000e-02 -3.640000e-02 0.9993 6.8953 -17.2259)">
				<stop  offset="0" style="stop-color:#BC3796"/>
				<stop  offset="1" style="stop-color:#E24782"/>
			</linearGradient>
			<path style="fill:url(#SVGID_00000000218473600147537660000009577634125482052249_);" d="M379.6,441.2l13,0
				c2.1,0,3.7,2.3,3.6,5.1l-0.6,12.4c-0.1,2.5-1.8,4.7-3.8,4.9l-12.1,1.2c-2.3,0.2-4.2-1.8-4.2-4.6l-0.2-13.5
				C375.2,443.7,377.2,441.2,379.6,441.2z"/>
			
				<linearGradient id="SVGID_00000132792368927766326160000013506398243083803576_" gradientUnits="userSpaceOnUse" x1="261.9607" y1="531.9812" x2="384.5709" y2="465.6142" gradientTransform="matrix(0.9993 3.640000e-02 -3.640000e-02 0.9993 6.8953 -17.2259)">
				<stop  offset="0" style="stop-color:#BC3796"/>
				<stop  offset="1" style="stop-color:#E24782"/>
			</linearGradient>
			<path style="fill:url(#SVGID_00000132792368927766326160000013506398243083803576_);" d="M269.7,500.2l12.5,0
				c2.1,0,3.6,2.2,3.4,4.9l-0.6,11.9c-0.1,2.4-1.7,4.6-3.7,4.7l-11.7,1.2c-2.2,0.2-4-1.7-4.1-4.4l-0.2-13
				C265.4,502.6,267.4,500.2,269.7,500.2z"/>
			
				<linearGradient id="SVGID_00000034064540728841733320000003970085922528426147_" gradientUnits="userSpaceOnUse" x1="236.2632" y1="484.5122" x2="358.8741" y2="418.1448" gradientTransform="matrix(0.9993 3.640000e-02 -3.640000e-02 0.9993 6.8953 -17.2259)">
				<stop  offset="0" style="stop-color:#BC3796"/>
				<stop  offset="1" style="stop-color:#E24782"/>
			</linearGradient>
			<path style="fill:url(#SVGID_00000034064540728841733320000003970085922528426147_);" d="M214.7,476.5l-8.6-0.2
				c-1.4,0-2.5,1.2-2.5,2.8l0.2,6.9c0,1.4,1.1,2.7,2.5,2.8l8,0.9c1.5,0.2,2.8-0.9,2.9-2.5l0.4-7.5
				C217.6,478,216.3,476.6,214.7,476.5z"/>
			
				<linearGradient id="SVGID_00000029008184975955579040000013481379193600237745_" gradientUnits="userSpaceOnUse" x1="254.6468" y1="518.4715" x2="377.2582" y2="452.1038" gradientTransform="matrix(0.9993 3.640000e-02 -3.640000e-02 0.9993 6.8953 -17.2259)">
				<stop  offset="0" style="stop-color:#BC3796"/>
				<stop  offset="1" style="stop-color:#E24782"/>
			</linearGradient>
			<path style="fill:url(#SVGID_00000029008184975955579040000013481379193600237745_);" d="M228,513.9l-6.8-0.2c-1.1,0-2,1-2,2.2
				l0.2,5.5c0,1.1,0.9,2.1,1.9,2.2l6.4,0.7c1.2,0.1,2.2-0.7,2.3-1.9l0.3-5.9C230.3,515.1,229.3,514,228,513.9z"/>
			
				<linearGradient id="SVGID_00000181058330340893580160000002627213180991699365_" gradientUnits="userSpaceOnUse" x1="219.2214" y1="453.0315" x2="341.8327" y2="386.6639" gradientTransform="matrix(0.9993 3.640000e-02 -3.640000e-02 0.9993 6.8953 -17.2259)">
				<stop  offset="0" style="stop-color:#BC3796"/>
				<stop  offset="1" style="stop-color:#E24782"/>
			</linearGradient>
			<path style="fill:url(#SVGID_00000181058330340893580160000002627213180991699365_);" d="M192.5,447.6l-8.6-0.2
				c-1.4,0-2.5,1.2-2.5,2.8l0.2,6.9c0,1.4,1.1,2.7,2.5,2.8l8,0.9c1.5,0.2,2.8-0.9,2.9-2.5l0.4-7.5
				C195.4,449,194.1,447.6,192.5,447.6z"/>
		</g>
		<path class="st16" d="M260.4,204.4c10-5,151.2,27.7,153.1,29.6c4,3.9,8.9,209.8,4.7,212.2c-5.3,3-143.2,16.9-150.7,16.3
			C260,461.8,256.2,206.5,260.4,204.4z"/>
		<path class="st17" d="M143.9,443.4c-3-6.1-9.8-205.8-5.4-209.4c4.7-3.9,119.8-30,123.8-29.8c3.9,0.1,10.9,257.6,6.4,258
			C264.1,462.5,146.5,448.6,143.9,443.4z"/>
		<path class="st18" d="M398.8,250.4l-109.5-23.8c-3.4-0.7-6.5,1.9-6.4,5.3c1.5,63.8,1.9,130.8,1.4,200.5c0,3.1,2.6,5.6,5.7,5.3
			l112.4-8.8c2.8-0.2,5-2.6,4.9-5.4l-4.3-168C402.9,253,401.2,250.9,398.8,250.4z"/>
		<path class="st19" d="M231,274.5c-1.8-1.5-54.1,9.2-80.8,16.2c-3.4,0.9-5.8,4-5.8,7.6c1,54.9,4.1,131.5,5.8,135
			c1.5,3.1,47,9.5,79.7,13.5c4.6,0.6,8.7-3.1,8.7-7.7C238.4,380.5,237.2,279.8,231,274.5z"/>
		<path class="st19" d="M240.9,225.8c-0.6-0.3-21.3,4-32.9,6.8c-1.6,0.4-2.6,1.3-2.6,2.2c0.8,13.9,2.6,31.7,3.4,32.4
			c0.6,0.6,18.5-1.7,30.1-3.4c1.6-0.2,3-1.2,3-2.2C242.4,249.4,243.1,226.8,240.9,225.8z"/>
		<g>
			<path class="st20" d="M389.3,317.1c0.1-5.4-3-9.7-7-9.6c-4,0.2-7.3,4.7-7.4,10.1c-0.1,5.4,3,9.7,7,9.6
				C385.9,327.1,389.2,322.6,389.3,317.1z"/>
			<polygon class="st21" points="356.2,292.4 354.6,278.9 364.5,260.6 366.8,261.3 369.3,302 			"/>
			<path class="st22" d="M349.3,265.4l-3.1,2.5l-4.1-3.8l-10,5.5l0.5,5.6l-5.7-1.7L314,289.4l1.3,14.5l-3.2-1.8l-3.4,5l0.2,8.6
				l3.4,0.5l-3.7,2.4l3.2,19.8l5.8,3.7l2.2,0.4l-5.5,2.7c0,0,0.7,5.4,0.8,6s6,8.1,6,8.1l3.8,3.5l-2.6,1l9,10.6l8-6.3l8.6-82.2
				c0.4-0.7,7.5-10.1,7.5-10.1L349.3,265.4z"/>
			<path class="st20" d="M381.6,382c0,0-16.7-8.4-18.5-8.6c-1.8-0.1-31.2-4.9-31.2-4.9l-40.4,44.1l-0.6,17.6l109-6.9L381.6,382z"/>
			<polygon class="st21" points="320.3,319.4 332,368.5 349.9,385.8 363.9,373.2 354.9,332.9 			"/>
			<polygon class="st23" points="328,351.8 338.9,349.8 360.5,357.1 358.6,349.5 352.2,339.5 327.9,335.2 324.4,336.7 			"/>
			<polygon class="st23" points="360.6,352.1 357.1,358.3 350.7,361.2 333.8,359.4 350.8,363.4 362.6,361.1 			"/>
			<g>
				<polygon class="st23" points="348.8,357.7 336.4,353.3 328.5,353.9 329.5,357.9 335,356 				"/>
				<polygon class="st23" points="351.5,371.1 362,364.9 361.9,364.4 352.3,367.7 343.3,366.2 330.5,362.3 331.3,365.6 342.1,370.4 
									"/>
				<path class="st23" d="M337.8,373l9.3,7l8.7-3.7l7.7-4.9l-0.7-3.1c-3.5,2.1-14.4,8.2-14.4,8.2L337.8,373z"/>
			</g>
			<path class="st21" d="M325.4,340.8l-5.1-21.4l3.1-28.9c0,0,34.4-7.3,35.1-7c0.8,0.2,16.4,24.3,16.9,25.1
				c0.5,0.7,11.6,44.4,11.6,44.4l5,10.3l-12.4,11.2c0,0-19.3-2.1-19.7-3.3c-0.5-1.2-5.7-17.4-5.7-17.4L325.4,340.8z"/>
			<g>
				<path class="st23" d="M382.5,335.4c-0.4-1.4-0.7-2.8-1.1-4.2l-22.7,6.3l-15.1,11.6c1.6,1.4,3.6,2.4,6.1,2.7l8.6-11.8
					L382.5,335.4z"/>
				<path class="st23" d="M345,338.7l-18.5,3.3l8.3,3.8c8.2-3.6,17.4-7.5,17.4-7.5L345,338.7z"/>
				<polygon class="st23" points="345.1,310 354.6,302.7 333.8,313.3 320.6,316.2 320.3,319.4 322.4,328.1 332.8,317.6 				"/>
				<path class="st23" d="M373.4,305.5c-0.7-1.1-1.6-2.5-2.6-4l-14.4,3.4L373.4,305.5z"/>
				<path class="st23" d="M364.4,291.8c-1.2-1.7-2.3-3.4-3.2-4.7l-14.4,0.8l-4.2-1.4l-2.1,0.4l7.1,4L364.4,291.8z"/>
				<polygon class="st23" points="322.1,302.7 321.4,309.2 329.8,297.5 				"/>
				<polygon class="st23" points="329,341.7 329.6,333.8 340.5,324.1 350,320.2 336.8,323.6 323.2,332.3 325.9,343 				"/>
			</g>
			<path class="st22" d="M354.1,353.9c0,0,4,17.2,4.4,18.5c0.5,1.2,21,3.3,21,3.3l12.5-12.4l0.7-14l-8.1-5.6l-13-4.3L354.1,353.9z"
				/>
			<path class="st20" d="M372.3,372c-4.8-0.5-11.6-0.9-11.6-0.9l-0.3-1.9L372.3,372z"/>
			<path class="st20" d="M376.6,364.4c-0.1-0.4-7.4-7-7.4-7l-5.3-6.1l1.7,8.9L376.6,364.4z"/>
			<polygon class="st20" points="388.3,358.9 390.6,350.1 384,344.8 387,351.3 			"/>
			<path class="st23" d="M338.7,295l-2.1,11.5l5.1-13l-3.1-6.2c-1.5,0.3-2.9,0.6-4.3,0.9L338.7,295z"/>
			<polygon class="st23" points="349.6,385.7 348.5,394.5 357.1,393.4 352.8,383.2 			"/>
			<path class="st20" d="M364.5,320.3c0.1-5.4-3-9.7-7-9.6c-4,0.2-7.3,4.7-7.4,10.1c-0.1,5.4,3,9.7,7,9.6
				C361.1,330.3,364.4,325.7,364.5,320.3z"/>
			<g>
				<path class="st20" d="M362.5,321.9l-0.7-3.6c12-8.4,18.7-3.2,19-2.9l-0.5,3.5C380.4,318.8,373.9,313.9,362.5,321.9z"/>
			</g>
			<path class="st22" d="M362.8,318.3c-0.3-3.6-2.1-6.2-4-5.9c-0.7,0.1-1.3,0.6-1.8,1.3c2.1,0.1,4,3.1,4.3,7c0.1,1.4,0,2.7-0.3,3.9
				C362.2,323.5,363,321,362.8,318.3z"/>
			<path class="st22" d="M387.3,315.5c-0.3-3.6-2.1-6.2-4-5.9c-0.7,0.1-1.3,0.6-1.8,1.3c2.1,0.1,4,3.1,4.3,7c0.1,1.4,0,2.7-0.3,3.9
				C386.8,320.7,387.6,318.2,387.3,315.5z"/>
			<polygon class="st20" points="350.6,320.5 319.4,319.7 320.3,324.4 350.9,322.3 			"/>
			<path class="st20" d="M306.2,286.2c20.2,5.1,71.2,2.6,72.9,1.5c1.7-1.1-24-5.9-24-5.9l-34.3-1.1
				C320.8,280.7,298.4,284.2,306.2,286.2z"/>
			<path class="st20" d="M350.9,252.4c-14.3-3.1-31,2.1-34.1,4.4c-3.1,2.3,0.9,27.2,0.9,27.2l41.5-0.4
				C359.2,283.6,365.3,255.5,350.9,252.4z"/>
			<path class="st22" d="M316.2,272.1c0.3,3,0.7,5.9,1,8.1c15-1,29.4-1.1,42.6,0.3c0.2-1.7,0.5-3.9,0.6-6.3
				C345.9,274.2,331.1,273.4,316.2,272.1z"/>
			<polygon class="st21" points="321.7,305.8 316.3,292.3 308.9,270.4 310.8,269.6 334,288.3 335,308.7 			"/>
			<polygon class="st24" points="321.1,299.8 318.2,292.7 312.4,276.6 313.4,276.2 326.1,291.8 328,301.3 			"/>
		</g>
		<path class="st18" d="M413.5,234c-2-1.9-143.2-34.6-153.1-29.6c-0.2,0.1,127.7,21.3,150.8,32.1c4.7,2.2,6.6,209.8,7,209.6
			C422.4,443.8,417.5,237.9,413.5,234z"/>
		<path class="st25" d="M254.1,212.3c2.8,0.1,11.1,134.3,16,213.2c-0.1-71.2-4.8-221.2-7.8-221.3c-3.4-0.1-91.6,19.7-117.1,27.4
			C179.8,224.7,251,212.2,254.1,212.3z"/>
		<g>
			<g>
				<path class="st25" d="M176.3,425.3c-0.1,0-0.2,0-0.3,0c-19.3-3.3-19.9-4.6-20.5-5.8c-0.3-0.6-0.9-1.7-2.1-18.3
					c-0.1-1.2,0.8-2.2,2-2.3c1.2-0.1,2.2,0.8,2.3,2c0.9,11.6,1.4,15.2,1.6,16.4c1.1,0.5,4.8,1.6,17.5,3.8c1.2,0.2,1.9,1.3,1.7,2.5
					C178.3,424.6,177.4,425.3,176.3,425.3z"/>
			</g>
			<g>
				<path class="st25" d="M254.8,435.7c-2.5-0.1-10.1-1-16.5-1.7c-1.2-0.1-2-1.2-1.9-2.4c0.1-1.2,1.2-2,2.4-1.9
					c8.3,1,12.7,1.4,14.8,1.6c0.2-1.9,0.4-6.8,0.3-18.6c0-1.2,0.9-2.1,2.1-2.2c1.2,0,2.1,0.9,2.2,2.1c0.1,6.6,0,11.8-0.1,15.3
					c-0.2,4.8-0.3,7.5-2.7,7.7C255.3,435.7,255,435.7,254.8,435.7z"/>
			</g>
			<g>
				<path class="st25" d="M249.7,258.7c-1.1,0-2-0.9-2-2c-0.8-11.6-1.4-16.3-1.7-18.3c-1.6,0.3-5.1,0.9-12.4,2.4
					c-1.2,0.2-2.3-0.5-2.5-1.7c-0.2-1.2,0.5-2.3,1.7-2.5c13.5-2.8,14.4-2.7,14.8-2.7c2.3,0.1,2.5,2.4,3.1,7.4
					c0.4,3.5,0.8,8.5,1.3,15.1c0.1,1.2-0.8,2.2-2,2.3C249.9,258.7,249.8,258.7,249.7,258.7z"/>
			</g>
			<g>
				<path class="st25" d="M150,281.1c-1.1,0-2-1-2.1-2.1c-0.2-20.9,0.6-21.6,1.6-22.4c0.6-0.5,1.5-1.2,14.2-4.4
					c1.1-0.3,2.3,0.4,2.6,1.5c0.3,1.1-0.4,2.3-1.5,2.6c-8.3,2.1-11.2,3-12.2,3.5c-0.2,1.3-0.6,5.5-0.4,19.2c0,1.2-0.9,2.1-2.1,2.2
					C150.1,281.1,150,281.1,150,281.1z"/>
			</g>
		</g>
		<g>
			<path class="st26" d="M247.4,337.7c0.2-35.5-21.5-65.1-48.5-66.1c-27-1-49,27-49.2,62.5s21.5,65.1,48.5,66.1
				C225.2,401.2,247.2,373.2,247.4,337.7z M198.8,397c-25.9-0.9-46.7-29-46.5-62.7s21.3-60.2,47.2-59.3c25.9,0.9,46.7,29,46.5,62.7
				C245.8,371.4,224.7,397.9,198.8,397z"/>
			<path class="st26" d="M218.8,354.5c-0.5-14.4-14.1-19.8-16-20.5c1.8-0.6,3.3-1.6,4.7-3c2.4-2.5,4.7-6.6,4.5-13.9
				c-0.3-9.3-3.9-13.7-8.9-15.7l-0.2-6.3c0-0.8-0.6-1.5-1.4-1.5l-4.8-0.1c-0.7,0-1.3,0.6-1.3,1.4l0.2,4.9c-0.5,0-1.1,0-1.6-0.1
				c-1.1,0-2.3,0-3.4,0.1l-0.2-4.9c0-0.9-0.7-1.6-1.5-1.6l-4.3-0.1c-0.8,0-1.4,0.7-1.4,1.5l0.2,5.9c-0.2,0.1-0.4,0.1-0.5,0.1
				c-0.7,0.2-0.9,0.5-0.9,0.8c0,0.1,0,0.3,0.1,0.5c0.1,0.5,0.3,2.6,0.4,4.7c0,0.9,0.1,1.9,0,2.6c-0.2,2.6,0.3,16.9,0.2,22.1
				c-0.2,2.9-0.1,4.7-0.1,6.4c0,1.4,0.1,2.7,0.1,4.5l0.6,20.7c0.1,1.8,0.4,3.3,2.1,3.6l0.2,5.8c0,0.9,0.7,1.6,1.5,1.6l4.3,0.1
				c0.8,0,1.4-0.7,1.4-1.5l-0.2-5.9c1.8,0,3.6,0,5,0l0.2,6.1c0,0.8,0.6,1.5,1.4,1.5l4.8,0.1c0.7,0,1.3-0.6,1.3-1.4l-0.2-6.4
				C211.1,366,219,363.7,218.8,354.5z M193.4,329.1l-0.3-10.6c-0.1-2.6-0.1-6.6-0.1-10l0-6c7.7,0.1,15.5,0.9,16,15.2
				c0.4,14.3-14.3,14.9-15,14.9c-0.6,0-0.6-0.2-0.6-0.8C193.3,331.2,193.4,330.6,193.4,329.1z M197.1,364.9c-1.6,0-2.5,0.3-2.6-1.5
				c-0.1-1.7-0.6-7.6-0.6-9.8c-0.1-2.2,0.1-2.5,0-4.3c-0.1-1.7-0.6-9-0.7-11c0-1-0.1-1.7,0-2.1c0-0.3,0-0.5,0.1-0.7
				c3.6,0,6.9,0.6,9.8,1.8c4.9,2.3,10,6.9,10.3,17.1C213.6,360.7,208.6,365.1,197.1,364.9z"/>
			<g>
				<g>
					<path class="st26" d="M205.5,287.3c-0.1,0-0.3,0-0.4-0.1c-0.5-0.2-0.7-0.8-0.4-1.3l3.4-7c0.2-0.5,0.8-0.7,1.3-0.4
						c0.5,0.2,0.7,0.8,0.4,1.3l-3.4,7C206.2,287.1,205.9,287.3,205.5,287.3z"/>
				</g>
				<g>
					<path class="st26" d="M164.2,372.5c-0.1,0-0.3,0-0.4-0.1c-0.5-0.2-0.7-0.8-0.4-1.3l13.2-27.2c0.2-0.5,0.8-0.7,1.3-0.4
						c0.5,0.2,0.7,0.8,0.4,1.3L165.1,372C164.9,372.3,164.6,372.5,164.2,372.5z"/>
				</g>
				<g>
					<path class="st26" d="M209.4,297c-0.1,0-0.3,0-0.4-0.1c-0.5-0.2-0.7-0.8-0.4-1.3l6.1-12.6c0.2-0.5,0.8-0.7,1.3-0.4
						c0.5,0.2,0.7,0.8,0.4,1.3l-6.1,12.6C210.1,296.8,209.8,297,209.4,297z"/>
				</g>
				<g>
					<path class="st26" d="M169.8,378.5c-0.1,0-0.3,0-0.4-0.1c-0.5-0.2-0.7-0.8-0.4-1.3l7.1-14.7c0.2-0.5,0.8-0.7,1.3-0.4
						c0.5,0.2,0.7,0.8,0.4,1.3l-7.1,14.7C170.5,378.3,170.2,378.5,169.8,378.5z"/>
				</g>
				<g>
					<path class="st26" d="M213,336.2c-0.1,0-0.3,0-0.4-0.1c-0.5-0.2-0.7-0.8-0.4-1.3l18-36c0.2-0.5,0.8-0.7,1.3-0.4
						c0.5,0.2,0.7,0.8,0.4,1.3l-18,36C213.7,336,213.3,336.2,213,336.2z"/>
				</g>
				<g>
					<path class="st26" d="M185.8,390.7c-0.1,0-0.3,0-0.4-0.1c-0.5-0.2-0.7-0.8-0.4-1.3l5-10c0.2-0.5,0.8-0.7,1.3-0.4
						c0.5,0.2,0.7,0.8,0.4,1.3l-5,10C186.5,390.5,186.2,390.7,185.8,390.7z"/>
				</g>
				<g>
					<path class="st26" d="M215.8,308.6c-0.1,0-0.3,0-0.4-0.1c-0.5-0.2-0.7-0.8-0.4-1.3l5-9.7c0.2-0.5,0.8-0.7,1.3-0.4
						c0.5,0.2,0.7,0.8,0.4,1.3l-5,9.7C216.6,308.4,216.2,308.6,215.8,308.6z"/>
				</g>
				<g>
					<path class="st26" d="M178.6,381.5c-0.1,0-0.3,0-0.4-0.1c-0.5-0.2-0.7-0.8-0.4-1.3l3-6c0.2-0.5,0.8-0.6,1.3-0.4
						c0.5,0.2,0.7,0.8,0.4,1.3l-3,6C179.3,381.3,179,381.5,178.6,381.5z"/>
				</g>
			</g>
			<path class="st26" d="M255.8,338c0.1-22.7-8.5-43.1-21.7-55.2c-0.9-0.8-2.2,0.5-1.4,1.4c0.9,1,1.8,2,2.6,3.1c0,0,0,0,0.1,0.1
				c11.6,11.6,19.1,30.1,19,50.6c-0.1,20.7-8,38.7-19.9,49.5c0,0,0,0-0.1,0.1c-1,1.1-2,2.2-3,3.2c-0.9,0.9,0.3,2.2,1.3,1.5
				C246.5,381.2,255.7,361.2,255.8,338z"/>
		</g>
		<g>
			<path class="st16" d="M443.3,397.6c-3.1-0.1-6.1-0.6-9.2-1.6c-1.5-0.5-2.3-2-1.8-3.5c0.5-1.5,2-2.3,3.5-1.8
				c9.1,2.9,18.4,1.2,25.6-4.5c7-5.6,10.9-14.3,10.2-22.7c-0.1-1.5,1-2.8,2.5-3c1.5-0.1,2.8,1,3,2.5c0.9,10.2-3.8,20.7-12.3,27.4
				C458.6,395.4,451.1,397.8,443.3,397.6z"/>
		</g>
		<g>
			<path class="st17" d="M153.8,214.8c-1.2,0-2.3-0.9-2.6-2.2c-0.3-1.5,0.6-2.9,2.1-3.3l87.3-18.2c1.5-0.3,2.9,0.6,3.3,2.1
				c0.3,1.5-0.6,2.9-2.1,3.3l-87.3,18.2C154.3,214.8,154,214.8,153.8,214.8z"/>
		</g>
		<g>
			<path class="st16" d="M131.7,451.5c-0.5,0-1-0.2-1.4-0.4c-15-9.7-13.2-31.3-13.1-32.3c0.1-1.5,1.5-2.6,3-2.5
				c1.5,0.1,2.6,1.5,2.5,3c0,0.2-1.5,19.2,10.6,27.1c1.3,0.8,1.6,2.5,0.8,3.8C133.6,451.1,132.6,451.5,131.7,451.5z"/>
		</g>
		<g>
			<path class="st16" d="M422.6,235.8c-1.5-0.1-2.7-1.3-2.7-2.9c0.3-7.3-3.8-14.8-13.6-15.2c-1.5-0.1-2.7-1.3-2.7-2.9
				c0.1-1.5,1.3-2.7,2.9-2.7c11.5,0.4,19.3,9,18.9,20.9C425.4,234.7,424.2,235.9,422.6,235.8z"/>
		</g>
	</g>
	<g>
		
			<linearGradient id="SVGID_00000150087538028690220000000015264059273458891432_" gradientUnits="userSpaceOnUse" x1="340.0049" y1="117.134" x2="320.883" y2="191.9347" gradientTransform="matrix(0.9571 0.2898 -0.2898 0.9571 67.1062 -121.7011)">
			<stop  offset="0" style="stop-color:#FFC145"/>
			<stop  offset="1" style="stop-color:#FFA733"/>
		</linearGradient>
		<path style="fill:url(#SVGID_00000150087538028690220000000015264059273458891432_);" d="M403.3,117c-4.4-45.7-69.4-63-111-39.2
			c-40,22.9-4.4,76.4,44,91.1c2.5,5.7,2.8,12,4.6,12.5c1.8,0.5,2.8-6.3,6-9.9C385.6,178.6,407.3,159.5,403.3,117z"/>
		<g>
			<path class="st28" d="M337.6,105c-1.4,4.8-7.9,2.5-9.3,2.1c-1.3-0.4-4.6-1.3-5.3-1.5c-0.8-0.2-0.8-0.9-0.6-1.6l2.3-7.5
				c0.2-0.6,0.3-1.1,0.5-1.6c0.2-0.6,0.4-1.3,0.8-2.3c0.7-1.9,2.2-7,2.6-7.9c0.1-0.3,0.2-0.6,0.3-0.9c0.2-0.7,0.4-1.5,0.4-1.7
				c0-0.1,0-0.1,0-0.2c0-0.1,0.2-0.2,0.5-0.2c0.3,0,2.8,0.3,4.5,0.9c3.6,1.1,6.6,3,5.1,8.2c-0.8,2.7-2.2,3.8-3.5,4.5
				c-0.7,0.3-1.5,0.5-2.3,0.5C334.4,96.3,339.1,99.7,337.6,105z M335.5,104.3c1.1-3.7-0.3-5.9-2-7.3c-1-0.8-2.2-1.4-3.7-1.8
				c-0.1,0.1-0.1,0.2-0.1,0.3c-0.1,0.2-0.2,0.4-0.3,0.8c-0.2,0.7-0.9,3.4-1.1,4c-0.2,0.6-0.3,0.7-0.5,1.5c-0.2,0.8-0.8,3-0.9,3.6
				c-0.2,0.7,0.2,0.7,0.8,0.8C332.2,107.6,334.8,106.6,335.5,104.3z M330.2,93.9c-0.1,0.2-0.1,0.3,0.1,0.4c0.3,0.1,6.2,1.5,7.8-3.6
				c1.6-5.2-1.5-6.4-4.5-7.3l-0.7,2.1c-0.4,1.2-0.9,2.6-1.2,3.6l-1.2,3.8C330.4,93.5,330.3,93.7,330.2,93.9z"/>
			<path class="st28" d="M348.7,96.4c0.1,0.7,0.1,1.8,0.2,2.8c0,0.6,0.1,1.2,0,1.8l0.5-0.8l0.9-1.3c0.5-0.7,2.8-3.8,3.4-4.4
				c0.5-0.7,1.8-2.4,2.4-3.5c0.6-1.1,1.1-0.7,1.6-0.6c0.2,0.1,1.1,0.3,1.8,0.5c0.6,0.2,1.1,0.4,1.4,0.5c0.5,0.2,0.7,0.4,0.6,0.6
				c0,0.1-0.1,0.2-0.2,0.3c-0.3,0.4-1.6,2.4-2.6,3.5c-0.8,1.1-4.2,5.3-5.2,6.7c-1.1,1.3-5.2,6.5-5.6,7.1c-0.4,0.5-1,1.9-1.2,2.3
				c-0.3,0.5-0.4,0.6-0.7,0.5l-2-0.6c-0.5-0.2-2.1-0.6-2.7-0.8c-0.3-0.1-0.4-0.2-0.4-0.3c0-0.1,0.2-0.2,0.2-0.3l2.2-2.9
				c0.3-0.5,1.3-1.7,1.6-2.2c0.4-0.5,0.8-0.8,0.7-1.2c-0.1-0.4,0-2.3-0.1-3.2c-0.1-1,0-2.2-0.1-3.3c-0.1-1.1-0.3-7.4-0.3-8.3
				c0-1-0.2-1.6-0.1-2c0.1-0.4,0.6-0.3,1.1-0.1c0.5,0.1,1.1,0.3,1.7,0.5c0.5,0.3,0.2,0.4,0.3,0.8l0,3
				C348.4,92.8,348.5,95,348.7,96.4z"/>
			<path class="st28" d="M361.5,106.4c-1.2,3.9-0.4,7.3,1.7,7.9c2.3,0.7,3.3-0.9,3.6-1.8c0.3-0.8,1.7-5.1,2.5-7.6
				c0.5-1.8,1.6-4.6,2.2-6.8c0.3-1,0.5-1.8,0.6-2.4c0-0.3,0-0.5,0.1-0.7c0.3-0.8,0.8-0.5,1.1-0.4c0.4,0.1,1.6,0.5,2.4,0.7
				c0.8,0.2,0.6,0.5,0.5,1c-0.1,0.4-0.3,1.1-0.5,1.8c-0.1,0.4-0.2,0.7-0.4,1.1c-0.5,1.1-1.3,5.4-3.3,11.7c-2,6.3-6.1,7.1-9.4,6.1
				c-3.2-1-3.9-4.3-3.9-6.2c0-1.2,0.6-3.8,1.3-5.9c0.3-1.1,0.7-2.1,0.9-2.5c0.2-0.5,0.6-1.7,1-3.1c0.7-2.3,1.5-5.2,1.7-6.2
				c0-0.2,0.1-0.4,0.1-0.5c0.3-0.9,0.7-0.8,0.9-0.6c0.1,0,0.2,0.1,0.4,0.1c0.2,0.1,0.4,0,0.6,0.1c0.1,0,0.1,0.2,0.1,0.4
				C366.5,90.5,363,101.5,361.5,106.4z"/>
			<path class="st28" d="M317.6,127.9c-0.7,2.3-2,7.2-2.3,8.2c-0.3,1-0.7,2.7-0.8,3.3c0,0,0,0.1,0,0.1c-0.1,0.5-0.5,0.4-0.8,0.3
				c-0.4-0.1-1.5-0.3-2.3-0.5c-0.8-0.2-2.4-0.6-3.3-0.9c-0.9-0.3-0.7-0.8-0.7-1.2c0-0.3,0.1-0.7,0.3-1.5c0.1-0.4,0.2-0.8,0.5-1.4
				c0.6-1.9,1.9-5.9,2.5-7.4c0.6-1.6,2.8-7.2,3.2-8.5c0.4-1.3,0.8-2.7,1.3-3.9c0.3-0.8,0.8-0.8,1.2-0.6c0.3,0.1,0.7,0.3,0.9,0.3
				c0.5,0.2,1.9,0.5,2.9,0.8c1,0.3,1.3,0.6,1.4,1.2c0.1,0.6,0.4,3.2,0.7,5.1c0.3,1.9,1,7.4,1.3,9.2c0.1,1,0.5,2.5,0.7,3.8l0.4,2.4
				l0.5-2l0.9-3.3c0.1-0.3,0.2-0.7,0.3-1c0.4-1.4,0.9-2.8,1.2-3.7c0.3-1.1,1-3.6,1.4-4.9l1.1-3.2c0.1-0.4,0.4-0.4,0.7-0.4
				c0.2,0.1,0.5,0.2,0.6,0.3c0.4,0.2,0.5,0.2,1.2,0.4c0.4,0.1,0.4,0.2,0.3,0.4c-0.1,0.2-0.2,0.4-0.3,0.7c-0.2,0.6-2.5,7.9-3,9.7
				c-0.1,0.3-0.2,0.6-0.3,1c-0.6,2-1.2,4.8-1.6,6.1c-0.4,1.5-1.4,5.3-1.6,5.9c0,0,0,0.1,0,0.1c-0.2,0.6-0.5,0.5-0.8,0.4
				c-0.1-0.1-0.2-0.1-0.4-0.2c-0.4-0.1-0.9-0.2-1.2-0.3c-0.4-0.1-0.4-0.2-0.6-0.9c-0.1-0.7-0.5-5.9-0.8-7.4
				c-0.3-1.6-1.1-7.4-1.3-9.2c-0.1-0.9-0.4-2.2-0.6-3.4l-0.4-2L319,123C318.5,124.7,317.9,126.7,317.6,127.9z"/>
			<path class="st28" d="M351.6,138c-0.7,2.3-4.4,12.2-13.4,9.4c-4.5-1.4-5.8-5.3-6-8.9c-0.1-2.1,0.2-4.4,0.8-6.9
				c1.8-6.1,7.8-10.2,12.2-8.9c1.8,0.6,3.5,1,4.4,2.1C353.2,129.2,352.1,136.2,351.6,138z M348.8,137.2c1.7-5.5,0.5-11-3.5-12.2
				c-1.2-0.4-2.2-0.8-3.4,0c-1.3,0.7-5.3,2.4-6.9,7.7c-1.6,5.3-1.5,11.3,3.5,12.8C343.6,147,347.1,142.7,348.8,137.2z"/>
			<path class="st28" d="M364.3,139.7c0.5-0.5,2.8-2.3,3.3-3c0.5-0.5,1-0.8,1.5-0.7c0.5,0.2,0.2,0.6,0.3,1.3
				c-0.2,0.9-0.2,2.2-0.4,3.7c0,0.7,0,1.5,0.1,2c0,0.3,0.1,0.6,0.1,0.9c0.1-0.2,0.2-0.4,0.4-0.5l0.7-0.9c0.3-0.5,1.3-1.9,2.1-3.3
				c0.8-1.4,3.1-4.8,3.7-5.6c0.5-0.9,1.1-0.6,1.8-0.3l2.8,0.8c0.5,0.2,0.6,0.3,0.6,0.6c-0.1,0.2-0.2,0.4-0.3,0.6
				c-0.4,0.6-1.1,1.7-2.3,3.2c-1.1,1.6-3.1,4.7-3.7,5.7c-0.6,1.1-3,5.1-3.9,6.6c-0.9,1.4-3.4,4.8-3.8,4.7c-0.6-0.2-0.6-1.2-0.6-2.1
				c-0.1-0.9-0.3-3.4-0.3-5.4c0.1-1,0-2.5,0-3.7l-0.1-2.2c-0.1,0.1-0.2,0.3-0.4,0.5c-0.2,0.3-0.6,0.6-0.9,1l-3.7,3.8
				c-0.9,1.1-2.5,2.8-3,3.6c-0.7,0.8-1.4,1.5-1.9,1.3c-0.3-0.1-0.5-0.5-0.4-1.1c0-0.6-0.1-0.8,0-2.7c0.2-1.8,0.6-8.9,0.7-10.4
				c0.1-1.6,0.5-7.3,0.5-8.9c0-0.5,0.1-0.9,0.2-1.1c0.2-0.6,0.5-0.6,0.9-0.6c0.6,0.2,2,0.4,3.2,0.7c1.1,0.3,0.9,0.8,0.8,1.4
				c0,0.8-0.2,1.6-0.3,3.1c0,1.5,0,5.2-0.1,6.2c0,0.9-0.4,2.7-0.1,2.8l0.1,0C362.5,141.8,363.8,140.2,364.3,139.7z"/>
		</g>
	</g>
	<g>
		<path class="st16" d="M539.2,201l-83.9-10.9c-5.4-0.7-10,3.7-9.8,9.5l4.6,136.7c0.2,5.1,4,9.1,8.8,9.2l83.7,2.5
			c4.8,0.1,8.8-4.4,8.6-9.8L547,210.3C546.9,205.6,543.5,201.5,539.2,201z"/>
		<path class="st25" d="M551.4,338.2L547,210.3c-0.2-4.8-3.5-8.8-7.8-9.4l-33-4.3c-9.7,21.2-32.8,36.1-59.5,36.6l1.7,50
			c11.4-7.1,25.3-11,40.2-10.5c35.9,1.3,63.5,28.3,61.7,60.3c-0.3,4.5-1.1,8.9-2.5,13.1C550,344.5,551.5,341.5,551.4,338.2z"/>
		<path class="st29" d="M547.3,201.3l-83.9-10.9c-5.4-0.7-10,3.7-9.8,9.5l4.6,136.7c0.2,5.1,4,9.1,8.8,9.2l83.7,2.5
			c4.8,0.1,8.8-4.4,8.6-9.8l-4.3-127.9C555,205.9,551.6,201.8,547.3,201.3z"/>
		<path class="st30" d="M467.1,345.8l3.5,0.1c20.6-46.2,56.6-76.3,86.6-73l-2.1-62.3c-0.2-4.8-3.5-8.8-7.8-9.4l-13.8-1.8
			c-1.4,14.2-4.9,29.2-10.7,44.3c-14.6,38.4-39.8,67.4-65,78.2l0.5,14.5C458.5,341.6,462.3,345.6,467.1,345.8z"/>
		<path class="st31" d="M540.2,218.8l-62.4-8.1c-4-0.5-7.4,2.7-7.3,7l3.5,101.8c0.1,3.8,3,6.8,6.5,6.9l62.3,1.9
			c3.6,0.1,6.6-3.3,6.4-7.3l-3.2-95.2C545.9,222.3,543.4,219.2,540.2,218.8z"/>
		<path class="st29" d="M539.7,221.9l-57.8-7.5c-3.7-0.5-6.9,2.5-6.7,6.5l3.2,94.2c0.1,3.5,2.7,6.3,6,6.4l57.7,1.7
			c3.3,0.1,6.1-3,5.9-6.8l-3-88.1C544.9,225,542.6,222.2,539.7,221.9z"/>
		<path class="st32" d="M532.9,230.2c-10.6,30.1-32.6,55.5-55.1,66.3l0.6,18.6c0.1,3.2,2.3,5.8,5.3,6.3
			c14.4-29.7,39.4-52.6,62.6-57.5l-1.2-35.6c-0.1-3.3-2.4-6.1-5.4-6.5l-4.1-0.5C534.8,224.2,533.9,227.2,532.9,230.2z"/>
		<g>
			<path class="st33" d="M490.1,266c0.2,3.6,0.7,11,0.8,12.6c0.1,1.5,0.4,4.1,0.4,5c0,0.1,0,0.1,0,0.1c0,0.7-0.3,0.8-0.7,0.8
				c-0.4,0-1.6,0.1-2.5,0.1c-0.9,0-2.6,0-3.6,0c-1,0-1-0.8-1.1-1.5c-0.1-0.5-0.2-1-0.3-2.3c0-0.6-0.1-1.2-0.1-2.1
				c-0.1-2.9-0.4-9.1-0.3-11.4c0-2.5,0.1-11.2,0-13.3c-0.1-2.1-0.2-4.1-0.2-6.1c0-1.2,0.5-1.4,1-1.4c0.4,0,0.8,0.1,1,0.1
				c0.6,0,2.1,0,3.2,0.1c1.1,0,1.5,0.3,1.9,1.1c0.3,0.8,1.6,4.3,2.6,7c1,2.6,3.7,10.1,4.7,12.6c0.5,1.3,1.4,3.3,2.1,5.1l1.3,3.2
				l-0.2-3l-0.4-5.1c0-0.5,0-1-0.1-1.6c-0.1-2.2-0.2-4.3-0.2-5.7c-0.1-1.7-0.3-5.5-0.4-7.4l-0.1-5c0-0.6,0.2-0.8,0.5-0.8
				c0.3,0,0.6,0.1,0.8,0.2c0.5,0.2,0.6,0.1,1.3,0.2c0.4,0,0.5,0.2,0.5,0.5c0,0.3,0,0.6,0,1c0,1,0.5,12.2,0.6,14.9c0,0.5,0,0.9,0,1.5
				c0.1,3,0.6,7.3,0.7,9.3c0.1,2.3,0.6,8.1,0.6,9c0,0.1,0,0.1,0,0.1c0,0.9-0.3,1-0.7,0.9c-0.1-0.1-0.3-0.1-0.4-0.1
				c-0.4,0-1,0.1-1.3,0c-0.4-0.1-0.4-0.1-0.9-1.1c-0.3-0.9-2.7-8.1-3.6-10.2c-0.9-2.1-3.8-10.1-4.7-12.6c-0.5-1.2-1.2-3-1.9-4.6
				l-1.2-2.7l0.4,4.9C489.8,261.1,490,264.2,490.1,266z"/>
			<path class="st33" d="M507.3,250c0-0.1,0-0.2,0-0.2c0-0.8,0.2-0.8,0.5-0.8c0.3,0,0.9,0.1,1.3,0.1c1.3,0,3.6-0.1,4.6,0l4.1,0.2
				c1,0,2.5,0.2,3.4,0.2c0.6,0,0.7,0.2,0.7,0.7c0,0.2,0,0.5,0,0.9l0.3,6l0.1,2.6c0,0.2,0,0.3,0,0.4c0,0.5,0,0.7-0.5,0.7
				c-0.6,0-3.1-0.4-3.8-0.4l-4-0.1c-0.6,0-1.1,0-1.6,0l-0.8,0.1c0,0.3,0,0.6,0,0.9l0.1,1.7c0,0.6,0,1,0,1.4l0,0.7l0.8,0
				c0.5,0,1,0,1.5,0l2.7,0.1c1.5,0.1,2.6-0.1,3.5-0.1c0.7,0,0.8,0.3,0.8,0.6c0,0.5,0,0.8-0.1,1.5c0,0.6-0.2,0.6-0.5,0.5
				c-0.3,0-0.9-0.1-1.5-0.1c-0.5,0-2.8-0.2-3.5-0.2l-2-0.1c-0.4,0-0.9,0-1.5,0l0.2,5c0.1,2.6,0.2,5.3,0.2,6c0,0.7,0,1.7,0.1,2.6
				c0.1,1.3,0.2,2.6,0.2,3c0,0.8-0.3,0.8-0.8,0.7l-2.6-0.1c-0.6-0.1-0.5-0.7-0.6-1.8c-0.1-0.4-0.1-1.3-0.2-2.4
				c-0.1-1.4-0.1-3.2-0.2-4.3c-0.1-2-0.2-7.6-0.3-8.7c-0.1-1.1-0.3-2.3-0.4-4.6c-0.1-2.1,0-3.1-0.1-4.5l-0.2-4.6
				C507.2,252.7,507.3,250.9,507.3,250z"/>
			<path class="st33" d="M532,249.4c1,0,4.4,0.3,6.5,0.4c0.6,0,1.1,0,1.5,0c1.3,0,1.6,0.9,1.6,1.3c0,0.5,0,1.8,0.1,3.9
				c0.1,1.5,0.2,3.1,0.3,3.9c0,0.9-0.4,1.4-1.2,1.3l-6.6-0.2l0.2,5.3c0,0.9,0.1,2.5,0.2,4.4c0.3,5.7,0.8,14.3,0.8,15
				c0,0.1,0,0.2,0,0.3c0,0.8-0.2,0.7-0.5,0.7l-2.5-0.1c-0.7,0-0.6-0.3-0.7-1.8c-0.1-1.4-0.3-14.5-0.5-17.1c-0.1-2.1-0.4-5.4-0.4-6.8
				c-2.6-0.1-6.1-0.1-6.6-0.1c-0.7,0-0.9-0.7-0.8-1.2c0-0.5-0.1-4.5-0.2-6.8c0-0.7-0.1-1.2-0.1-1.5c0-0.1,0-0.3,0-0.4
				c0-0.8,0.3-0.8,0.6-0.8l3.7,0.1C528.2,249.4,530.6,249.3,532,249.4z"/>
		</g>
	</g>
	<g>
		
			<linearGradient id="SVGID_00000063595168667692113370000002820747496387752610_" gradientUnits="userSpaceOnUse" x1="57.9595" y1="297.2701" x2="54.0225" y2="190.9711" gradientTransform="matrix(0.9993 3.640000e-02 -3.640000e-02 0.9993 6.8953 -17.2259)">
			<stop  offset="0" style="stop-color:#A7B238"/>
			<stop  offset="1" style="stop-color:#DBE247"/>
		</linearGradient>
		<path style="fill:url(#SVGID_00000063595168667692113370000002820747496387752610_);" d="M99,252.5c36.4-50.8-47.6-92.9-81.5-59.6
			c-33.9,33.3-10.5,70.9,3.1,80c11.1,7.5,39.4,13.3,63.5-4.9c8.7,8.6,18.4,21.3,19.4,21.7c1.5,0.7-3.5-12.4-7.7-33.2
			C96.9,255.2,98,253.9,99,252.5z"/>
		<g>
			<path class="st35" d="M70.6,235.1c0.2,0.6,0.4,1.1,0.5,1.6c2.7,9.1-2.6,14.8-10.3,18.5c0.1,0.5,0.3,1,0.7,1.4l0.4,1.2
				c-0.2,0.1-0.3,0.2-0.2,0.2c-0.1,0.1-0.1,0.1,0,0.1c-0.2,0.1-0.4,0.3-0.6,0.4l-2,0.6c-0.8,0.2-1.3,0.2-1.7,0
				c-0.3,0.1-0.6-0.1-1-0.3c-0.1-0.1-0.2-0.4-0.3-0.7c-0.1-0.4-0.2-0.7-0.3-1.3l-0.1-0.2c-3.8,1.1-7.6,0.8-11.4-0.9
				c-2.5-0.9-3.9-1.6-4.3-2.8c-0.2-0.7,0-1.6,0.5-2.9c0.1-0.2,0.2-0.5,0.5-0.6c0.2-0.1,0.5-0.1,1,0.2c3.1,1.9,8.1,2.9,12.5,1.8
				l-1.3-4.6c-0.7-2.3-1.1-4.5-1.8-6.9l-2.2-7.5c-3.2-0.9-6-1.5-7.9-2.1c-5.3-1.7-8.9-5.3-10.1-9.5c-1.1-3.7-0.5-7.9,1.9-12.1
				c1.7-2.1,4.1-4.2,6.5-5.5l-0.3-0.9c-0.3-0.9-0.4-1.4-0.9-2.1c-0.2-0.7-0.1-1,0.4-1.2c0.8-0.2,1.4-0.4,1.9-0.9l1-0.3
				c0.9-0.3,1.6,0.1,1.9,1l0.7,2.5c4.8-0.8,10-0.2,14.8,2.4c0.7,0.4,1.1,1,1.3,1.7c0.1,0.5,0.2,1,0.2,1.6c0.3,1.2-0.4,2.5-1.6,2.7
				c-2.1,0-6.5-5.3-13.3-3.9c0.5,1.7,1.2,4.1,2.1,6.3c0.7,2.5,1.5,5.2,2.6,7.6l0.6,1.9C59.4,223.2,66.8,225.7,70.6,235.1z
				 M38.3,215.4c0.9,3.1,3.9,4.8,6.9,5.4l-1.2-4c-0.6-2-1.3-3.6-1.6-4.7l-1.3-4.3C38.8,209.7,37.4,212.3,38.3,215.4z M62,245.7
				c0.5-1.6,0.6-2.9,0.2-4.1c-0.9-3-4-5.1-7.5-6.8l1.9,6.4c0.7,2.1,1.3,3.9,1.9,5.8l0.8,2.6C60.6,248.6,61.2,247.5,62,245.7z"/>
		</g>
	</g>
	<g>
		
			<linearGradient id="SVGID_00000152229134832288619120000007210679855986842528_" gradientUnits="userSpaceOnUse" x1="68.4199" y1="540.0012" x2="164.9093" y2="540.0012" gradientTransform="matrix(0.9993 3.640000e-02 -3.640000e-02 0.9993 6.8953 -17.2259)">
			<stop  offset="0" style="stop-color:#56BBE8"/>
			<stop  offset="1" style="stop-color:#8DE1FF"/>
		</linearGradient>
		<path style="fill:url(#SVGID_00000152229134832288619120000007210679855986842528_);" d="M135.9,497.2c1.3-3.4,4.6-10.7,3.3-10.7
			c-1.2,0-8,3.7-14.7,5.3c-4.3-1.4-9.1-2.3-14.2-2.6c-29.8-1.7-56.6,17.1-54.7,41.7c1.7,22.5,24.9,38.3,50.4,37.1
			c23.8-1.2,43.7-17.1,45.9-37.1C153.3,517.3,147.4,504.9,135.9,497.2z"/>
		<polygon class="st35" points="97.4,506.1 108.3,516.3 122.9,513.2 116.5,526.7 124,539.6 109.2,537.7 99.2,548.8 96.5,534.1 
			82.8,528.1 95.9,520.9 		"/>
	</g>
	<g>
		
			<linearGradient id="SVGID_00000039128221839499563590000009001339591300549289_" gradientUnits="userSpaceOnUse" x1="510.1874" y1="621.9352" x2="549.9685" y2="436.5043" gradientTransform="matrix(0.952 0.3061 -0.3061 0.952 137.4801 -143.3204)">
			<stop  offset="0" style="stop-color:#FFC145"/>
			<stop  offset="1" style="stop-color:#FFDB80"/>
		</linearGradient>
		<path style="fill:url(#SVGID_00000039128221839499563590000009001339591300549289_);" d="M430.5,488.7
			c-10.2,31.9,7.2,65.7,39,75.9c32.2,10.4,67.5-7,78.6-39.3c11.2-32.6-6.6-67.5-39.7-77.5C475.7,438,440.9,456.4,430.5,488.7z"/>
		<path class="st38" d="M460.2,537.5c24.7-19,59.3-32.7,91.2-35.4c-1.1-19.7-11.9-37.9-29.2-48.2c-5.7,14.4-16.2,28.3-30.7,39.5
			c-20.2,15.6-43.7,22.1-63.7,19.7c1.4,14.2,7.8,27.4,18,37.3C450.1,545.9,454.9,541.6,460.2,537.5z"/>
		<path class="st39" d="M507.9,449.5c-32.3-9.7-66.6,8.5-76.8,40.2c-10.1,31.4,7.1,64.7,38.5,74.8c31.7,10.2,66.5-6.9,77.4-38.7
			C558.1,493.8,540.5,459.4,507.9,449.5z M544,526.3c-11.2,30.9-44.8,47.3-74.9,37.1c-29.8-10.1-45.3-42.8-35-73.3
			c10.5-30.9,43.7-48.3,74.3-38.6C539.4,461.4,555.4,495.1,544,526.3z"/>
		<path class="st40" d="M508.4,447.9c-32.7-9.9-67.5,8.6-77.9,40.8c-10.2,31.9,7.2,65.7,39,75.9c32.2,10.4,67.5-7,78.6-39.3
			C559.4,492.7,541.5,457.8,508.4,447.9z M546.4,524.8c-10.7,31.2-44.9,48-76.2,37.9c-30.9-9.9-47.8-42.7-37.9-73.5
			c10-31.2,43.7-49,75.5-39.4C539.9,459.4,557.3,493.2,546.4,524.8z"/>
		<path class="st41" d="M507.7,536.4c5.3-15.4-9-26.2-10.9-27.7c2.4,0,4.6-0.4,6.9-1.3c3.8-1.7,8.2-5,10.9-12.6
			c3.3-9.6,0.7-15.4-4.4-19.3l2.2-6.4c0.3-0.8-0.2-1.7-1-2l-5.6-1.8c-0.9-0.3-1.8,0.2-2.1,1l-1.7,5c-0.6-0.2-1.2-0.4-1.8-0.6
			c-1.3-0.4-2.7-0.8-4.1-1.1l1.8-5c0.3-0.9-0.2-1.8-1.1-2.1l-5-1.6c-0.9-0.3-1.9,0.2-2.2,1l-2.1,6c-0.3,0-0.5-0.1-0.6-0.1
			c-0.9-0.1-1.3,0.1-1.4,0.5c0,0.1-0.1,0.3-0.1,0.5c-0.1,0.5-0.7,2.7-1.4,4.8c-0.3,0.9-0.7,1.9-1.1,2.6c-1.3,2.6-6.5,17.2-8.7,22.5
			c-1.4,2.9-2,4.7-2.7,6.6c-0.5,1.5-1,2.8-1.7,4.7l-7.9,21.8c-0.7,1.9-0.9,3.7,1.1,4.6l-2.2,6.2c-0.3,0.9,0.2,1.9,1.1,2.2l5.2,1.8
			c0.9,0.3,2-0.2,2.3-1.1l2.3-6.3c2.1,0.7,4.3,1.4,6,1.9l-2.3,6.6c-0.3,0.9,0.2,1.8,1,2.1l5.8,2c0.9,0.3,1.8-0.2,2.1-1l2.4-6.9
			C493.8,545.7,504.4,546.3,507.7,536.4z M487.6,500.1l3.9-11c0.9-2.7,2.5-6.8,3.8-10.2l2.3-6c9,2.9,18,6.6,12.9,21.4
			c-5.1,14.9-22.9,9.9-23.7,9.6c-0.7-0.2-0.6-0.4-0.4-1.1C486.7,502.2,487.1,501.7,487.6,500.1z M477.4,538.9
			c-1.9-0.7-3.2-0.6-2.5-2.6c0.6-1.8,2.4-8.2,3.3-10.5c0.8-2.4,1.1-2.6,1.8-4.5c0.6-1.8,2.9-9.5,3.7-11.7c0.4-1.1,0.6-1.8,0.9-2.2
			c0.1-0.3,0.2-0.5,0.4-0.7c4.3,1.3,8,3.2,10.9,5.6c4.9,4.3,9.1,11.1,5.4,21.9C499,540.9,491.1,543.6,477.4,538.9z"/>
		<path class="st39" d="M505.8,456c-28.7-8.6-59.1,7.5-68.2,35.7c-9,27.9,6.3,57.5,34.2,66.5c28.2,9.1,59.1-6.2,68.8-34.4
			C550.4,495.3,534.8,464.7,505.8,456z M539.2,524.3c-10.1,27.6-40.6,42.2-68.1,32.9c-27.2-9.2-41.6-38.6-32.3-65.9
			c9.4-27.7,39.6-43.1,67.6-34.2C534.6,466,549.4,496.3,539.2,524.3z"/>
	</g>
	
		<linearGradient id="SVGID_00000064346637756643998940000018050121509342618538_" gradientUnits="userSpaceOnUse" x1="134.4675" y1="99.4103" x2="308.3683" y2="49.7243">
		<stop  offset="0" style="stop-color:#FFC145"/>
		<stop  offset="1" style="stop-color:#FFDB80"/>
	</linearGradient>
	<path style="fill:url(#SVGID_00000064346637756643998940000018050121509342618538_);" d="M256.1,73.2c0-6.9-5.6-12.4-12.4-12.4
		s-12.4,5.6-12.4,12.4c0,5.7,3.8,10.4,9,11.9l0,43.3c0,3.1-2.5,5.7-5.7,5.7h-11.2c-1.6-6.7-7.6-11.7-14.8-11.7h-4.1v-17.8
		c0-3.1,2.5-5.7,5.7-5.7c7,0,12.8-5.7,12.8-12.8l0-46.1c5.1-1.6,8.8-6.3,8.8-11.9c0-6.9-5.6-12.4-12.4-12.4
		c-6.9,0-12.4,5.6-12.4,12.4c0,5.7,3.8,10.4,9,11.9v7h-13.8c-3.1,0-5.7-2.5-5.7-5.7l0-17.1c5.1-1.6,8.8-6.3,8.8-11.9
		C205,5.6,199.5,0,192.6,0c-6.9,0-12.4,5.6-12.4,12.4c0,5.7,3.8,10.4,9,11.9l0,17c0,7,5.7,12.8,12.8,12.8h13.8l0,31.9
		c0,3.1-2.5,5.7-5.7,5.7c-7,0-12.8,5.7-12.8,12.8v17.8h-10.1c-4.5,0-8.1-3.6-8.1-8.1l0-39c4.9-1.7,8.5-6.3,8.5-11.8
		c0-6.9-5.6-12.4-12.4-12.4c-6.9,0-12.4,5.6-12.4,12.4c0,5.8,3.9,10.6,9.3,12v38.7c0,8.4,6.8,15.2,15.2,15.2h21.3
		c4.5,0,8.1,3.6,8.1,8.1v16.9c0,2,1.6,3.5,3.6,3.5c2,0,3.5-1.6,3.5-3.5l0-13.4h10.8c7,0,12.8-5.7,12.8-12.8l0-43.3
		C252.4,83.5,256.1,78.8,256.1,73.2z"/>
</g>
</svg>
