<?xml version="1.0" encoding="utf-8"?>
<!-- Generator: Adobe Illustrator 26.5.0, SVG Export Plug-In . SVG Version: 6.00 Build 0)  -->
<svg version="1.1" id="Layer_1" xmlns="http://www.w3.org/2000/svg" xmlns:xlink="http://www.w3.org/1999/xlink" x="0px" y="0px"
	 viewBox="0 0 607.9 539.1" style="enable-background:new 0 0 607.9 539.1;" xml:space="preserve">
<style type="text/css">
	.st0{fill:#FC731A;}
	.st1{fill:#E64B0E;}
	.st2{fill:#FFDD6A;}
	.st3{fill:#FFB93B;}
	.st4{fill:#FFCE58;}
	.st5{opacity:0.62;fill:#FFFFFF;}
	.st6{fill:#FF8829;}
	.st7{fill:#F86818;}
	.st8{fill:#F35E15;}
	.st9{fill:#ED5411;}
	.st10{fill:#E94A0E;}
	.st11{fill:#E43F0C;}
	.st12{fill:#CA3208;}
	.st13{fill:#483848;}
	.st14{fill:#372A38;}
	.st15{fill:#755D73;}
	.st16{fill:#8C6E8A;}
	.st17{opacity:0.4;fill:#E43F0C;}
	.st18{fill:#FF8424;}
	.st19{fill:#008FC3;}
	.st20{fill:#0066A0;}
	.st21{fill:#0090D3;}
	.st22{fill:#FFFFFF;}
	.st23{fill:#FF4683;}
	.st24{fill:#EE2A69;}
	.st25{fill:#F7E4B9;}
	.st26{fill:#F97146;}
	.st27{fill:#462E2A;}
	.st28{fill:#FFA87A;}
	.st29{fill:#FF8C60;}
	.st30{fill:#C93C18;}
	.st31{fill:#BAD834;}
	.st32{fill:#614C61;}
	.st33{opacity:0.25;fill:#FFFFFF;}
	.st34{fill:#9A3F31;}
	.st35{fill:#802D23;}
	.st36{fill:#71281F;}
	.st37{fill:#F2B031;}
	.st38{fill:#FFE8C6;}
	.st39{fill:#E92760;}
	.st40{fill:#C31C53;}
	.st41{fill:#E7CDB5;}
	.st42{fill:#FFC135;}
	.st43{fill:#FFE159;}
	.st44{fill:#FF981E;}
	.st45{fill:#FFDA6A;}
	.st46{fill:#A5144A;}
	.st47{fill:#FFE8AB;}
	.st48{fill:#DBBDA4;}
	.st49{fill:#F9E49F;}
	.st50{fill:#FFF2BE;}
	.st51{fill:#4C1C19;}
	.st52{fill:url(#SVGID_1_);}
	.st53{fill:#FFACC0;}
	.st54{fill:url(#SVGID_00000114044899522240328970000008568227795329326489_);}
	.st55{fill:url(#SVGID_00000154405219167464978260000005728363162966342039_);}
	.st56{fill:url(#SVGID_00000110454844982818071340000000402269615826239412_);}
	.st57{fill:#FFEDD8;}
</style>
<g>
	<g>
		<g>
			
				<ellipse transform="matrix(0.5781 -0.8159 0.8159 0.5781 -60.6353 168.0236)" class="st0" cx="132.2" cy="142.7" rx="54.2" ry="42.3"/>
			<path class="st1" d="M141.3,189.4c6-3.1,12-7.6,17.9-13.5c15.7-15.7,22.5-33.7,20.3-49.7c-5.8,0-11.8,0.4-18,1.4
				c-32.3,5.1-56.4,23-53.7,39.9C109.7,178.8,123,186.9,141.3,189.4z"/>
			
				<ellipse transform="matrix(0.6033 -0.7975 0.7975 0.6033 -60.5418 154.8581)" class="st2" cx="125.4" cy="138.3" rx="54.1" ry="40.7"/>
			
				<ellipse transform="matrix(0.6033 -0.7975 0.7975 0.6033 -60.3414 154.235)" class="st3" cx="124.9" cy="137.8" rx="50.8" ry="38.2"/>
			<path class="st4" d="M156.7,111.3C127.9,127.1,99.4,132,87.9,124c-9.2,16-9.8,32.6-1.4,45.7c8.2-8.3,19.4-16.7,32.5-23.9
				c18.2-10,36.3-15.6,50.1-16.3c0.6-8-1.1-15.6-5.1-22.4C161.6,108.5,159.2,109.9,156.7,111.3z"/>
			<path class="st5" d="M122.5,104.9c-10.1,9.9-4.3,25.1-3.6,27.2c-1.7-1.1-3.6-1.7-5.6-1.9c-3.5-0.3-8.3,0.5-13.7,5.9
				c-6.9,6.9-7.7,13.2-5.6,19l-4.8,4.8c-0.6,0.6-0.7,1.6-0.1,2.3l3.6,4.2c0.5,0.6,1.5,0.7,2.1,0l3.7-3.8c0.4,0.5,0.7,0.9,1.1,1.4
				c0.8,1,1.7,1.9,2.6,2.9l-3.7,3.8c-0.6,0.7-0.7,1.8-0.1,2.5l3.2,3.8c0.6,0.7,1.6,0.7,2.2,0l4.4-4.7c0.2,0.2,0.4,0.3,0.5,0.3
				c0.6,0.4,1,0.4,1.3,0.2c0.1-0.1,0.2-0.2,0.3-0.4c0.3-0.4,1.7-2.2,3.2-3.8c0.7-0.7,1.4-1.4,2-1.9c2.1-1.8,12.2-12.5,16-16.1
				c2.2-1.9,3.4-3.2,4.6-4.5c1-1,1.8-2,3-3.2l13.8-14.5c1.1-1.2,2-2.5,0.9-4.1l3.7-3.9c0.5-0.6,0.6-1.6,0.1-2.2l-2.9-3.6
				c-0.5-0.6-1.4-0.7-1.9-0.1l-3.8,4c-1.2-1.4-2.5-2.9-3.4-4.1l4-4.1c0.5-0.5,0.5-1.5,0.1-2.1l-3.2-4c-0.5-0.6-1.3-0.7-1.8-0.1
				l-4.2,4.2C135.9,103.8,128.8,98.7,122.5,104.9z M122.1,143.4l-7.6,7.8c-1.9,2-4.9,4.9-7.4,7.4l-4.5,4.4
				c-5.6-6.7-10.8-14.1-0.1-24.8c10.3-10.3,21.3,1.6,21.8,2.2c0.4,0.5,0.3,0.6-0.2,1.1C123.6,142.1,123.1,142.3,122.1,143.4z
				 M144.6,116c1.1,1.3,2,1.9,0.7,3.1c-1.1,1.1-4.8,5.5-6.3,7c-1.5,1.6-1.8,1.6-3,2.9c-1.1,1.2-5.9,6.6-7.3,8.1
				c-0.7,0.7-1.2,1.2-1.5,1.5c-0.2,0.2-0.3,0.3-0.6,0.5c-2.6-3-4.5-6.2-5.6-9.5c-1.8-5.7-2-13.1,5-20.1
				C130.4,105.2,136.9,106.5,144.6,116z"/>
		</g>
		<g>
			<g>
				<path class="st0" d="M74.4,399c38-3.6,74.8-3.6,110.1,0.8c2.5,0,4.3,3.1,4.1,6.9l-0.8,13.3c-0.2,3.8-2.4,6.8-4.9,6.8l-109.3-0.3
					c-2.6,0-4.6-3.1-4.5-6.9l0.3-13.6C69.6,402.1,71.8,398.9,74.4,399z"/>
				<path class="st6" d="M104,396.9c2.2,4.6,5.6,9.1,10.1,13.1c12.1,10.8,27.4,13.4,34.2,5.8c4-4.5,4.1-11.7,1-19
					C134.4,396.2,119.3,396.2,104,396.9z"/>
			</g>
			<path class="st7" d="M96.1,421.7c31-2.9,61-2.3,89.3,1.9c2,0,3.4,5.1,3.4,8.1c0,0.7-1.1,12-1.8,12c-0.2,3-25.8,5.4-27.7,5.4
				c-0.5,0-88.2-0.8-88.2-1.4c-2.1,0-3.6-4.6-3.6-7.7c0-0.6,0.6-12,1-12C68.5,425,94,421.7,96.1,421.7z"/>
			<path class="st0" d="M127.2,420c0.6,3.1,1.8,6.6,3.6,9.9c5.3,9.8,13.7,15.6,18.7,12.9c5-2.7,4.9-12.8-0.4-22.6
				C142,419.9,134.7,419.9,127.2,420z"/>
			<path class="st8" d="M117.7,444.5c24.1-2.2,47.3-1,68.5,3c1.5,0,2.6,7,2.6,9.3c0,1.5-1.5,10.6-2.8,10.6
				c-0.1,2.3-49.1,4.1-50.6,4.1c-0.9,0-67.2-1.2-67.2-2.4c-1.5,0-2.7-6.1-2.7-8.4c0-1.2,0.9-10.3,1.8-10.4
				C67.4,448,116.2,444.5,117.7,444.5z"/>
			<path class="st9" d="M139.4,467.3c17.2-1.5,33.5,0.2,47.8,4.1c1,0,1.9,9,1.9,10.5c0,2.2-1.8,9.3-3.8,9.3
				c-0.1,1.5-72.5,2.7-73.5,2.7c-1.4,0-46.2-1.6-46.2-3.4c-1,0-1.8-7.6-1.8-9.1c0-1.8,1.2-8.7,2.6-8.8
				C66.3,471.1,138.3,467.3,139.4,467.3z"/>
			<path class="st10" d="M161,490.3c10.2-0.8,19.8,1.5,27,5.2c0.5,0,1.1,10.9,1.1,11.7c0,2.9-2.2,8-4.8,8c0,0.8-95.9,1.4-96.4,1.4
				c-1.8,0-25.1-2-25.1-4.4c-0.5,0-0.9-9.1-0.9-9.8c0-2.4,1.5-7.1,3.3-7.2C65.2,494.3,160.5,490.3,161,490.3z"/>
			<path class="st11" d="M182.7,513.3l-118.6,4.3c-2.3,0.1-4.1,2.6-4.1,5.5v10.6c0,3,1.8,5.4,4.1,5.4h119.2c3.3,0,5.9-3,5.8-6.6
				l-0.4-12.8C188.8,516,186,513.2,182.7,513.3z"/>
			<path class="st12" d="M62.2,507.9c0.2,2.2,0.4,4.2,0.6,4.2c0,2.4,23.3,4.4,25.1,4.4c0.1,0,3.2,0,8.4-0.1l-32.1,1.2
				c-2.3,0.1-4.1,2.5-4.1,5.5l126.8-8.1c-0.2-0.2-0.5-0.5-0.8-0.6c1.2-1.1,2.2-3,2.7-4.9C168.4,516.2,99.4,518,62.2,507.9z"/>
			<path class="st12" d="M63.1,497.3c19.4-1.8,43.9-2.8,70.5-2.8c19.8,0,38.4,0.6,54.5,1.6c-0.1-0.3-0.1-0.5-0.2-0.5
				c-2.7-1.4-5.7-2.6-8.9-3.5c3.8-0.2,6.1-0.5,6.1-0.8c0.8,0,1.5-1.1,2.1-2.6c-18.5,2.9-41,2.3-65.4,2.3c-20.8,0-40.2,1-57-1.2
				c0.2,0.4,0.4,0.7,0.5,0.7c0,1.1,15.9,2.1,29,2.7c-16.4,0.8-29.3,1.5-29.3,1.8C64.4,495.1,63.7,496,63.1,497.3z"/>
		</g>
		<path class="st13" d="M287.9,151.9l-143.4-9.2c-39.4-1.2-31.9,21.3-30.9,27.1l61.7,359c1,5.8,6.5,10.4,12.3,10.4h188
			c5.8,0,9.6-4.7,8.6-10.4l-84.1-366.4C299.1,156.5,293.6,151.9,287.9,151.9z"/>
		<g>
			<path class="st14" d="M128.5,256.5c12.9-45.7,28.1-84.7,43.2-112.1l-27.3-1.8c-39.4-1.2-31.9,21.3-30.9,27.1L128.5,256.5z"/>
			<path class="st14" d="M384.3,528.7l-84.1-366.4c-1-5.8-6.5-10.4-12.3-10.4l-48.3-3.1c5.7,43.3,0.8,112.3-15.3,188.2
				c-14.1,66.4-33.9,124.5-53.9,163l4.9,28.7c1,5.8,6.5,10.4,12.3,10.4h188C381.4,539.1,385.3,534.4,384.3,528.7z"/>
		</g>
		<path class="st15" d="M312.6,151.9l-168.5-9.2c-5.8,0-9.6,4.7-8.6,10.4l64.6,375.6c1,5.8,6.5,10.4,12.3,10.4h188
			c5.8,0,9.6-4.7,8.6-10.4l-84.1-366.4C323.9,156.5,318.4,151.9,312.6,151.9z"/>
		<path class="st16" d="M287,439.6c13.4-65.6,39.6-120.1,67.7-147.6l-29.8-129.8c-1-5.8-6.5-10.4-12.3-10.4l-19.9-1.1
			c-33.4,71.3-83.7,136.1-126.1,183.5l33.4,194.4c1,5.8,6.5,10.4,12.3,10.4h66.5C277.2,509.5,279.7,475.4,287,439.6z"/>
		<path class="st14" d="M261.4,159.1l-53.8-3.4c-2.4-0.2-4,0.9-3.5,2.3l0,0c0.5,1.4,2.8,2.6,5.1,2.7l52.3,1.5c0.9,0,1.6-0.6,1.6-1.4
			l0,0C263,159.9,262.3,159.1,261.4,159.1z"/>
		<path class="st17" d="M151.2,482c3.4-43.1-20.4-70-58.9-69.6c-8.2,0.1-15.9,1.4-23,3.9l-0.1,3.3c-0.1,2.9,1.1,5.4,2.8,6.4
			c-2.2,0.7-3.6,1.4-3.6,2.2c-0.5,0-1,11.4-1,12c0,3.1,1.5,7.7,3.6,7.7c0,0.1,2.6,0.2,6.8,0.3c-6.1,0.8-10.4,1.6-10.4,2.3
			c-0.9,0-1.8,9.2-1.8,10.4c0,2.3,1.2,8.4,2.7,8.4c0,0.4,8.7,0.9,19.9,1.2c-12.2,0.9-21.9,1.7-21.9,2.3c-1.4,0-2.6,7-2.6,8.8
			c0,1.5,0.8,9.1,1.8,9.1c0,1.1,15.9,2.1,29,2.7c-16.4,0.8-29.3,1.5-29.3,1.8c-1.8,0.1-3.3,4.8-3.3,7.2c0,0.8,0.4,9.8,0.9,9.8
			c0,2.4,23.3,4.4,25.1,4.4c0.1,0,3.2,0,8.4-0.1l-32.1,1.2c-2.3,0.1-4.1,2.6-4.1,5.5v10.6c0,3,1.8,5.4,4.1,5.4H123
			C138.9,526.9,149.2,507.1,151.2,482z"/>
		
			<ellipse transform="matrix(0.5525 -0.8335 0.8335 0.5525 -362.5211 269.0855)" class="st18" cx="69.3" cy="472.2" rx="70.5" ry="58"/>
		<path class="st1" d="M129.9,475.3c-5-15.3-13.4-25.3-22.8-25.3c-15.3,0-27.7,26.1-27.7,58.3c0,9.6,1.1,18.7,3.1,26.7
			C106.2,526.4,124,505.1,129.9,475.3z"/>
		<polygon class="st13" points="323.1,172.5 146.4,163.3 206.4,516.5 401.3,515.1 		"/>
		<polygon class="st19" points="320.2,174.5 149.1,165.2 208.8,513.4 398.1,513.4 		"/>
		<polygon class="st20" points="318.8,179.5 151,170.5 209.5,512.1 395.3,512.1 		"/>
		<path class="st21" d="M371.9,410.2c-17.6,17.1-29.8,54.7-29.8,98.4c0,1.1,0,2.3,0,3.4h53.1L371.9,410.2z"/>
		<path class="st21" d="M242.2,230.7c-15.2,43.1-37.2,80.2-62.4,108.1l29.7,173.3h5.8c3-13.8,7-27.8,11.9-41.8
			c26.6-75.5,74.4-132.6,123-154.2l-31.4-136.5l-62.1-3.4C253.5,194,248.7,212.3,242.2,230.7z"/>
		
			<ellipse transform="matrix(0.5525 -0.8335 0.8335 0.5525 -360.7598 260.705)" class="st3" cx="62.4" cy="466.3" rx="70.5" ry="58"/>
		<path class="st4" d="M60.4,474c0,22.6-3.3,43.2-8.7,59.3c9.4,0,18.2-1.8,26.3-5.1c-1.7-9.4-2.6-19.9-2.6-31.1
			c0-35.2,8.8-70.8,22.5-93c-7-3.1-15.1-4.8-24.3-4.8c-9.3,0-18,1.7-26.1,4.8C55.4,421.1,60.4,446.1,60.4,474z"/>
		<path class="st2" d="M73.5,399.4c-36.5,0-65.4,25.9-72.2,67c-6.8,41.1,13.5,67,50,67c36.5,0,65.4-25.9,72.2-67
			C130.3,425.3,110,399.4,73.5,399.4z M121.6,467.1c-6.5,39.5-34.3,64.4-69.4,64.4C17,531.5-2.5,506.5,4,467.1
			c6.5-39.5,34.3-64.4,69.4-64.4S128.1,427.6,121.6,467.1z"/>
		<polygon class="st22" points="353,373.9 311.6,193.6 166.3,185.8 198.5,373.9 		"/>
		<g>
			<path class="st23" d="M203.4,369.1c0,0,8.7-36.1,18.2-45.6l75.1,0.7c0,0,18.6,2.2,23,4c4.4,1.8,24.4,40.1,24.4,40.1L203.4,369.1z
				"/>
			<path class="st24" d="M207.8,353.5l71.2-29.5l-57.4-0.6C216.3,328.8,211.2,342.5,207.8,353.5z"/>
			<path class="st25" d="M296.7,324.2l-60.5-0.6l55.2,26.1l15.6-24.2C301.6,324.8,296.7,324.2,296.7,324.2z"/>
			<polygon class="st26" points="232.6,259.4 241.3,323.9 289,346.5 302.9,325 296,322.4 283.2,270.7 			"/>
			<path class="st3" d="M220.2,245.5c-0.7-25.1,27.3-38.3,44.1-18.2L220.2,245.5z"/>
			<path class="st23" d="M298.9,216.4c-8-2.2-54.2,13-73.2,26.9c17.4-6.2,48.1-7.2,52.1-2.5C289.8,234.6,306.9,218.5,298.9,216.4z"
				/>
			<path class="st27" d="M305.3,231.8c0,0-20.4-3.5-56.9,7.9l30.2,5.3l24.2-6.8l-20.4-0.4L305.3,231.8z"/>
			<polygon class="st27" points="225.6,241.1 247.1,307.5 289,317.7 303.6,297.3 275.2,235.3 			"/>
			<path class="st27" d="M238.4,279.8c0,0-2.2,5.5-2.2,4.4S215.1,263,215.1,263l4.4-0.4l-12.8-24.1l13.5,4l5.5-1.5L238.4,279.8z"/>
			<path class="st28" d="M230.9,243.2c0,0,9.5,27.9,10.2,27.7c0.7-0.2,22.8-5.6,22.8-5.6s23.6,3.9,23.6,3.2
				c0-0.7-13.4-31.1-13.4-31.1L230.9,243.2z"/>
			<path class="st29" d="M262.9,245.4c0,0,15.3,23.6,14.3,25c-1,1.5-17.5-3.2-18-4.4c-0.5-1.2-1-4.4,0-4.4s3.2-0.2,3.2-0.2
				L262.9,245.4z"/>
			<path class="st27" d="M253,254.2c-0.3-2.3-2.1-3.9-3.9-3.7c-1.9,0.3-3.1,2.3-2.8,4.6c0.3,2.3,2.1,3.9,3.9,3.7
				C252,258.5,253.3,256.5,253,254.2z"/>
			<path class="st27" d="M274.9,250.9c-0.6-2.2-2.4-3.7-4-3.2c-1.6,0.5-2.4,2.6-1.7,4.9c0.6,2.2,2.4,3.7,4,3.2
				C274.7,255.3,275.5,253.2,274.9,250.9z"/>
			<path class="st27" d="M274.8,240.8l-14.8,3.4l0.2,4.4l-2.9-4.9c0,0-9,3.4-21.4,1l0.5,9.2c22.8,4.9,42.8-4.6,42.8-4.6L274.8,240.8
				z"/>
			<path class="st25" d="M262.8,278.9l0.7,5.3c0,0-7.7,2.6-8.9,2.2c-1.3-0.4-0.4-7.7-0.4-7.7L262.8,278.9z"/>
			<path class="st25" d="M268.3,277.9c0,0,0.2,3.3,1.3,3.6s6.2-0.2,6.2-1.3c0-1.1-1.5-3.8-1.5-3.8L268.3,277.9z"/>
			<path class="st25" d="M282.3,274.5c0,0,3.3,5.5,2,6.4c-1.3,0.9-6.2,1.3-6.9,1.1c-0.7-0.2-2-5.1-2-5.1L282.3,274.5z"/>
			<path class="st26" d="M235.5,264.1c0,0-25.1-5.8-24.8-13.5c0.4-7.7,20.4-0.7,20.4-0.7L235.5,264.1z"/>
			<path class="st26" d="M283.4,274c-0.1-0.7-0.9-1.2-1.6-0.9c-4.1,1.4-17.5,5.4-31,4.2l-0.2,1.5c12.5,2.9,28-1.9,32-3.3
				C283.1,275.2,283.5,274.6,283.4,274L283.4,274z"/>
			<polygon class="st28" points="289,346.5 302.9,325 296,322.4 294.8,317.7 260.7,333.1 			"/>
			<path class="st30" d="M230.4,260.1c0,0-13-3-12.8-7c0.2-4,10.5-0.4,10.5-0.4L230.4,260.1z"/>
		</g>
		<g>
			<g>
				<path class="st21" d="M231.3,417.3c0.2,0.9,0.8,4.4,1,5.5c0.1,0.4,0.2,1,0.3,1.6c0.2,1.2,0.5,2.6,0.6,2.8c0,0,0,0.1,0,0.1
					c0.1,0.3,0,0.5-0.3,0.4c-0.2-0.1-0.7,0-0.9-0.1c-0.1,0-0.1-0.1-0.2-0.2c0-0.1,0-0.3-0.1-0.5c-0.1-0.6-1.5-7-1.8-8.5
					c-0.3-1.5-0.9-5.1-1-6.1c-0.1-1-0.5-3.2-0.6-3.8c0,0,0-0.1,0-0.1c-0.1-0.5,0.1-0.4,0.3-0.4c0.1,0,0.1,0,0.2,0c0.2,0,0.4,0,0.7,0
					c0.3,0,0.6,0.3,0.7,0.8c0.3,1,0.9,2.2,1.5,3.3c0.6,1.1,3.8,6.6,4.5,7.8c0.4,0.6,1,1.8,1.5,2.8l1,1.9l0.2-0.6l0.5-1.5
					c0.3-1.2,1.7-5.2,2.1-6.7c0.4-1.6,1-3.7,1.2-4.6c0.1-0.9,0.4-3.2,0.8-3.2c0.2,0,0.3,0.3,0.4,0.6c0.1,0.6,0.2,1.5,0.3,2.3
					c0.2,1.5,0.7,4,1,5.4c0.3,1.3,1,5.2,1.1,6.3l0.9,4.5c0,0,0,0.1,0,0.1c0,0.2-0.1,0.3-0.3,0.3c-0.2,0-0.8,0-1,0
					c-0.1,0-0.2-0.1-0.2-0.2c0-0.1,0-0.3-0.1-0.5c-0.1-0.5-1.1-6.1-1.3-7.5c-0.1-0.7-0.3-1.8-0.5-2.8c-0.1-0.6-0.2-1.2-0.4-1.8
					c-0.2,0.4-0.3,0.9-0.4,1.3c-0.3,0.7-0.5,1.5-0.7,2.1c-0.3,1-1.2,4.2-1.5,5.1c-0.4,0.9-1.2,3.9-1.4,4.3c-0.1,0.4-0.4,0.9-0.6,0.9
					c-0.3,0-0.3-0.2-0.6-0.6c-0.2-0.4-1.8-3.2-2.3-4.1c-0.5-0.8-2.3-3.7-2.7-4.7c-0.3-0.5-0.9-1.6-1.4-2.6c-0.3-0.6-0.7-1.2-1-1.9
					l0.1,1C231,416.1,231.2,416.9,231.3,417.3z"/>
				<path class="st21" d="M251.6,407.6c0.1-0.3,0.2-0.3,0.4-0.2c0.2,0.1,0.3,0.4,0.5,0.8c0.2,0.4,1.6,2.5,2.1,3.3
					c0.6,0.9,1.2,1.9,1.8,3c0.6,1.1,2.6,4,3.4,5.3c0.8,1.3,2.8,4,3.3,4.7c0.5,0.7,1.3,2.1,1.8,2.5c0.1,0.2,0.2,0.3,0.2,0.4
					c0,0.2-0.2,0.2-0.5,0.2h-2c-0.2,0-0.5-0.5-0.7-0.9c-0.3-0.4-1.4-2.4-1.7-2.9c-0.2-0.4-0.7-1.1-1-1.6c-0.2-0.5-0.4-0.6-0.6-0.6
					c-0.2,0-0.6,0.1-1.1,0.1c-0.4,0.1-2.2,0-3,0.1c-0.2,0-0.6,0-0.9,0c-0.7,0-1.3,0-1.5,0c-0.2,0-0.2,0.3-0.2,0.6
					c0,0.3-0.1,2-0.1,2.6l-0.1,1.2l-0.1,0.8c0,0.4-0.1,0.5-0.3,0.5h-1.6c-0.1,0-0.1,0-0.2-0.1c0-0.1,0-0.2,0-0.4
					c0.1-0.3,0.1-0.3,0.2-1.1c0.1-0.8,0.3-3.3,0.3-4.5c0-1.3,0.2-2.7,0.3-3.6c0-0.9,0.1-1.4,0.2-2.7c0.1-1.3,0.2-2.7,0.3-3.7
					l0.3-2.2C251.4,408.5,251.5,407.9,251.6,407.6z M256.4,417.7c0-0.1,0-0.1-0.1-0.2c-0.3-0.3-1.5-2.3-2-3.2
					c-0.5-0.9-0.9-1.6-1-1.7c-0.3-0.4-0.3-0.6-0.5-0.6c-0.1,0-0.1,0.5-0.1,1.1c0,0.4-0.2,1.9-0.2,2.5c0,0.6-0.2,1.4-0.2,1.8
					c0,0.2,0,0.3,0,0.4c0,0.1,0.1,0.2,0.3,0.2c0.3,0,2.8-0.1,3.3-0.1C256.2,417.8,256.5,417.9,256.4,417.7z"/>
				<path class="st21" d="M267.7,427.6c-0.1,0-0.3,0-0.3,0c-0.1,0-0.2-0.1-0.2-0.2c0-0.1,0-0.3,0-0.4c0-0.3-0.4-1.2-0.5-1.8
					c-0.1-0.6-1.4-8-1.5-8.7c0-0.5-0.3-1.8-0.5-2.8c-0.1-0.6-0.2-1.1-0.3-1.3c-0.1-0.2-0.2-0.7-0.3-1.2c-0.2-1.1-0.4-2.4-0.4-2.7
					c0-0.2,0.1-0.3,0.3-0.3c0.2,0,0.4,0.1,0.6,0.1c0.6,0,1.4,0.1,2.1,0c0.1,0,0.1,0,0.2,0c0.4,0,0.4,0.3,0.5,0.6
					c0.1,0.3,0.1,0.9,0.3,1.6c0,0.2,0.1,0.6,0.2,1.1c0.3,1.3,0.6,3.3,0.7,4.2c0,0.3,0.1,0.6,0.1,1c0.1,0.3,0.2,0.6,0.2,0.9l0.2,0.9
					l0.4-0.5c0.2-0.3,0.4-0.6,0.6-0.8c0.4-0.4,1.8-2.3,2.1-2.8c0.2-0.4,1.4-2.1,2-2.8c0.6-0.8,1.9-2.6,2-2.9
					c0.2-0.3,0.3-0.4,0.5-0.5c0.2,0,0.5,0,0.8,0c0.1,0,0.2,0.1,0.2,0.2c0,0.1,0,0.2-0.1,0.3c-0.1,0.1-1,1.4-1.4,1.7
					c-0.3,0.4-2.3,3.5-2.5,3.9c-0.2,0.2-0.8,1.1-1.4,1.9l-1.2,1.6c0.4,0.4,0.8,0.8,1.2,1.1c0.7,0.6,1.4,1.3,1.8,1.6
					c0.8,0.7,3.9,3.8,4.5,4.2c0.6,0.4,2.2,2.1,2.5,2.4c0.1,0.1,0.1,0.1,0.1,0.2c0,0.1-0.2,0.2-0.4,0.2c-0.4,0-3.1,0.1-3.6,0.1
					c-0.5,0-0.8-0.1-1.2-0.5c-0.4-0.3-2.9-3-3.6-3.6c-0.4-0.3-1.1-1-1.8-1.6l-1.2-1.1c0.1,0.4,0.2,0.8,0.2,1.2
					c0.1,0.6,0.2,1.4,0.3,1.8c0.1,0.4,0.2,1.2,0.4,1.9c0.1,0.6,0.3,1.1,0.3,1.3c0,0.1,0.1,0.1,0.1,0.2c0.1,0.3-0.1,0.3-0.3,0.3h-1.1
					C269.1,427.6,268.3,427.6,267.7,427.6z"/>
				<path class="st21" d="M282.6,416.9c-0.4-2.1-0.6-2.3-0.9-4c-0.3-1.7-0.6-3.3-0.7-4.1c-0.1-0.5,0.1-0.6,0.4-0.6
					c0.1,0,0.3,0,0.4,0c0.4,0,0.9,0.1,2.2,0.1c1.2,0,3-0.3,4.1-0.3c1.1,0,2.6,0.1,3.1,0.1c0.5,0,0.6,0.3,0.7,0.8
					c0.1,0.6,0.4,1.3,0.5,2.1c0,0.3,0.1,0.6,0.1,1c0,0.3-0.1,0.4-0.3,0.4c-0.2,0-0.5-0.1-0.6-0.1c-0.4-0.1-1.3-0.1-2.4-0.1
					c-0.7,0-1.4-0.1-2.1-0.1c-0.2,0-0.5,0-0.7,0c-0.4,0-0.9,0.1-1.5,0.1c-0.7,0-1.3,0-1.5,0c-0.3,0-0.3,0.1-0.2,0.6
					c0.1,0.4,0.3,1.7,0.4,2.7l0.3,1.6c0.1,0.3,0.1,0.6,0.2,0.9c0.2,0,0.5,0,0.8,0c0.5,0,1.2,0,2,0c1,0,2.3-0.1,2.9-0.1
					c0.7,0,1.1,0.1,1.4,0.1s0.4,0.1,0.4,0.3c0,0.2,0,0.3,0.1,0.9c0.1,0.5,0.2,0.8,0.3,1.5c0.1,0.4,0,0.4-0.2,0.4
					c-0.1,0-0.3-0.1-0.5-0.1c-0.4,0-1-0.1-2.8-0.1c-1.8,0-2.9,0.2-3.2,0.2c-0.2,0-0.3,0-0.4,0c-0.1,0-0.1,0-0.2,0l0.6,2.8
					c0.1,0,0.2,0,0.3,0c0.2,0,0.5,0,0.8,0c0.6,0,2,0,3.3,0c0.9,0,2.4,0.1,3.5,0.1c0.5,0,0.9,0,1.2,0c0.5,0,0.6,0.3,0.7,0.6
					c0,0.2,0.1,0.4,0.1,0.6c0.1,0.6,0.2,1.1,0.4,2c0.2,0.8-0.3,0.6-1.2,0.6c-0.9,0-3.6-0.1-4.9-0.1c-1.3,0-4,0.1-4.4,0.1
					c-0.1,0-0.1,0-0.2,0c-0.3,0-0.3-0.2-0.3-0.5c-0.1-0.3-0.2-0.7-0.2-1c-0.1-0.3-0.2-0.6-0.3-1.2l-0.8-3.8
					C282.9,419.5,283,419,282.6,416.9z"/>
				<path class="st21" d="M311.5,408.1c-0.2-0.8,0.7-0.8,1.3-0.8c0.6,0,2.3-0.1,3-0.2c0.8-0.1,0.9,0.4,0.9,1.3c0,0.4,0.5,2.9,1,5.6
					c0.5,2.6,1.1,5.4,1.3,6.3c0.5,2.4,1.8,8.2,1.6,7c0.1,0.3-0.1,0.4-0.4,0.4c-0.1,0-0.2,0-0.3,0c-0.1,0-0.3,0-0.5,0
					c-0.6,0-1.5,0.1-2.1,0.1c-0.8,0-1.1-0.3-1.5-1c-0.5-0.8-1.6-2.5-2.7-3.9c-0.6-0.7-1.6-2.1-2.5-3.4l-1.7-2.3l0.2,1.1
					c0.1,0.6,0.2,1.3,0.4,2c0.2,1.3,1.2,5.9,1.5,6.6c0.1,0.1,0.1,0.3,0.1,0.3c0.1,0.4-0.1,0.4-0.5,0.4c-0.4,0-1.5,0.1-2.1,0.2
					c-0.6,0.1-0.7-0.1-0.8-1c-0.2-0.9-1.1-4.8-1.8-8.1c-0.5-2.4-0.9-5.5-1.4-7.5c-0.2-0.8-0.3-1.5-0.5-1.9c-0.1-0.3-0.1-0.4-0.2-0.6
					c-0.2-0.8,0.2-0.9,0.6-0.9c0.5,0,0.8,0,1.6-0.2c0.3-0.1,0.5-0.1,0.6-0.1c0.3,0,0.5,0.1,1.3,0.1c1.2,0,2.1,1.5,2.8,2.4
					c0.3,0.5,0.7,0.9,1.1,1.3l0.5,0.6l-0.3-1.5C311.8,409.5,311.6,408.5,311.5,408.1z"/>
				<path class="st21" d="M323.3,418.9c0.1,0.6,0.3,0.9,0.4,1.6l0.7,3.3c0.1,0.5,0.2,1,0.2,1.4c0,0.3,0.1,0.5,0.1,0.7
					c0.4,0,0.7,0,1.1,0c0.6,0,1.3,0,1.8,0c1,0,2,0.1,3,0.1c1,0,1.9-0.1,2.7-0.1c0.8,0,1.5,0.1,1.8,0.1c0.3,0,0.3,0.1,0.4,0.4
					c0,0.3,0.1,0.6,0.1,0.9c0,0.3-0.1,0.3-0.5,0.3c-0.1,0-0.3,0-0.5,0c-0.5-0.1-1.8-0.1-3.1-0.1c-0.7,0-1.4,0-2,0c-0.5,0-1,0-1.6,0
					c-1.5,0-3.1-0.1-3.7-0.1c-0.6,0-0.7-0.2-0.7-0.4c0-0.1,0-0.3-0.1-0.4c0-0.1,0-0.2,0-0.3c0-0.2-0.1-0.4-0.4-1.6
					c-0.3-1.7-0.9-3.9-1.3-5.7c-0.4-1.9-0.7-4.6-0.9-5.8c-0.2-1.1-0.6-3.2-0.9-4.3c-0.3-1,1.2-0.6,2.1-0.6c0.9,0,3.1-0.2,4.7-0.2
					c1.4,0,4.3,0.1,4.9,0.1c0.6,0,0.6,0.4,0.6,0.8c0,0.1,0,0.2,0.1,0.3c0.1,0.3,0.1,0.6,0,0.6c-0.3,0-0.4-0.1-0.9-0.1h-4.5l-3.5,0
					c-0.4,0-0.9,0.1-1.2,0.1l-0.6,0.1l0.1,0.8c0.1,0.4,0.1,0.9,0.2,1.3c0.2,0.8,0.4,1.5,0.5,2.1l0.2,1.1c0,0.2,0.1,0.4,0.2,0.7
					c0.3,0,0.5,0,0.8,0h1.1c0.5,0,1-0.1,1.9-0.1c0.9,0,1.9,0.1,2.2,0.1c0.3,0,0.8-0.1,1.4-0.1c0.5,0,1.4,0.1,1.9,0.1
					c0.2,0,0.3,0,0.4,0c0.1,0,0.1,0,0.2,0c0.3,0,0.4,0.3,0.4,0.4c0,0.1,0.1,0.8,0.1,1c0,0.3,0.1,0.3-0.4,0.3c-0.4,0-2.9-0.3-3.9-0.3
					c-1,0-2.4,0-3.5,0.1c-0.5,0.1-1.2,0.1-1.6,0.1c-0.3,0-0.5,0-0.8,0l0,0.4C323.2,418.2,323.2,418.6,323.3,418.9z"/>
				<path class="st21" d="M341.6,417.3c0.1-0.5,0.2-2.2,0.3-3c0.1-0.9,0.5-3.7,0.6-4.3c0.1-0.6,0.4-1.8,0.7-1.8s0.3,0.1,0.5,0.5
					c0.2,0.4,0.3,0.6,0.5,1.2c0.3,0.6,1.5,2.6,2,3.5l1.2,1.9l0.7,1.1c0-0.1,0-0.2,0.1-0.3l0.1-0.7c0.1-0.6-0.1-1.8,0-2.9
					c0-0.9,0.4-2.5,0.3-3.2c-0.1-0.8,0.2-1,0.5-1c0.2-0.1,0.6-0.1,1-0.1c0.1,0,0.3,0,0.4,0c0.3,0,0.4,0.1,0.4,0.3c0,0.1,0,0.2,0,0.3
					c-0.1,0.5-0.1,1.1-0.2,1.9c-0.1,0.9-0.3,4.3-0.4,5.3c0,0.9,0.1,3.2,0.1,3.5c0.1,0.3,0.1,0.9-0.1,1.6c-0.2,0.9,0.1,5.5,0,5.8
					c0,0.4,0.1,0.9-0.1,0.9c-0.3,0-0.4-0.2-0.7-0.6c-0.3-0.3-1.3-2.1-1.7-2.7c-0.3-0.5-1.5-2.6-1.8-3.3c-0.2-0.4-0.5-1-0.9-1.6
					l-0.6-1l-0.2,0.8c-0.1,0.4-0.3,1.4-0.5,2.6c-0.2,1.1-0.3,4.5-0.3,4.8c0,0.4-0.2,1-0.4,1c-0.3,0-0.4-0.3-0.6-0.6
					c-0.2-0.2-1.4-3.4-1.9-4.1c-0.5-0.8-1.2-2.4-1.6-3.2c-0.4-0.7-2.6-5.4-3.1-6.4c-0.5-1.1-1.6-3.6-2-4.2c-0.1-0.3-0.2-0.4-0.2-0.6
					c0-0.1,0.1-0.1,0.2-0.1h0.9c0.2,0,0.5,0,0.7,0l0.3-0.1c0.4-0.1,0.5,0.2,0.7,0.8c0.4,0.8,1.6,3.4,2.8,5.4c0.5,1,1.1,2,1.5,2.7
					l0.7,1.2l0-0.4L341.6,417.3z"/>
			</g>
			<g>
				<path class="st21" d="M282.3,467.9c4.7,2.6,9.7,7.5,11.6,17.3c2.2,11.1-10.2,12-14.7,12c-4.6,0-15.5,0.6-17.7,0.6
					c-1.9,0-2.3-0.8-2.5-1.7c-0.3-1.3-0.4-1.8-0.7-3.6c-0.3-1.6-1.5-9.8-2.2-13.5c-0.7-3.7-3.5-16.5-4.2-19.9
					c-0.7-3.5-1.2-10-1.6-12c-0.4-2.1-1.5-6.1-1.8-7.5c-0.2-0.9,0.5-1.1,1.3-1.1c0.4,0,0.9,0.1,1.2,0.1c0.9,0,2.3-0.3,3.9-0.3
					c2,0,2.8,0.2,11.3,0.2c8.5,0,15.6,3.6,17.7,14.3c1.1,5.3-1.5,8.4-4.4,10.2c-1.7,1.1-3.7,1.8-5.9,2.3
					C276.8,465.6,279.6,466.5,282.3,467.9z M284.7,483.8c-1.9-9.4-9.8-11.8-11.6-12c-1.9-0.2-13.8-1-14.7-1c-1.9,0-1.9,0.2-1.8,1
					c0.2,0.9,0.5,2,1,4.8c0.5,2.7,0.8,5.2,1.2,7.4c0.4,2.2,0.8,4.7,1.1,5.7c0.2,1.2,0.6,1.3,1.2,1.3l4.3,0.2
					c2.9,0.1,6.9,0.7,10.3,0.7C279.1,491.8,286.2,491.4,284.7,483.8z M253.1,450c0.3,1.6,1.1,7.2,1.3,8.2c0.2,1.2,0.6,1.2,1.9,1.2
					c1.3,0,3.9,0.2,5.8,0.2c1.7,0,4.3-0.2,7.2-0.2c2.9,0,7.7-0.5,6.5-6.2c-1.1-5.4-7-7.5-12.6-8.4c-2.1-0.3-4.4-0.5-6.8-0.5
					c-1.3,0-2.7,0.1-4.1,0.2l0.2,2C252.7,447.8,252.9,449.1,253.1,450z"/>
				<path class="st21" d="M299.2,451.2c0.9,4.4,3,18.4,3.8,22.6c0.8,4.3,3.9,18.6,4.6,20.6c0.2,0.5,0.2,0.8,0.3,1.1
					c0.2,0.9-0.1,1.1-0.6,1.3c-0.4,0.3-1.5,0.3-2.5,0.3c-2.7,0-1.9,0.3-2.6-3.4c-0.6-3.1-4.1-22.5-5.2-27.9
					c-1.1-5.4-3.4-21.3-4-23.3c-0.1-0.6-0.3-1.1-0.4-1.7c-0.2-1.1-0.2-2.1,0.9-2.1c0.6,0,1.8,0.1,3,0.1c0.7,0,0.9,0.5,1,1.1
					c0.1,0.6,0.1,1.3,0.2,2C297.9,443.6,298.4,446.7,299.2,451.2z"/>
				<path class="st21" d="M319.9,439.4c7.6,0,25.8,5,31.1,31.5c4.9,24.6-17.8,25.6-20.9,25.6c-3.2,0-9.1,0.2-11.1,0.2
					c-1.3,0-1.8-1.3-2.1-2.8c-0.1-0.7-0.2-1.5-0.3-2.1c-0.4-2-1.4-6.1-1.8-7.8c-0.3-1.6-1.5-5.7-2.8-12.1c-1.3-6.4-1.4-10.5-2.7-17
					c-1.3-6.6-2.6-12.2-2.9-13.9c-0.3-1.6,3.3-1.2,5.2-1.2l2.9-0.2C316.1,439.4,318,439.4,319.9,439.4z M331.5,476.2
					c1.7-2,3.1-5.1,2.2-9.3c-0.8-4.2-3.3-6.7-5.6-8.3c-1.3-0.9-2.8-1.6-4.2-2c0.3,0.9,0.5,1.8,0.7,2.8c0.6,2.9,0.9,6,1.4,8.6
					c0.4,1.9,0.8,4.5,1.2,6.9c0.2,1.4,0.5,2.9,0.8,4.3C329.4,478.4,330.5,477.4,331.5,476.2z"/>
			</g>
		</g>
		<g>
			<polygon class="st22" points="238.4,378.2 242,382.9 247.4,383.7 244.6,387.4 246.8,392.6 241.5,390.1 237.5,392.6 237,387.4 
				232.3,383.7 237.3,382.9 			"/>
			<polygon class="st22" points="257.8,378.2 261.4,382.9 266.8,383.7 264,387.4 266.2,392.6 260.9,390.1 256.9,392.6 256.4,387.4 
				251.7,383.7 256.7,382.9 			"/>
			<polygon class="st22" points="277.2,378.2 280.8,382.9 286.2,383.7 283.4,387.4 285.6,392.6 280.3,390.1 276.3,392.6 
				275.8,387.4 271.1,383.7 276.1,382.9 			"/>
			<polygon class="st22" points="296.6,378.2 300.2,382.9 305.6,383.7 302.8,387.4 305,392.6 299.7,390.1 295.7,392.6 295.2,387.4 
				290.5,383.7 295.5,382.9 			"/>
			<polygon class="st22" points="316,378.2 319.6,382.9 325,383.7 322.2,387.4 324.4,392.6 319.1,390.1 315.1,392.6 314.6,387.4 
				309.9,383.7 314.9,382.9 			"/>
		</g>
		<g>
			<polygon class="st23" points="179.9,208.6 187.6,218.4 191.3,208.6 			"/>
			<polygon class="st31" points="190.4,204.9 182.8,195.4 179.2,204.9 			"/>
		</g>
		<path class="st5" d="M88.6,492.3c5.2-18.1-13-26.5-15.4-27.7c2.9-0.6,5.6-1.6,8.3-3.2c4.5-2.8,9.7-7.6,12.3-16.8
			c3.3-11.6-0.3-17.6-6.9-20.7l2.2-7.8c0.3-1-0.4-1.9-1.4-2l-7.1-0.7c-1.1-0.1-2.2,0.6-2.5,1.6l-1.8,6.1c-0.8-0.1-1.6-0.2-2.3-0.3
			c-1.6-0.2-3.4-0.3-5.1-0.3l1.8-6.2c0.3-1.1-0.4-2-1.5-2.2l-6.4-0.6c-1.2-0.1-2.3,0.7-2.7,1.7l-2.1,7.4c-0.4,0-0.6,0.1-0.8,0.1
			c-1.1,0.1-1.5,0.4-1.7,0.9c0,0.1-0.1,0.4,0,0.6c0,0.6-0.6,3.3-1.3,5.9c-0.3,1.2-0.7,2.3-1.1,3.3c-1.3,3.2-6.4,21.1-8.7,27.6
			c-1.4,3.6-2,5.8-2.7,8c-0.5,1.8-1,3.4-1.6,5.6l-7.5,25.9c-0.6,2.2-0.8,4.2,1.7,4.7l-2.1,7.3c-0.3,1.1,0.4,2,1.5,2.2l6.4,0.6
			c1.2,0.1,2.3-0.7,2.7-1.7l2.1-7.4c2.6,0.2,5.3,0.4,7.5,0.6l-2.2,7.7c-0.3,1,0.4,1.9,1.4,2l7.1,0.7c1.1,0.1,2.2-0.6,2.5-1.6l2.3-8
			C72.6,505.8,85.3,503.9,88.6,492.3z M61.1,457.4l3.8-13.3c0.9-3.3,2.5-8.3,3.8-12.5l2.4-7.5c11.4,1.1,22.7,3.1,17.6,21
			C83.6,463,61.5,462,60.5,461.9c-0.9-0.1-0.8-0.3-0.6-1.1C60.2,459.9,60.6,459.2,61.1,457.4z M52.2,502.6c-2.4-0.2-3.9,0.1-3.2-2.2
			c0.6-2.1,2.2-9.5,3-12.3c0.8-2.8,1.2-3.1,1.8-5.4c0.6-2.1,2.7-11.3,3.4-13.8c0.4-1.3,0.6-2.1,0.9-2.7c0.1-0.4,0.2-0.6,0.4-0.9
			c5.4,0.4,10,1.6,13.8,3.5c6.4,3.5,12,9.9,8.4,22.7C78.4,499.4,69.2,504.3,52.2,502.6z"/>
		<g>
			
				<ellipse transform="matrix(0.6985 -0.7156 0.7156 0.6985 -189.4819 122.8132)" class="st0" cx="51" cy="286.3" rx="35.9" ry="46"/>
			<path class="st1" d="M10.6,287.8c1.8,5.4,4.8,11.1,8.9,16.8c11.1,15.2,25.2,23.3,39,23.6c0.8-4.8,1.2-9.9,1.2-15.3
				c0-27.8-11.8-50.3-26.4-50.3C23.7,262.6,15.2,272.7,10.6,287.8z"/>
			
				<ellipse transform="matrix(0.7205 -0.6934 0.6934 0.7205 -179.4514 117.119)" class="st2" cx="55.6" cy="281.2" rx="34.5" ry="45.9"/>
			
				<ellipse transform="matrix(0.7205 -0.6934 0.6934 0.7205 -179.0533 117.3656)" class="st3" cx="56.1" cy="280.8" rx="32.4" ry="43.1"/>
			<path class="st4" d="M74,311c-9.4-26.2-9.7-50.7-1.5-59.3c-12.2-9.8-26-12.5-38.1-7.3c5.9,8,11.4,18.4,15.7,30.4
				c6,16.6,8.3,32.5,7.1,44.1c6.6,1.5,13.2,1.2,19.4-1.3C75.7,315.5,74.9,313.3,74,311z"/>
			<path class="st5" d="M83.9,283.2c-7-9.8-20.4-7-22.3-6.6c1.1-1.3,1.9-2.8,2.4-4.4c0.7-2.9,0.6-7-3.1-12.2
				c-4.9-6.7-10.1-8.2-15.2-7.2l-3.4-4.6c-0.4-0.6-1.3-0.8-1.9-0.4l-4,2.4c-0.6,0.4-0.7,1.1-0.3,1.7l2.7,3.6
				c-0.4,0.2-0.9,0.5-1.3,0.8c-0.9,0.5-1.8,1.2-2.8,1.8l-2.7-3.6c-0.5-0.6-1.4-0.8-2-0.4l-3.6,2.2c-0.6,0.4-0.8,1.2-0.3,1.8l3.3,4.3
				c-0.2,0.2-0.3,0.3-0.3,0.3c-0.5,0.5-0.5,0.8-0.3,1.1c0.1,0.1,0.2,0.2,0.3,0.3c0.3,0.3,1.7,1.7,2.8,3.2c0.5,0.7,1,1.3,1.4,1.9
				c1.2,2,8.9,11.9,11.4,15.5c1.3,2.1,2.2,3.3,3.1,4.4c0.7,0.9,1.4,1.8,2.3,3l10.3,13.5c0.9,1.1,1.9,2,3.3,1.3l2.8,3.6
				c0.4,0.5,1.2,0.7,1.8,0.3l3.4-1.9c0.6-0.3,0.8-1.1,0.4-1.6l-2.8-3.7c1.4-0.8,2.8-1.7,3.9-2.3l2.9,3.9c0.4,0.5,1.1,0.7,1.7,0.3
				l3.8-2.2c0.6-0.3,0.7-1,0.4-1.5l-3-4.1C83.1,294.5,88.3,289.3,83.9,283.2z M51.7,277.7l-5.6-7.4c-1.4-1.8-3.5-4.7-5.2-7.2
				l-3.1-4.4c6.4-3.8,13.2-7.2,20.8,3.2c7.3,10-4.2,17.6-4.7,17.9c-0.5,0.3-0.6,0.2-0.9-0.3C52.6,279.2,52.5,278.7,51.7,277.7z
				 M71.7,300.3c-1.3,0.7-1.8,1.4-2.7,0.2c-0.8-1.1-3.9-4.7-5.1-6.2c-1.1-1.5-1.1-1.7-2-2.9c-0.8-1.1-4.8-5.8-5.8-7.2
				c-0.5-0.7-0.9-1.1-1-1.5c-0.1-0.2-0.2-0.3-0.3-0.5c2.9-1.8,5.8-2.9,8.7-3.4c5-0.8,11.2,0,16.2,6.9
				C82.6,289.8,80.7,295.1,71.7,300.3z"/>
		</g>
		<path class="st32" d="M403,534.4h-188c-5.8,0-11.3-4.7-12.3-10.4L138,148.3c-0.2-1.2-0.2-2.4,0-3.5c-2.1,1.9-3.1,4.9-2.5,8.2
			l64.6,375.6c1,5.8,6.5,10.4,12.3,10.4h188c4.6,0,7.9-2.9,8.6-7C407.5,533.5,405.4,534.4,403,534.4z"/>
		<path class="st33" d="M113.4,415.1c13.4,11.3,19.4,30.7,15.2,55.6c-6.8,41.1-35.7,67-72.2,67c-13.3,0-24.5-3.5-33-9.9
			c8.7,7.3,20.5,11.3,34.8,11.3c36.5,0,65.4-25.9,72.2-67C134.8,446.1,128.1,426.2,113.4,415.1z"/>
		<path class="st18" d="M72.6,405c-33.4,0-59.9,23.7-66.1,61.3c-6.2,37.6,12.4,61.3,45.8,61.3c33.4,0,59.9-23.7,66.1-61.3
			C124.6,428.7,106,405,72.6,405z M116.9,466.3c-6,36.6-31.8,59.7-64.3,59.7S1.9,502.9,8,466.3c6-36.6,31.8-59.7,64.3-59.7
			C104.8,406.7,122.9,429.8,116.9,466.3z"/>
	</g>
	<g>
		<path class="st29" d="M539.8,289.7c3.1,3.3,5.6,4.2,6.8,4.9c1.2,0.7,6.5-0.2,6.3-0.7s-4.6-0.5-5.4-0.9c-0.8-0.4-5.2-4.1-5.2-4.1
			L539.8,289.7z"/>
		<path class="st28" d="M391.5,166.5c-1.8,0.5-6,1.5-6.3,0.6c-0.3-0.9,1.7-8,1.7-8L391.5,166.5z"/>
		<path class="st34" d="M456.3,154.6c-6.6-10.6-0.6-20-8.3-34.5c-7.7-14.4-26.2-5.7-26.5,8.4l1.5,3.4c0,0,3.7,4.9,7.8,19.4
			c4.1,14.6,23.9,25,42,17.4C472.8,168.7,462.9,165.2,456.3,154.6z"/>
		<path class="st35" d="M456.3,154.6c-6.6-10.6-0.6-20-8.3-34.5c-1.4-2.6-3.1-4.5-5-5.7c0.3,0.9,0.5,1.9,0.5,2.9
			c0,6.2-6.1,11.3-13.6,11.3c-3.1,0-5.9-0.8-8.1-2.2c-0.1,0.7-0.2,1.4-0.2,2.1l1.5,3.4c0,0,3.7,4.9,7.8,19.4
			c4.1,14.6,23.9,25,42,17.4C472.8,168.7,462.9,165.2,456.3,154.6z"/>
		<path class="st36" d="M412.4,136.7c0.3-9.6-7.6-17.7-17.5-17.7c-10,0-17.8,8-17.4,17.6c0.3,9.3,8.2,16.6,17.6,16.6
			C404.4,153.2,412.1,146,412.4,136.7z"/>
		<path class="st26" d="M415.8,186.1c-2-13-9.7-21.7-9.7-21.7l8.2-15.2c0,0,5.4,13.9,18.6,24.1C428.9,178.8,415.8,186.1,415.8,186.1
			z"/>
		<path class="st28" d="M402.7,178c-20.2-11.2-26-36.3-22.1-43.2c3.9-6.9,29.6,5.4,31.9,18.1C415.5,169.7,402.7,178,402.7,178z"/>
		<path class="st37" d="M425.6,129.8c-1-2.7-2.9-4.2-5.2-3.4c-2.2,0.8-1.6,3.2-0.6,5.9c1,2.7,1.9,4.6,4.1,3.8
			C426.2,135.3,426.6,132.5,425.6,129.8z"/>
		<path class="st34" d="M417.1,155c-15.5-8.5-38.9-3-38.5-21.1c0.4-18.1,18-20.3,29.2-15.8c7.8,3.1,12.3,8.1,14.3,10.9
			c0.9,1.2,1.3,2.6,1.1,4C422.4,142.6,416.6,147.8,417.1,155z"/>
		<path class="st35" d="M423.2,133.2c0.1-1.4-0.3-2.9-1.1-4c-2-2.8-6.5-7.8-14.3-10.9c-1.1-0.4-2.2-0.8-3.3-1.1
			c6.2,2.7,10.4,7.7,10.4,13.5c0,8.6-9.4,15.6-21,15.6c-4.3,0-8.4-1-11.7-2.7c7.1,6.6,23.3,5,35,11.5
			C416.6,147.8,422.4,142.6,423.2,133.2z"/>
		<path class="st28" d="M407.8,139.8c-4.4-2.8-11.3,4-5.3,11.9l5.6,3.5C409,153.2,414.3,143.9,407.8,139.8z"/>
		<path class="st38" d="M427.3,164.4c0,0-12.2,7.8-15.3,21.8l2.2,2.8l21.5-15.5L427.3,164.4z"/>
		<path class="st39" d="M452.3,179.3c14.1,13.3,37.9,29.8,63.7,43.4c3.2,1.7-13.3,14.6-15.7,14.6s-43.9-23.9-47.7-24.8
			C448.8,211.7,452.3,179.3,452.3,179.3z"/>
		<path class="st40" d="M516,222.8c-25.8-13.7-49.5-30.2-63.7-43.4c0,0-3.5,32.4,0.3,33.3c0.9,0.2,4.1,1.8,8.4,4.1
			c5.8-2.1,16-1.5,26.8,2c9.7,3.2,17.6,8,21.6,12.7C513.8,227.8,517.7,223.7,516,222.8z"/>
		<path class="st38" d="M508.3,534.2l-3.1-0.8c1.2-46-16.1-129.3-16.9-136.7c-0.8-7.5-41.6-126.9-41.6-126.9l42.8-18.1
			c33.8,27.5,43.2,26,51.9,67.6C555,385.3,508.3,534.2,508.3,534.2z"/>
		<path class="st41" d="M541.3,319.3c-8.7-41.6-18.1-40.1-51.9-67.6l-42.8,18.1c0,0,18.1,52.9,30.4,90.5c3.2-4.9,6.7-7.6,10.4-7.6
			c15.4,0,27.9,47,27.9,104.9c0,30-3.4,57.1-8.7,76.2l1.7,0.4C508.3,534.2,555,385.3,541.3,319.3z"/>
		<path class="st38" d="M417.9,535.4c38.1-57,107.3-183.5,102.5-226.3c-4.7-42.8-31-57.4-31-57.4L445,268.6c0,0,3.5,10.6,3.1,27.5
			c-0.4,16.9-17.3,101-17.7,108.4c-0.4,7.5-15.7,129.7-15.7,129.7L417.9,535.4z"/>
		<path class="st41" d="M521.8,308.4c-4.7-42.8-29.3-56.4-29.3-56.4l-32,10.7c24,16.7,22.9,91.5-3.8,174.3
			c-11.6,35.9-19.3,65.2-34.5,89.8c-0.4,3-7.4,7.4-7.4,7.4l3.1,1.2C456,478.4,526.6,351.2,521.8,308.4z"/>
		<path class="st39" d="M446.6,281.2c-5.1-28.3-15.3-42-15.3-42s-10.6,1.2-12.6,0.4c-2-0.8-11.8-47.1-9-51.9
			c2.8-4.7,20-15.7,24.8-15.7c4.7,0,16.9,5.9,20.8,10.2c3.9,4.3,3.9,12.6,11.8,28.7c7.9,16.1,33,47.1,33,47.1
			C479.9,258.2,461.8,264.9,446.6,281.2z"/>
		<path class="st40" d="M435.2,245.9c1.1-1.2,2.3-2,3.7-2.4c7.3-2.3,19.1,7.7,27.4,22.6c10.4-5.4,21.7-7.9,33.7-8
			c0,0-24.4-31.5-32.3-47.6c-7.9-16.1-8.6-23.9-12.5-28.2c-3.9-4.3-16.1-10.2-20.8-10.2c-4.7,0-22,11-24.8,15.7
			c-2.8,4.7,30,35.6,9,51.9c2,0.8,12.6-0.4,12.6-0.4S432.9,241.4,435.2,245.9z"/>
		<path class="st39" d="M417.1,181c-20.4,16.5-38.1,63.3-38.1,63.3l0.8,24.8c28.3-21.6,52.6-55.8,52.6-55.8L417.1,181z"/>
		<path class="st40" d="M417.1,181c-1.9,9-4.4,22.8-10.6,33.3c-8.4,14.4-18.6,25.5-27.5,30.9l0.8,23.8
			c28.3-21.6,54.4-55.5,54.4-55.5C437.4,188,435,169.2,417.1,181z"/>
		<path class="st28" d="M378.2,247.8c-0.9-0.6-34.6,17.9-75.3,10.1l-0.6,5.4c38.9,15.6,75.1,9.4,76.3,7.7
			C379.8,269.2,379.1,248.4,378.2,247.8z"/>
		<path class="st29" d="M378.2,247.8c-0.2-0.1-1.9,0.6-5,1.8c-3,10.7-21.7,19.1-44.4,19.2c-4.6,0-9.1-0.3-13.3-0.9
			c33.5,9.7,61.9,4.6,63,3.1C379.8,269.2,379.1,248.4,378.2,247.8z"/>
		<path class="st38" d="M377.1,273.1c-4.1-12.4-2-23-1.6-25.3c0.4-2.4,4.3-8.8,4.9-8.4c0.6,0.4,10.2,18.1,11.6,20.6
			s-5.7,8.8-5.7,8.8C383.1,272,380,274.2,377.1,273.1z"/>
		<path class="st28" d="M516.3,223.8c-1.9-2-19.1,8.1-18.5,10c0.6,2,16.1,37.3,41.5,56l1-1.6C517.9,249.9,520.3,227.9,516.3,223.8z"
			/>
		<g>
			<path class="st29" d="M540.1,288.6l0.2-0.3c-0.7-1.3-1.5-2.5-2.1-3.8C538.8,285.9,539.5,287.2,540.1,288.6z"/>
			<path class="st29" d="M506.3,247.4c5.3-2.6,16.6,9.3,26.8,27.5c-14.7-30.1-13.3-47.4-16.8-51.1c-1.9-2-19.1,8.1-18.5,10
				c0.2,0.8,2.7,6.6,7.2,14.6C505.4,248,505.8,247.7,506.3,247.4z"/>
		</g>
		<path class="st42" d="M526.3,254.4c-0.7,24.2,18.4,44.2,41.8,44.2c22.6,0,40.1-18.8,39.9-41.5c-0.3-22.2-17.5-41-39.2-42.4
			C546.2,213.2,526.9,230.8,526.3,254.4z"/>
		<path class="st43" d="M561.5,277.1c7-23.5,24.1-39.9,40.8-40.7c-6.2-11.1-17.1-19.2-29.8-21.2c1.3,8.9,0.6,19-2.4,29.1
			c-6,20.1-19.4,35-33.6,39.4c5.7,6.7,13.3,11.6,22,13.8C558.4,290.9,559.4,284,561.5,277.1z"/>
		<path class="st44" d="M570.8,296.2c-23.4,0-42.4-20-41.8-44.2c0.3-11.7,5.2-21.9,12.8-29.1c-9.1,7.2-15.2,18.4-15.6,31.4
			c-0.7,24.2,18.4,44.2,41.8,44.2c10.5,0,19.8-4,26.9-10.6C588.2,293.1,579.9,296.2,570.8,296.2z"/>
		<path class="st44" d="M562.5,217.9c23.3-0.2,41.5,20,40.3,44c-0.6,11.5-5.6,21.5-13.1,28.5c9-7.1,15.1-18,15.8-30.8
			c1.3-24.1-16.9-44.2-40.2-44.1c-10.4,0.1-19.8,4.3-26.9,11.1C545,221.2,553.4,218,562.5,217.9z"/>
		<path class="st45" d="M568.6,214.7c-22.4-1.4-41.7,16.1-42.4,39.7c-0.7,24.2,18.4,44.2,41.8,44.2c22.6,0,40.1-18.8,39.9-41.5
			C607.6,234.8,590.3,216.1,568.6,214.7z M566.8,296.8c-22.4,0-40.6-19.1-40-42.3c0.6-22.6,19.1-39.4,40.5-38
			c20.8,1.3,37.3,19.3,37.5,40.6C605.2,278.8,588.4,296.8,566.8,296.8z M568.6,214.7c-22.4-1.4-41.7,16.1-42.4,39.7
			c-0.7,24.2,18.4,44.2,41.8,44.2c22.6,0,40.1-18.8,39.9-41.5C607.6,234.8,590.3,216.1,568.6,214.7z M566.8,296.8
			c-22.4,0-40.6-19.1-40-42.3c0.6-22.6,19.1-39.4,40.5-38c20.8,1.3,37.3,19.3,37.5,40.6C605.2,278.8,588.4,296.8,566.8,296.8z"/>
		<path class="st38" d="M499.6,238.5c-1.8-0.6-3.5-2.4-3.7-3.1c-0.2-0.8,7.1-19.4,11-19.4c3.9,0,6.5,3.7,6.5,3.7
			c1.4-1.3,9.4,5.4,5,9.5C517.7,229.8,504.2,231.7,499.6,238.5z"/>
		<path class="st38" d="M421.9,539.1h-28.1c-1.6-2.9,13.2-2.4,16.5-5.7c3.3-3.3,7.3-6.7,7.3-6.7l4.7-0.8L421.9,539.1z"/>
		<path class="st41" d="M512.8,539.1H491c-1.9-2.9,9.7-2.4,11.5-5.7c1.8-3.3,4.1-6.7,4.1-6.7l3.5-0.8L512.8,539.1z"/>
		<g>
			<path class="st46" d="M467.4,232.5c0.2,0.3,0.3,0.6,0.5,0.9C467.9,233.4,467.7,233.1,467.4,232.5z"/>
			<path class="st46" d="M435.9,176.4c-0.2,0-0.5,0-0.7,0.1c9.2,13.7,28.8,49.8,32.2,56c-6-11.5-15.6-39.7-24.7-54.3
				C440,177.1,437.5,176.4,435.9,176.4z"/>
		</g>
		<path class="st28" d="M538.8,289.6c3,2.9,6.6,3.1,6.6,3.1s5-3.9,4.9-5c-0.1-1.1-3.8,1.5-5.2,2.4c-3.5-5-7.1-2.8-7.1-2.8
			L538.8,289.6z"/>
		<path class="st47" d="M572.8,215.2c0,0.5-0.1,0.9-0.1,1.4c0,0.2,0,0.4,0,0.7c11.2,2.3,20.8,9.6,26.5,19.4c0.9-0.2,1.9-0.5,2.8-0.8
			C595.8,225.1,585.2,217.3,572.8,215.2z"/>
		<path class="st48" d="M499.7,260.4c23.1,26.1,27,58.1,14.7,95.2C537.8,306.9,525.1,282.2,499.7,260.4z"/>
		<g>
			<path class="st28" d="M306.5,264.5c-7.3,0.4-9.8-5.1-10.3-6.6c-0.6-1.4-1.5-3.6,0.6-4c2.8-0.5,7,1.5,8.4,3.6
				C306.5,259.6,306.5,264.5,306.5,264.5z"/>
			<path class="st28" d="M301.5,252.6c-2.2-0.7-2.6,1.1-2.6,3.1c0,1.6,0.6,3.1,2.8,3.9c2.2,0.7,5.3,1.4,5.9,0
				C308.2,258.2,303.7,253.4,301.5,252.6z"/>
			<path class="st28" d="M287.1,253.2c0.6-2,7.8-2.4,9-2.1c1.2,0.3,6.4,4.1,6.4,4.1l-2.6,2.2c0,0-4.8-4.3-5.3-4.3
				C294,253.2,286.5,254.9,287.1,253.2z"/>
			<path class="st28" d="M298.5,258.5c-1.4-0.9-3.9-1.1-4.9-0.3c-0.8,0.6-0.1,1.6,1.2,2.1c1.1,0.4,2.6,0.5,3.5,0.2
				C299.4,260.1,299.6,259.3,298.5,258.5z"/>
			<path class="st28" d="M297.4,262.1c-0.4-1.7-2-3.5-3.2-3.6c-1-0.1-1.2,1-0.6,2.3c0.5,1.1,1.5,2.2,2.3,2.6
				C296.9,263.9,297.7,263.4,297.4,262.1z"/>
			<path class="st28" d="M298,255.2c-1-0.7-3.4-0.7-4.2,0c-0.8,0.7-0.7,1.8,0.4,2.5c1,0.7,7.9,2.6,8.7,1.9
				C303.7,259,299,255.9,298,255.2z"/>
		</g>
		<path class="st26" d="M405,146.8c1.3,0,2.3,1.7,2.5,3.8c0.9-1.9,2.6-6-0.6-8c-2.3-1.5-5.8,1.7-3.8,5.6
			C403.6,147.3,404.3,146.8,405,146.8z"/>
		<path class="st44" d="M591.6,267.2c-2.3-9.1-10.1-12.4-15.6-13.6c0.4-0.5,0.8-1,1.2-1.5c2.5-3.9,3.1-8.4,1.7-13.8
			c-2-7.8-6.5-11.9-13.4-12l-0.1-0.5c-0.2-0.8-0.7-1.4-1.4-1.8c-0.7-0.4-1.5-0.5-2.3-0.3l-2.1,0.5c-1.5,0.4-2.4,1.8-2.2,3.2
			c-0.4,0.1-0.8,0.2-1.2,0.3c-0.2-0.6-0.7-1.1-1.2-1.5c-0.7-0.4-1.5-0.5-2.3-0.3l-2.1,0.5c-0.8,0.2-1.4,0.7-1.8,1.4
			c-0.4,0.7-0.5,1.5-0.3,2.3l0.1,0.5c-0.4,0.2-0.8,0.4-1.1,0.5c-1.7,1-1.6,2.3-1.5,2.8c0,0.1,0.1,0.4,0.3,0.8c0.2,0.4,0.7,1.8,1,3.3
			c0.2,0.7,0.4,1.4,0.4,1.9c0.2,1.2,1,4.8,2,8.9c0.9,3.5,1.7,7.2,2.1,9.1c0.4,2.5,0.8,4,1.1,5.4l5.2,20.4c0.2,0.8,0.6,1.9,1.3,2.7
			c0.5,0.5,1.7,1.4,3.6,0.9l0.1,0.4c0.3,1.3,1.6,2.2,2.9,2.2c0.2,0,0.5,0,0.7-0.1l2.1-0.5c1.6-0.4,2.5-2,2.1-3.6l-0.1-0.6
			c0.4-0.1,0.7-0.2,1.1-0.3l0.2,0.6c0.4,1.6,2,2.5,3.6,2.1l2.1-0.5c1.6-0.4,2.5-2,2.1-3.6l-0.2-0.7
			C592.4,278.3,592.7,271.2,591.6,267.2z M567.1,232.3c2.7,0.8,4.7,3.5,5.8,8.1c2.1,8.2-5.1,12-8.1,13.2c-0.1-0.3-0.1-0.7-0.2-1.1
			l-2.2-8.6c-0.6-2.2-1.4-5.6-1.9-8l-0.7-3.2C562.3,232.1,564.9,231.7,567.1,232.3z M572.2,279.6c-0.2,0.1-0.4,0.1-0.6,0.2
			c-0.2-0.7-0.5-1.8-0.9-3c-0.5-1.6-1.1-3.4-1.3-4.3c-0.2-0.9-0.3-1.4-0.4-1.8c-0.1-0.5-0.2-0.9-0.4-1.7c-0.2-0.7-0.7-2.3-1.2-4.1
			c-0.6-1.8-1.2-3.9-1.4-4.7c-0.1-0.2-0.1-0.5-0.2-0.7c2.4-0.5,4.7-0.7,6.8-0.5c5.7,0.8,9.2,4.2,10.8,10.2
			C585.1,275.3,577.1,278.4,572.2,279.6z"/>
		<g>
			<path class="st49" d="M553.7,227.5l-3,0.8c-0.4,0.1-0.6,0.5-0.5,0.9l0.8,3.2l4.5-1.2l-0.8-3.2
				C554.5,227.6,554.1,227.4,553.7,227.5z"/>
			<path class="st49" d="M562.7,225.2l-3,0.8c-0.4,0.1-0.6,0.5-0.5,0.9l0.8,3.2l4.5-1.2l-0.8-3.2C563.5,225.3,563.1,225,562.7,225.2
				z"/>
			<path class="st49" d="M575.1,285.9l3-0.8c0.4-0.1,0.6-0.5,0.5-0.9l-0.8-3.2l-4.5,1.2l0.8,3.2
				C574.3,285.8,574.7,286.1,575.1,285.9z"/>
			<path class="st49" d="M566.2,288.2l3-0.8c0.4-0.1,0.6-0.5,0.5-0.9l-0.8-3.2l-4.5,1.2l0.8,3.2
				C565.4,288.1,565.8,288.4,566.2,288.2z"/>
			<g>
				<path class="st49" d="M590,267.6c2.8,10.7-12.1,13.9-15.1,14.7c-2.9,0.8-10.1,2.8-11.8,3.3c-1.8,0.5-2.5-0.8-2.8-2.3l-4.2-16.8
					c-0.4-1.4-0.6-2.5-0.9-3.6c-0.4-1.4-0.7-2.9-1.1-5.3c-0.9-4.3-3.8-15.8-4.2-18c-0.1-0.6-0.3-1.4-0.5-2.1c-0.4-1.7-1-3.4-1.2-3.7
					c-0.1-0.1-0.2-0.3-0.2-0.4c-0.1-0.3,0.1-0.6,0.7-0.9c0.6-0.4,5.6-2.6,9.6-3.6c8.1-2.1,16.1-1.9,19.1,9.7c1.5,6,0.2,9.8-1.5,12.4
					c-1,1.5-2.2,2.7-3.7,3.6C573.9,254.9,587,255.9,590,267.6z M585.2,268.8c-2.1-8.2-7.4-10.8-12.2-11.5c-2.8-0.3-5.8,0-9,0.9
					c0,0.2,0,0.4,0.1,0.6c0,0.4,0.2,0.9,0.4,1.8c0.4,1.7,2.2,7.5,2.6,8.8c0.4,1.4,0.3,1.7,0.7,3.5c0.5,1.8,2,6.5,2.3,7.8
					c0.4,1.5,1.1,1,2.6,0.6C582.9,278.7,586.5,273.9,585.2,268.8z M563.3,255.2c0.1,0.5,0.2,0.7,0.7,0.5c0.6-0.2,13.5-4.2,10.6-15.7
					c-3-11.6-10.1-10.3-16.9-8.6l1.1,4.9c0.6,2.7,1.4,6,1.9,8.1l2.2,8.6C563.2,254.2,563.2,254.7,563.3,255.2z"/>
			</g>
		</g>
		<g>
			<path class="st50" d="M561.5,277.1c1.2-4.1,2.7-7.9,4.5-11.5c-0.6-2-1.3-4.1-1.5-5.1c-0.2-0.8-0.3-1.4-0.4-1.8c0,0,0,0,0-0.1
				c-2.2,4-4.7,7.6-7.4,10.8l3.4,13.3C560.4,280.8,560.9,279,561.5,277.1z"/>
			<path class="st50" d="M574.6,240c2.3,9-5,13.4-8.6,15c-0.5,1-1,2.1-1.5,3c2.2-0.6,4.4-0.9,6.4-0.9c0.6-0.8,1.1-1.6,1.7-2.4
				c-0.2,0-0.3,0-0.4,0c0.4-0.2,0.7-0.5,1-0.7c1-1.3,2.1-2.5,3.1-3.7c1.4-2.6,2.3-6.2,1-11.6c-1-3.9-2.5-6.5-4.5-8.1
				c-0.1,1.3-0.3,2.6-0.5,3.8C573.2,235.8,574,237.6,574.6,240z"/>
		</g>
		<path class="st41" d="M513.4,219.7c0,0-2.6-3.7-6.5-3.7c-1.6,0-3.8,3.2-5.8,6.9c0.6,4.4,2.6,8.1,5.4,10.3c5.4-2.6,11.4-3.5,11.9-4
			C522.8,225.1,514.8,218.4,513.4,219.7z"/>
		<path class="st41" d="M392,260c-0.7-1.4-3.8-7-6.6-12c-2.3,5.3-6.2,9-10.8,9.9c0,4.3,0.6,9.6,2.5,15.3c2.9,1,6.1-1.1,9.2-4.3
			C386.3,268.8,393.4,262.5,392,260z"/>
		<path class="st46" d="M434.4,187.7c1.3,13.6-1.5,25.8-8.4,36.7C440.5,212.2,439.2,194.9,434.4,187.7z"/>
		<g>
			<path class="st26" d="M395.8,170.5c-0.2,0-0.5,0-0.6-0.2c-0.2-0.3-0.2-0.7,0.1-0.9c2-1.5,1.6-4.5,1.3-4.9c-0.3-0.3-0.2-0.7,0-0.9
				c0.3-0.3,0.7-0.2,0.9,0c0.5,0.5,0.7,1.8,0.6,2.8c-0.1,1-0.4,2.8-2,4.1C396,170.4,395.9,170.4,395.8,170.5z"/>
		</g>
		<path class="st51" d="M389.8,157.1c-0.9-1.6-2.4-2.7-3.5-2.4c-1.1,0.3-1.2,1.8-0.3,3.4c0.9,1.6,2.4,2.7,3.5,2.4
			S390.6,158.7,389.8,157.1z"/>
		<path class="st51" d="M387,155.4c1.1-0.1,2.4,0.4,3.6,1.4c-1.2-2.1-3.1-3.6-4.6-3.5c-1.6,0.1-2,2.2-1,4.6
			C385.1,156.5,385.8,155.6,387,155.4z"/>
		<path class="st34" d="M379.3,149.8l1,3.1c4.2-3.4,11.5-0.9,11.5-0.9S388.6,147.3,379.3,149.8z"/>
	</g>
	<g>
		<linearGradient id="SVGID_1_" gradientUnits="userSpaceOnUse" x1="329.5487" y1="-50.5258" x2="260.0974" y2="166.1628">
			<stop  offset="0" style="stop-color:#FF4683"/>
			<stop  offset="1" style="stop-color:#C60B68"/>
		</linearGradient>
		<path class="st52" d="M358,5.8c-4.9-3.9-87.6-10.2-118.7-1c-23,6.8-6.8,56.2,10.1,83.6c-6.4,12.9-16.9,34.9-14.8,35.9
			c2.1,1,18.1-12.2,27.4-20.1c1.3,1,2.5,1.8,3.7,2.1c15.1,4.9,87.2-2.4,94.5-7.3C367.4,94.2,362.8,9.6,358,5.8z"/>
		<g>
			<g>
				<path class="st53" d="M268.5,30.7c0.3,3.1,1.1,9.5,1.3,10.8c0.1,1.3,0.5,3.5,0.6,4.2c0,0,0,0.1,0,0.1c0.1,0.6-0.3,0.7-0.8,0.7
					c-0.5,0-1.9,0.2-2.9,0.2c-1.1,0-3.1,0.2-4.3,0.2c-1.2,0-1.2-0.6-1.4-1.2c-0.1-0.4-0.3-0.8-0.4-1.9c-0.1-0.5-0.1-1.1-0.1-1.8
					c-0.3-2.5-0.7-7.8-0.7-9.8c-0.1-2.1-0.3-9.8-0.5-11.6c-0.2-1.8-0.4-3.6-0.4-5.3c0-1,0.5-1.2,1.1-1.3c0.4,0,0.9,0.1,1.2,0.1
					c0.7,0,2.5-0.1,3.8-0.2c1.3,0,1.9,0.2,2.3,0.8c0.4,0.7,2.1,3.7,3.4,6c1.3,2.2,4.7,8.6,6,10.7c0.6,1.1,1.7,2.8,2.7,4.3l1.6,2.7
					l-0.3-2.6l-0.6-4.4c0-0.4-0.1-0.9-0.1-1.3c-0.2-1.9-0.3-3.7-0.4-5c-0.1-1.5-0.6-4.8-0.7-6.5l-0.2-4.4c-0.1-0.5,0.3-0.7,0.6-0.7
					c0.3,0,0.7,0.1,0.9,0.1c0.6,0.1,0.7,0.1,1.6,0c0.5,0,0.6,0.1,0.6,0.4c0,0.2,0,0.5,0,0.9c0.1,0.9,0.9,10.7,1.1,13
					c0,0.4,0,0.8,0.1,1.3c0.2,2.6,0.9,6.3,1,8c0.2,2,0.9,6.9,1,7.8c0,0,0,0.1,0,0.1c0.1,0.8-0.4,0.8-0.8,0.8c-0.1,0-0.3,0-0.5,0
					c-0.5,0-1.1,0.1-1.5,0.1c-0.5,0-0.5,0-1.1-0.9c-0.4-0.8-3.5-6.8-4.5-8.6c-1.1-1.8-4.9-8.6-6-10.6c-0.6-1-1.6-2.6-2.4-3.9
					l-1.5-2.3l0.6,4.3C268,26.5,268.4,29.1,268.5,30.7z"/>
				<path class="st53" d="M289.9,28.5c-0.3-3.5-0.6-3.8-0.8-6.5c-0.2-2.7-0.4-5.4-0.5-6.7c-0.1-0.9,0.3-1,0.8-1c0.2,0,0.5,0,0.7,0
					c0.7,0,1.5,0.1,3.6,0c2-0.1,5-0.6,6.8-0.6c1.9-0.1,4.2,0.1,5.1,0c0.9,0,1,0.4,1.1,1.3c0.1,1,0.4,2,0.5,3.5c0,0.4,0.1,0.9,0,1.7
					c0,0.5-0.3,0.7-0.6,0.7c-0.3,0-0.7-0.2-1-0.2c-0.7-0.1-2.1-0.1-4,0c-1.1,0-2.3,0-3.5,0c-0.4,0-0.8,0-1.2,0.1
					c-0.7,0.1-1.5,0.1-2.4,0.2c-1.1,0-2.1,0-2.4,0c-0.5,0-0.4,0.2-0.4,0.9c0.1,0.7,0.1,2.8,0.3,4.3l0.2,2.7c0,0.5,0.1,0.9,0.2,1.4
					c0.4,0,0.8,0,1.2,0c0.8,0,1.9,0,3.2,0c1.7,0,3.7-0.3,4.8-0.3c1.1,0,1.7,0.1,2.2,0.1c0.5,0,0.6,0.2,0.6,0.5c0,0.3,0,0.5,0,1.4
					c0.1,0.9,0.2,1.3,0.2,2.4c0,0.6-0.1,0.7-0.3,0.7c-0.2,0-0.5-0.1-0.8-0.1c-0.7,0-1.7,0-4.5,0c-2.9,0.1-4.8,0.5-5.3,0.5
					c-0.3,0-0.5,0-0.6,0c-0.1,0-0.2,0-0.3,0l0.4,4.5c0.1,0,0.3,0,0.5-0.1c0.3,0,0.8-0.1,1.3-0.1c1,0,3.3-0.1,5.3-0.2
					c1.5,0,3.9,0,5.7,0c0.8,0,1.5-0.1,1.9-0.1c0.8,0,0.9,0.4,1,0.9c0,0.3,0,0.6,0,0.9c0.1,0.9,0.1,1.8,0.2,3.1c0.1,1.2-0.6,1-2.1,1
					c-1.5,0-5.8,0-7.9,0.1c-2.2,0-6.5,0.3-7.1,0.3c-0.1,0-0.2,0-0.3,0.1c-0.4,0-0.4-0.3-0.4-0.7c-0.1-0.5-0.1-1.1-0.2-1.6
					c0-0.5-0.2-1-0.3-1.9l-0.6-6.1C289.9,32.8,290.2,32,289.9,28.5z"/>
				<path class="st53" d="M325.1,26.4c0.4-0.8,2.3-4,2.6-5c0.4-0.8,0.9-1.4,1.5-1.5c0.7,0,0.6,0.6,0.9,1.5c0.2,1.1,0.8,2.8,1.3,4.8
					c0.3,0.9,0.7,1.8,1.1,2.5c0.2,0.4,0.4,0.8,0.6,1.1c0-0.3,0.1-0.5,0.2-0.8l0.5-1.4c0.1-0.8,0.7-2.8,1.1-4.9
					c0.4-2.1,1.6-7.2,2-8.4c0.2-1.3,1-1.1,2-1.2l3.8-0.1c0.7,0,0.9,0.2,1,0.5c0,0.2-0.1,0.5-0.1,0.8c-0.3,0.9-0.6,2.6-1.3,5
					c-0.7,2.5-1.6,7-2,8.6c-0.3,1.6-1.3,7.4-1.7,9.6c-0.5,2-1.9,7.2-2.5,7.2c-0.8,0-1.3-1.2-1.7-2.3c-0.6-1-1.9-4-2.8-6.5
					c-0.4-1.3-1.1-3-1.8-4.6l-1.2-2.7c-0.1,0.2-0.1,0.5-0.3,0.7c-0.1,0.5-0.4,1-0.7,1.6l-2.7,6.2c-0.6,1.7-1.7,4.4-2,5.6
					c-0.4,1.3-1,2.3-1.7,2.4c-0.5,0-0.8-0.4-1-1.2c-0.3-0.7-0.5-0.9-1.2-3.2c-0.5-2.2-3.5-11-4-12.9c-0.7-1.9-2.8-9.2-3.6-11.1
					c-0.2-0.6-0.3-1.1-0.3-1.5c-0.1-0.8,0.3-0.9,0.8-1.1c0.9,0,2.6-0.4,4.2-0.4c1.5,0,1.5,0.6,1.7,1.3c0.3,1,0.5,2,1.1,4
					c0.6,1.8,2.5,6.4,2.8,7.6c0.4,1.1,0.7,3.4,1.2,3.4l0.1,0C323.8,29.6,324.6,27.1,325.1,26.4z"/>
			</g>
			<g>
				<path class="st53" d="M275,74.7c0.3,2.9,1.1,9.1,1.2,10.3c0.1,1.2,0.5,3.4,0.6,4.1c0,0,0,0.1,0,0.1c0.1,0.6-0.3,0.7-0.8,0.7
					c-0.5,0-1.8,0.2-2.9,0.2c-1,0-3,0.1-4.2,0.1c-1.2,0-1.1-0.6-1.3-1.2c-0.1-0.4-0.3-0.8-0.4-1.9c0-0.5-0.1-1-0.1-1.7
					c-0.3-2.4-0.7-7.5-0.7-9.4c-0.1-2.1-0.2-9.4-0.4-11.1c-0.2-1.7-0.4-3.4-0.4-5.1c0-1,0.5-1.2,1.1-1.2c0.4,0,0.9,0.1,1.2,0.1
					c0.7,0,2.5-0.1,3.7-0.1c1.3,0,1.8,0.2,2.2,0.8c0.4,0.7,2,3.6,3.3,5.8c1.3,2.1,4.6,8.3,5.9,10.3c0.6,1.1,1.7,2.7,2.6,4.2l1.6,2.6
					l-0.3-2.5l-0.6-4.2c0-0.4-0.1-0.9-0.1-1.3c-0.2-1.8-0.3-3.6-0.4-4.8c-0.1-1.4-0.5-4.6-0.7-6.2l-0.2-4.2c0-0.5,0.2-0.7,0.6-0.7
					c0.3,0,0.7,0.1,0.9,0.1c0.5,0.1,0.7,0.1,1.6,0.1c0.5,0,0.6,0.1,0.6,0.4c0,0.2,0,0.5,0,0.9c0.1,0.8,0.8,10.2,1,12.5
					c0,0.4,0,0.8,0.1,1.2c0.2,2.5,0.8,6.1,1,7.7c0.2,1.9,0.8,6.6,0.9,7.4c0,0,0,0.1,0,0.1c0.1,0.8-0.4,0.8-0.8,0.8
					c-0.1,0-0.3,0-0.5,0c-0.5,0-1.1,0.1-1.5,0.1c-0.5,0-0.5,0-1.1-0.8c-0.4-0.8-3.4-6.6-4.4-8.3c-1.1-1.7-4.7-8.2-5.9-10.3
					c-0.6-1-1.5-2.5-2.3-3.7l-1.5-2.2l0.5,4.1C274.5,70.6,274.9,73.2,275,74.7z"/>
				<path class="st53" d="M294.9,60.4c0,0,0-0.1,0-0.2c-0.1-0.7,0.2-0.7,0.6-0.7c0.4,0,1,0.1,1.5,0.1c1.6,0,4.3-0.3,5.5-0.3l4.9,0
					c1.3,0,3.1,0,4.1,0c0.7,0,0.8,0.2,0.9,0.6c0,0.2,0,0.4,0,0.7l0.5,5.1l0.2,2.2c0,0.1,0,0.3,0,0.3c0,0.4,0,0.6-0.6,0.6
					c-0.7,0-3.7-0.2-4.5-0.2l-4.7,0.1c-0.7,0-1.3,0.1-1.9,0.1l-0.9,0.1c0,0.3,0,0.5,0,0.8l0.1,1.4c0,0.5,0,0.9,0,1.2l0,0.6l1,0
					c0.6,0,1.2-0.1,1.8-0.1l3.2,0c1.8,0,3.1-0.2,4.1-0.2c0.8,0,0.9,0.2,0.9,0.5c0,0.4,0,0.7-0.1,1.3c0,0.5-0.2,0.5-0.6,0.5
					c-0.4,0-1.1,0-1.8,0c-0.6,0-3.3,0-4.1,0l-2.3,0c-0.5,0-1.1,0-1.7,0.1l0.4,4.2c0.2,2.2,0.3,4.4,0.3,5c0,0.6,0,1.4,0.1,2.2
					c0.1,1.1,0.2,2.1,0.3,2.5c0.1,0.7-0.4,0.6-1,0.6l-3,0c-0.7,0-0.6-0.6-0.7-1.5c-0.1-0.3-0.2-1.1-0.3-2c-0.1-1.2-0.2-2.6-0.3-3.6
					c-0.2-1.7-0.4-6.3-0.5-7.2c-0.1-0.9-0.4-1.9-0.5-3.8c-0.2-1.8-0.1-2.6-0.2-3.8l-0.4-3.9C294.9,62.7,294.9,61.2,294.9,60.4z"/>
				<path class="st53" d="M324.5,58.5c1.3,0,5.3,0,7.8,0c0.8,0,1.4,0,1.8-0.1c1.6-0.1,1.9,0.7,1.9,1.1c0,0.4,0,1.5,0.1,3.3
					c0.1,1.3,0.3,2.6,0.4,3.3c0.1,0.8-0.5,1.2-1.5,1.2l-7.9,0.1l0.2,4.5c0,0.7,0.1,2.1,0.2,3.7c0.4,4.8,1,11.9,1.1,12.5
					c0,0.1,0,0.1,0,0.2c0,0.6-0.2,0.6-0.6,0.6l-3,0c-0.8,0-0.7-0.2-0.8-1.4c-0.1-1.2-0.5-12-0.7-14.3c-0.1-1.8-0.5-4.5-0.6-5.7
					c-3.1,0.1-7.3,0.3-7.9,0.3c-0.8,0-1.1-0.5-1-1c0-0.4-0.2-3.8-0.3-5.8c0-0.6-0.1-1.1-0.1-1.3c0-0.1,0-0.2,0-0.3
					c-0.1-0.7,0.4-0.7,0.8-0.7l4.4-0.1C320,58.8,322.9,58.6,324.5,58.5z"/>
				<g>
					<path class="st53" d="M342.8,58c0.1,0,0.2,0,0.4,0c0.8,0,2.2-0.1,4.3,0c0.8,0.1,1,0.3,1,0.7c0,0.3-0.1,0.6-0.1,1
						c0,0.5-0.1,1.4,0,2.8c0,1.3,0,3.8,0,7.4c0,0.8,0,1.6,0.1,2.4c0,0.7,0.1,1.3,0.1,1.9c0.1,1.1,0.2,1.7,0.2,1.9c0,0.2,0,0.5,0,0.9
						c0.1,1.2,0.3,3.1,0.3,3.8c0.1,0.8-0.6,0.9-1.3,0.8l-2.3,0c-1,0-1.1-0.6-1.2-1.3c-0.1-0.4-0.2-1.1-0.2-2c0-0.5-0.1-1.1-0.1-1.7
						l-0.3-3.4c-0.2-2.1-0.5-4.6-1-7.6c-0.5-3-0.7-4.7-0.7-4.8l-0.1-1C341.9,58.3,342.3,58,342.8,58z M349.8,86.6c0,0.2,0,0.3,0,0.4
						c0,0.9-1.3,2.6-3,2.6c-1.5,0-2.9-1.5-3-3.2c0-0.2,0-0.4,0-0.6c0.3-1.8,1.8-2.1,2.9-2.1C348.9,83.7,349.8,85.5,349.8,86.6z"/>
				</g>
			</g>
		</g>
		
			<linearGradient id="SVGID_00000078744162330763088950000015321310724663868095_" gradientUnits="userSpaceOnUse" x1="379.6767" y1="115.3947" x2="315.2943" y2="118.0673">
			<stop  offset="0" style="stop-color:#FF4683"/>
			<stop  offset="1" style="stop-color:#C60B68"/>
		</linearGradient>
		<path style="fill:url(#SVGID_00000078744162330763088950000015321310724663868095_);" d="M343.1,122.9c-4.1-2.7-3.8-10.2-0.7-11.8
			c3.1-1.5,11.1-4,14.3-1s2.3,11.4-0.5,13.2C353.4,125.1,346.1,124.8,343.1,122.9z"/>
		
			<linearGradient id="SVGID_00000039834346232133513580000009387286081381160583_" gradientUnits="userSpaceOnUse" x1="379.3179" y1="106.7512" x2="314.9353" y2="109.4237">
			<stop  offset="0" style="stop-color:#FF4683"/>
			<stop  offset="1" style="stop-color:#C60B68"/>
		</linearGradient>
		<path style="fill:url(#SVGID_00000039834346232133513580000009387286081381160583_);" d="M363.3,110.6c-2.2-1.4-2-5.5-0.4-6.3
			c1.6-0.8,5.9-2.2,7.7-0.5s1.2,6.1-0.3,7.1S364.9,111.6,363.3,110.6z"/>
	</g>
	<g>
		
			<linearGradient id="SVGID_00000145767088977902598630000008390348300906456476_" gradientUnits="userSpaceOnUse" x1="905.4556" y1="72.1826" x2="896.9235" y2="171.1562" gradientTransform="matrix(-0.841 0 0 1 1259.7987 -1.000000e-04)">
			<stop  offset="0" style="stop-color:#FFC135"/>
			<stop  offset="1" style="stop-color:#FFA81F"/>
		</linearGradient>
		<path style="fill:url(#SVGID_00000145767088977902598630000008390348300906456476_);" d="M471.3,122.2l11.5-1.9
			c-0.3-11.8,0.2-24.2,1.8-24.2c3.1,0,44.2,3.9,46.1,5.9c1.8,2-1.5,35-2.8,36.6c-2.2,2.8-39.9,3.4-42.7,2.8c-1-0.2-1.8-6.8-2.2-14.9
			L471.3,122.2z"/>
		<path class="st57" d="M519.1,128.7c2.1-5.9,0.5-12,0.5-12l-6.1-1.2c0,0-2.8-4.7-1.3-9.2c0.7-2-1.7-3.6-3.8-2.4
			c-1.7,1-2.9,5.2-2.5,8.9c0.1,1-0.9,1.7-1.9,1.5c-2.4-0.5-6.1-1-7.6,0.9c-2.4,3-1.8,14.4,2.2,16.2
			C505.9,134.6,519.1,128.7,519.1,128.7z"/>
	</g>
</g>
</svg>
