<?xml version="1.0" encoding="utf-8"?>
<!-- Generator: Adobe Illustrator 26.5.0, SVG Export Plug-In . SVG Version: 6.00 Build 0)  -->
<svg version="1.1" id="Layer_1" xmlns="http://www.w3.org/2000/svg" xmlns:xlink="http://www.w3.org/1999/xlink" x="0px" y="0px"
	 viewBox="0 0 661.1 510.5" style="enable-background:new 0 0 661.1 510.5;" xml:space="preserve">
<style type="text/css">
	.st0{fill:url(#SVGID_1_);}
	.st1{fill:#FFE8C6;}
	.st2{fill:#FFE674;}
	.st3{fill:#FF8424;}
	.st4{fill:#FFF4C8;}
	.st5{fill:url(#SVGID_00000169547653749199839440000006744683554854092478_);}
	.st6{opacity:0.26;fill:#F7EDD9;}
	.st7{fill:url(#SVGID_00000089541444870060546720000014680436520667913149_);}
	.st8{opacity:0.7;fill:#F7EDD9;}
	.st9{opacity:0.27;fill:#F7EDD9;}
	.st10{fill:#ED3B11;}
	.st11{fill:url(#SVGID_00000106844868313010445940000012751678496732992422_);}
	.st12{fill:url(#SVGID_00000142156352547627970630000013439961173958049712_);}
	.st13{fill:#8E4AD5;}
	.st14{fill:#3B3868;}
	.st15{fill:#5B5384;}
	.st16{fill:#E7D4CF;}
	.st17{fill:#D4BFBA;}
	.st18{fill:#7F7CAC;}
	.st19{fill:#EDE0DC;}
	.st20{fill:#8B8528;}
	.st21{fill:#9F515A;}
	.st22{fill:#73353E;}
	.st23{fill:#83404C;}
	.st24{fill:#B7B23B;}
	.st25{opacity:0.69;fill:#9F515A;}
	.st26{fill:#C4A889;}
	.st27{fill:#D7C09C;}
	.st28{fill:#ECDCC0;}
	.st29{fill:#E0CEB3;}
	.st30{fill:#008BC1;}
	.st31{fill:#28B8E3;}
	.st32{fill:#51D1F3;}
	.st33{fill:#F9EFE3;}
	.st34{fill:#B04B60;}
	.st35{fill:#44A1D5;}
	.st36{fill:#186C8D;}
	.st37{fill:#DDF9FF;}
	.st38{fill:#FFA87A;}
	.st39{fill:#F97146;}
	.st40{fill:#FFF8DD;}
	.st41{fill:#B38B7E;}
	.st42{fill:#FFBD53;}
	.st43{fill:#FFD489;}
	.st44{fill:#FF4158;}
	.st45{fill:#7C3546;}
	.st46{fill:#D2412B;}
	.st47{fill:#38444B;}
	.st48{fill:#FD2A53;}
	.st49{fill:#F9D0B3;}
	.st50{fill:#5B2733;}
	.st51{fill:#283337;}
	.st52{fill:#5B6B73;}
	.st53{fill:#FFBB3F;}
	.st54{fill:#009DDA;}
	.st55{fill:#7ACDF3;}
	.st56{fill:#FFA81F;}
	.st57{fill:#FFE3D6;}
	.st58{fill:#0090D3;}
	.st59{fill:url(#SVGID_00000079444001936336586250000016333552745755726214_);}
	.st60{fill:url(#SVGID_00000011714396538068948800000011175089755006362014_);}
	.st61{fill:url(#SVGID_00000145045410053822098640000014975623443391516304_);}
	.st62{fill:url(#SVGID_00000023979668450173059630000013394692277778516613_);}
</style>
<g>
	<g>
		
			<linearGradient id="SVGID_1_" gradientUnits="userSpaceOnUse" x1="34.5728" y1="145.93" x2="1.8286" y2="276.9069" gradientTransform="matrix(0.9947 8.820000e-02 -0.1031 0.7926 52.5647 123.0272)">
			<stop  offset="0" style="stop-color:#FFC135"/>
			<stop  offset="1" style="stop-color:#FFA81F"/>
		</linearGradient>
		<path class="st0" d="M74.5,324.6c6.4-5,10.9-12.3,11.9-22.5c2.5-25.1-17-58-40-60.1S2.7,258.7,0.2,283.8
			C-2.2,309,14.4,331,37.4,333.1c10.1,0.9,20.3-0.1,28.8-3.7c6.3,7.2,15.7,8.6,21.8-1.5C81,333.1,77.1,331.2,74.5,324.6z"/>
		<g>
			<path class="st1" d="M63.1,297.5c0.2,0.4,0.3,0.8,0.5,1.1c2.3,6.7-2.7,10.7-9.8,13.2c0.1,0.4,0.3,0.7,0.6,1.1l0.3,0.9
				c-0.2,0-0.2,0.1-0.2,0.2c0,0.1,0,0.1,0,0.1c-0.2,0-0.3,0.2-0.5,0.3l-1.9,0.4c-0.7,0.2-1.2,0.1-1.6-0.1c-0.3,0.1-0.5-0.1-0.9-0.3
				c-0.1-0.1-0.2-0.3-0.2-0.5c-0.1-0.3-0.2-0.5-0.2-0.9l-0.1-0.2c-3.5,0.7-6.9,0.4-10.4-0.9c-2.3-0.7-3.5-1.2-3.8-2.1
				c-0.2-0.5,0-1.2,0.5-2.1c0.1-0.1,0.2-0.4,0.5-0.4c0.2,0,0.5,0,0.9,0.1c2.8,1.5,7.3,2.3,11.3,1.6l-1.1-3.3c-0.6-1.7-0.9-3.3-1.5-5
				l-1.9-5.5c-2.9-0.7-5.4-1.2-7.2-1.7c-4.8-1.4-7.9-4-9-7.1c-0.9-2.7-0.3-5.7,2-8.7c1.5-1.5,3.8-3,6-3.9l-0.2-0.6
				c-0.2-0.6-0.3-1-0.8-1.5c-0.2-0.5,0-0.7,0.4-0.8c0.7-0.2,1.3-0.3,1.7-0.6l0.9-0.2c0.9-0.2,1.4,0.1,1.7,0.8l0.6,1.9
				c4.4-0.5,9.1,0.1,13.4,2.1c0.6,0.3,1,0.8,1.1,1.3c0.1,0.4,0.2,0.8,0.1,1.2c0.2,0.9-0.4,1.8-1.6,1.9c-1.9,0-5.8-4-12-3.1
				c0.4,1.3,1,3,1.8,4.6c0.6,1.9,1.3,3.8,2.2,5.6l0.5,1.4C53.1,288.7,59.9,290.6,63.1,297.5z M34.1,282.5c0.8,2.3,3.5,3.6,6.2,4.1
				l-1-2.9c-0.5-1.5-1.1-2.7-1.4-3.4l-1.1-3.2C34.7,278.4,33.3,280.3,34.1,282.5z M55,305c0.5-1.1,0.6-2.1,0.3-3
				c-0.8-2.2-3.5-3.8-6.7-5.1l1.6,4.7c0.6,1.5,1.1,2.8,1.6,4.3l0.6,1.9C53.7,307.1,54.3,306.3,55,305z"/>
		</g>
	</g>
	<g>
		<g>
			
				<ellipse transform="matrix(0.8911 -0.4537 0.4537 0.8911 -68.4767 256.2273)" class="st2" cx="499.7" cy="270.8" rx="39.5" ry="41.6"/>
			<path class="st3" d="M539.5,268c-9-0.8-21.2,2.9-32.5,10.8c-12.7,8.8-20.9,20.3-22.2,29.6c12.2,5.6,26.7,5,38.2-3
				C535.2,296.9,541,282.4,539.5,268z"/>
			<path class="st4" d="M476.5,236.3c-0.4,0.3-0.8,0.6-1.2,0.9c0.6,1.4,1.3,2.8,2.2,4.1c6.1,8.8,17.5,11.5,25.4,5.9
				c5.1-3.5,7.5-9.5,7.1-15.7C499,227.9,486.6,229.3,476.5,236.3z"/>
			
				<linearGradient id="SVGID_00000149354122346698929500000005024436130432664227_" gradientUnits="userSpaceOnUse" x1="1142.4287" y1="-269.1255" x2="1168.9968" y2="-360.638" gradientTransform="matrix(0.8226 -0.5686 0.5222 0.8547 -286.7121 1196.3804)">
				<stop  offset="0" style="stop-color:#FFC135"/>
				<stop  offset="1" style="stop-color:#FFDB7B"/>
			</linearGradient>
			<path style="fill:url(#SVGID_00000149354122346698929500000005024436130432664227_);" d="M530.8,249.3
				c-12.2-18.2-36.1-23.3-53.2-11.5c-17.2,11.9-21.1,36.2-8.9,54.4c12.2,18.2,36.1,23.3,53.2,11.5
				C539.1,291.9,543,267.5,530.8,249.3z"/>
			<path class="st6" d="M512.2,253.5c-1.8-7-2.5-13.8-2.1-20c-10.7-3.6-22.7-2.4-32.5,4.4c-0.5,0.3-0.9,0.7-1.4,1
				c6.1,6.1,11.2,15.1,14.1,25.8c4.5,17,1.8,33.3-5.8,41.5c11.9,5.8,26.1,5.4,37.4-2.4c6.5-4.5,11.1-10.8,13.7-17.9
				C525.6,281.6,516.4,269.4,512.2,253.5z"/>
			
				<linearGradient id="SVGID_00000167371008784782177180000017805282480025965729_" gradientUnits="userSpaceOnUse" x1="1230.1584" y1="-315.5707" x2="1261.1234" y2="-315.5707" gradientTransform="matrix(0.8226 -0.5686 0.5686 0.8226 -345.2066 1236.6266)">
				<stop  offset="0" style="stop-color:#FFC135"/>
				<stop  offset="1" style="stop-color:#FFDB7B"/>
			</linearGradient>
			<path style="fill:url(#SVGID_00000167371008784782177180000017805282480025965729_);" d="M521.9,273.2
				c-5.5-9.3-17.2-6.5-18.8-6.2c1-1.2,1.8-2.6,2.3-4.1c0.8-2.7,1.1-6.4-1.7-11.2c-3.5-6-7.7-7.2-12-6.2l-2.4-4
				c-0.3-0.5-1-0.7-1.5-0.4l-3.5,2.2c-0.5,0.3-0.7,1-0.4,1.5l1.8,3.1c-0.4,0.2-0.8,0.5-1.2,0.7c-0.8,0.5-1.6,1.1-2.4,1.6l-1.8-3.1
				c-0.3-0.6-1.1-0.7-1.6-0.4l-3.2,2c-0.6,0.3-0.7,1.1-0.4,1.6l2.2,3.8c-0.2,0.1-0.3,0.2-0.3,0.3c-0.4,0.4-0.5,0.7-0.4,1
				c0,0.1,0.1,0.2,0.2,0.3c0.2,0.3,1.2,1.6,1.9,2.9c0.4,0.6,0.7,1.2,0.9,1.7c0.8,1.8,6.2,10.9,8,14.4c0.9,2,1.6,3.1,2.2,4.2
				c0.5,0.9,1,1.7,1.7,2.9l7.8,13.3c0.7,1.1,1.5,2,2.8,1.3l2.2,3.7c0.3,0.6,1,0.7,1.6,0.4l3.2-2c0.6-0.3,0.7-1.1,0.4-1.6l-2.2-3.8
				c1.3-0.8,2.6-1.7,3.6-2.3l2.3,3.9c0.3,0.5,1,0.7,1.5,0.4l3.5-2.2c0.5-0.3,0.7-1,0.4-1.5l-2.4-4.1
				C520.5,284.3,525.4,279.2,521.9,273.2z M494.6,268.2l-4-6.8c-1-1.7-2.4-4.3-3.6-6.5l-2.1-3.9c5.6-3.5,11.5-6.5,16.9,2.7
				c5.4,9.1-5,16.3-5.5,16.6c-0.4,0.3-0.5,0.1-0.7-0.3C495.2,269.6,495.1,269.1,494.6,268.2z M510,290c-1.2,0.7-1.7,1.4-2.4,0.2
				c-0.6-1.1-3.1-4.7-3.9-6.1c-0.8-1.4-0.8-1.7-1.5-2.8c-0.6-1.1-3.6-5.6-4.4-6.9c-0.4-0.7-0.6-1.1-0.7-1.4
				c-0.1-0.2-0.2-0.3-0.2-0.5c2.6-1.7,5.2-2.8,7.7-3.3c4.4-0.7,9.7,0,13.5,6.5C520.4,279.6,518.3,284.8,510,290z"/>
			<path class="st8" d="M521.1,273.8c-5.5-9.3-17.2-6.5-18.8-6.2c1-1.2,1.8-2.6,2.3-4.1c0.8-2.7,1.1-6.4-1.7-11.2
				c-3.5-6-7.7-7.2-12-6.2l-2.4-4c-0.3-0.5-1-0.7-1.5-0.4l-3.5,2.2c-0.5,0.3-0.7,1-0.4,1.5l1.8,3.1c-0.4,0.2-0.8,0.5-1.2,0.7
				c-0.8,0.5-1.6,1.1-2.4,1.6l-1.8-3.1c-0.3-0.6-1-0.7-1.6-0.4l-3.2,2c-0.6,0.3-0.7,1.1-0.4,1.6l2.2,3.8c-0.2,0.1-0.3,0.2-0.3,0.3
				c-0.4,0.4-0.5,0.7-0.4,1c0,0.1,0.1,0.2,0.2,0.3c0.2,0.3,1.2,1.6,1.9,2.9c0.4,0.6,0.7,1.2,0.9,1.7c0.8,1.8,6.2,10.9,8,14.4
				c0.9,2,1.6,3.1,2.2,4.2c0.5,0.9,1,1.7,1.7,2.9l7.8,13.3c0.7,1.1,1.5,2,2.8,1.3l2.2,3.7c0.3,0.6,1,0.7,1.6,0.4l3.2-2
				c0.6-0.3,0.7-1.1,0.4-1.6l-2.2-3.8c1.3-0.8,2.6-1.7,3.6-2.3l2.3,3.9c0.3,0.5,1,0.7,1.5,0.4l3.5-2.2c0.5-0.3,0.7-1,0.4-1.5
				l-2.4-4.1C519.7,284.9,524.6,279.7,521.1,273.8z M493.8,268.7l-4-6.8c-1-1.7-2.4-4.3-3.6-6.5l-2.1-3.9c5.6-3.5,11.5-6.5,16.9,2.7
				c5.4,9.1-5,16.3-5.5,16.6c-0.4,0.3-0.5,0.1-0.7-0.3C494.4,270.1,494.3,269.7,493.8,268.7z M509.2,290.5c-1.2,0.7-1.7,1.4-2.4,0.2
				c-0.6-1.1-3.1-4.7-3.9-6.1c-0.8-1.4-0.8-1.7-1.5-2.8c-0.6-1.1-3.6-5.6-4.4-6.9c-0.4-0.7-0.6-1.1-0.7-1.4
				c-0.1-0.2-0.2-0.3-0.2-0.5c2.6-1.7,5.2-2.8,7.7-3.3c4.4-0.7,9.7,0,13.5,6.5C519.6,280.2,517.5,285.4,509.2,290.5z"/>
			<path class="st3" d="M478.8,239.7c-16.2,11.2-20,34.2-8.4,51.4c11.5,17.2,34,22,50.2,10.8c16.2-11.2,20-34.2,8.4-51.4
				C517.5,233.4,495,228.5,478.8,239.7z M520.2,301.3c-15.9,11-37.9,6.2-49.2-10.6s-7.6-39.3,8.2-50.3c15.9-11,37.9-6.2,49.2,10.6
				C539.8,267.8,536.1,290.3,520.2,301.3z"/>
			<path class="st9" d="M520.6,301.9c-10.5,7.3-23.6,7.8-34.7,2.5c-0.5,0.6-0.9,1.2-1.4,1.7c11.9,5.8,26.1,5.4,37.4-2.4
				c6.5-4.5,11.1-10.8,13.7-17.9c-0.7-0.3-1.3-0.6-2-1C531.2,291.7,526.8,297.6,520.6,301.9z"/>
		</g>
	</g>
	<g>
		
			<ellipse transform="matrix(0.5396 -0.8419 0.8419 0.5396 -126.7449 283.903)" class="st3" cx="196.2" cy="257.8" rx="43.3" ry="36.7"/>
		<path class="st10" d="M186.3,266.1c0,9.7,16.2,17.6,36.3,17.6c6.2-7.1,10.6-16.1,12-25.9c0.4-2.8,0.5-5.6,0.4-8.3
			c-3.8-0.7-7.9-1-12.2-1C202.6,248.5,186.3,256.4,186.3,266.1z"/>
		<path class="st8" d="M216.1,219.4c12.4,6.5,19.7,21,17.4,37.9c-3.2,22.9-22.9,41.5-44.1,41.5c-5.1,0-9.9-1.1-14.1-3.1
			c4.5,2.3,9.6,3.7,15.2,3.7c21.2,0,40.9-18.6,44.1-41.5C237,240.5,229.2,225.6,216.1,219.4z"/>
		
			<linearGradient id="SVGID_00000180362921961699174050000014804081145997077171_" gradientUnits="userSpaceOnUse" x1="173.4702" y1="294.9204" x2="207.4852" y2="223.4313">
			<stop  offset="0" style="stop-color:#FFC135"/>
			<stop  offset="1" style="stop-color:#FFDB7B"/>
		</linearGradient>
		<path style="fill:url(#SVGID_00000180362921961699174050000014804081145997077171_);" d="M230.5,255.6
			c3.2-22.9-11.4-41.5-32.6-41.5c-21.2,0-40.9,18.6-44.1,41.5c-3.2,22.9,11.4,41.5,32.6,41.5C207.6,297.1,227.3,278.5,230.5,255.6z"
			/>
		<path class="st6" d="M219.2,221.9c-5.6-4.9-12.9-7.8-21.3-7.8c-4.1,0-8.2,0.7-12.2,2c-0.4,8.5-3.6,18-9.6,26.6
			c-6.3,9.1-14.5,15.5-22.8,18.7c-0.1,20.1,13.7,35.6,33,35.6c1.7,0,3.4-0.1,5.1-0.4c-6.2-9.9-8.1-24.8-3.9-39.9
			C192.8,238,205.8,224.4,219.2,221.9z"/>
		
			<linearGradient id="SVGID_00000181059844961754054970000008692672753819994541_" gradientUnits="userSpaceOnUse" x1="178.5151" y1="280.4848" x2="211.9259" y2="280.4848" gradientTransform="matrix(1.0297 3.190000e-02 -3.680000e-02 0.9871 1.6961 -31.1702)">
			<stop  offset="0" style="stop-color:#FFC135"/>
			<stop  offset="1" style="stop-color:#FFDB7B"/>
		</linearGradient>
		<path style="fill:url(#SVGID_00000181059844961754054970000008692672753819994541_);" d="M198.7,266.5c-2.3-0.3-9.4-0.9-11.6-1.1
			c-1.2-0.1-2.4-0.3-3.3-0.4l-1.5-0.3c0-0.1,0-0.1,0.1-0.3c0.1-0.2,0.2-0.6,0.4-1.1c0.2-0.3,0.4-0.9,0.7-1.6c0.7-1.8,3.6-9.1,4-10.1
			l0.2-0.6l6.2-1.1c0.9-0.2,1.5-1,1.4-1.9l-0.2-1.6c-0.1-0.9-0.9-1.4-1.8-1.3l-3.8,0.7l1.2-3c0.7-1.8,5.2-12.3,5.4-12.9
			c0.2-0.4,0.1-0.5-0.2-0.5c-0.1,0-0.3,0-0.6-0.1c-1.4-0.2-1.8-0.3-2.4-0.3c-0.6-0.1-1.4-0.5-1.7,0.3l0,0.1
			c-0.3,0.9-1.2,3.4-1.4,3.9l-2.6,7c-0.3,0.8-1.6,3.7-2.8,6.5l-7.3,1.3c-0.9,0.2-1.5,1-1.4,1.9l0.2,1.6c0.1,0.9,0.9,1.4,1.8,1.3
			l4.5-0.8c-0.3,0.7-0.5,0.9-0.2,0.2c-0.8,2-2.1,6.2-2.6,7.5c-0.5,1.4-4.2,10-4.6,11c-0.5,1.2-0.9,1.6,0.4,1.7
			c1.1,0.1,3.2,0.2,4.8,0.4c0.6,0.1,1.1,0.1,1.4,0.2c0.2,0,0.5,0.1,1,0.2c2.5,0.3,8.5,0.6,10.3,0.7c2.2,0.2,11.1,1.4,12.2,1.5
			c1,0.1,1.5,0.1,1.6-0.3c0-0.1,0-0.2,0.1-0.3c0.3-0.7,1.7-6,2.2-7.3C209,267.4,201,266.8,198.7,266.5z"/>
		<path class="st8" d="M197.3,266.5c-2.3-0.3-9.4-0.9-11.6-1.1c-1.2-0.1-2.4-0.3-3.3-0.4l-1.5-0.3c0-0.1,0-0.1,0.1-0.3
			c0.1-0.2,0.2-0.6,0.4-1.1c0.2-0.3,0.4-0.9,0.7-1.6c0.7-1.8,3.6-9.1,4-10.1l0.2-0.6l6.2-1.1c0.9-0.2,1.5-1,1.4-1.9l-0.2-1.6
			c-0.1-0.9-0.9-1.4-1.8-1.3l-3.8,0.7l1.2-3c0.7-1.8,5.2-12.3,5.4-12.9c0.2-0.4,0.1-0.5-0.2-0.5c-0.1,0-0.3,0-0.6-0.1
			c-1.4-0.2-1.8-0.3-2.4-0.3c-0.6-0.1-1.4-0.5-1.7,0.3l0,0.1c-0.3,0.9-1.2,3.4-1.4,3.9l-2.6,7c-0.3,0.8-1.6,3.7-2.8,6.5L176,248
			c-0.9,0.2-1.5,1-1.4,1.9l0.2,1.6c0.1,0.9,0.9,1.4,1.8,1.3l4.5-0.8c-0.3,0.7-0.5,0.9-0.2,0.2c-0.8,2-2.1,6.2-2.6,7.5
			c-0.5,1.4-4.2,10-4.6,11c-0.5,1.2-0.9,1.6,0.4,1.7c1.1,0.1,3.2,0.2,4.8,0.4c0.6,0.1,1.1,0.1,1.4,0.2c0.2,0,0.5,0.1,1,0.2
			c2.5,0.3,8.5,0.6,10.3,0.7c2.2,0.2,11.1,1.4,12.2,1.5c1,0.1,1.5,0.1,1.6-0.3c0-0.1,0-0.2,0.1-0.3c0.3-0.7,1.7-6,2.2-7.3
			C207.7,267.4,199.7,266.7,197.3,266.5z"/>
		<path class="st2" d="M198,214.1c-21.2,0-40.9,18.6-44.1,41.5c-3.2,22.9,11.4,41.5,32.6,41.5c21.2,0,40.9-18.6,44.1-41.5
			S219.1,214.1,198,214.1z M229.2,255.6c-3.1,22.1-22.1,40.1-42.6,40.1c-20.4,0-34.5-17.9-31.4-40.1s22.1-40.1,42.6-40.1
			S232.3,233.5,229.2,255.6z"/>
		<path class="st3" d="M197.4,218.2c-19.1,0-36.9,16.7-39.7,37.4c-2.9,20.6,10.3,37.4,29.3,37.4c19.1,0,36.9-16.7,39.7-37.4
			C229.6,234.9,216.5,218.2,197.4,218.2z M225.9,255.6c-2.8,20.1-20.1,36.5-38.7,36.5c-18.6,0-31.4-16.3-28.6-36.5
			c2.8-20.1,20.1-36.5,38.7-36.5C215.8,219.1,228.7,235.4,225.9,255.6z"/>
		<path class="st4" d="M186.6,295.6c-20.4,0-34.5-17.9-31.4-40.1c0-0.1,0-0.3,0.1-0.4c-0.5,0.5-1.1,1-1.5,1.6
			c-2.5,22.4,11.9,40.3,32.7,40.3c1,0,2-0.1,3-0.1c0-0.5,0-1,0.1-1.4C188.5,295.6,187.6,295.6,186.6,295.6z"/>
		<path class="st4" d="M185.9,216.1c0,0,0,0.1,0,0.1c0.1,0.4,0.2,0.8,0.3,1.2c3.7-1.2,7.6-1.9,11.6-1.9c7.4,0,14,2.4,19.2,6.5
			c0.6-0.2,1.1-0.4,1.7-0.6c-5.5-4.6-12.6-7.3-20.7-7.3C193.8,214.1,189.8,214.8,185.9,216.1z"/>
	</g>
	<path class="st13" d="M507.5,230.8c-0.5-0.1-0.9-0.2-1.4-0.3c-0.2-0.1-0.5-0.1-0.7-0.1c-0.4-0.1-0.9-0.2-1.3-0.2
		c-0.3,0-0.5-0.1-0.8-0.1c-0.4-0.1-0.8-0.1-1.2-0.1c-0.3,0-0.5-0.1-0.8-0.1c-0.4,0-0.8-0.1-1.3-0.1c-0.3,0-0.5,0-0.8,0
		c-0.4,0-0.9,0-1.3,0c-0.3,0-0.5,0-0.8,0c-0.5,0-1,0-1.4,0.1c-0.2,0-0.4,0-0.6,0c-0.7,0.1-1.4,0.1-2.1,0.2c0,0,0,0,0,0
		c-0.7,0.1-1.3,0.2-2,0.3c-0.2,0-0.4,0.1-0.6,0.1c-0.5,0.1-0.9,0.2-1.4,0.3c-0.3,0.1-0.5,0.1-0.8,0.2c-0.4,0.1-0.8,0.2-1.2,0.4
		c-0.3,0.1-0.5,0.2-0.8,0.3c-0.4,0.1-0.8,0.3-1.2,0.4c-0.3,0.1-0.5,0.2-0.8,0.3c-0.4,0.2-0.8,0.3-1.2,0.5c-0.3,0.1-0.5,0.2-0.8,0.4
		c-0.4,0.2-0.8,0.4-1.2,0.6c-0.2,0.1-0.5,0.2-0.7,0.4c-0.4,0.2-0.8,0.5-1.3,0.7c-0.2,0.1-0.4,0.2-0.6,0.4c-0.6,0.4-1.2,0.8-1.8,1.2
		c0,0,0,0,0,0c-0.4,0.3-0.8,0.6-1.2,0.9c-15.8,11.8-20.1,34.1-10.6,52.2l13-20.8c10.8-0.1,18-0.3,19.4-0.6
		c2.7-0.6,6.8-16.1,10.9-37.1C507.9,230.8,507.7,230.8,507.5,230.8z"/>
	<g>
		<g>
			<path class="st14" d="M571.7,466.1l-4.1,17c0,0,0.2,8.8,4.8,14c4.7,5.2,13.6,8.1,24.1-10.3C609.8,463.5,593.6,451.4,571.7,466.1z
				 M591,486.3c-6.9,11.5-12.9,9.7-16,6.3c-3.1-3.3-3.2-8.8-3.2-8.8l2.7-10.7C589,463.9,599.8,471.6,591,486.3z"/>
			<path class="st15" d="M575.9,454.8c0.4-5.2-77.2-11.4-77.6-6.2c-3.7,19.8-1.5,40.4,6.3,61.9h57.4
				C571.7,492.5,576.9,474,575.9,454.8z"/>
			<path class="st14" d="M575.9,454.8c0.1-0.7-1.1-1.3-3.3-2c0,0.3,0,0.7,0,1c0,23.7-11.9,42.9-26.7,42.9
				c-14.7,0-26.7-19.2-26.7-42.9c0-2.4,0.1-4.7,0.4-7c-12-0.4-21.2,0-21.4,1.8c-3.7,19.8-1.5,40.4,6.3,61.9h57.4
				C571.7,492.5,576.9,474,575.9,454.8z"/>
			<path class="st15" d="M527.1,510.5c-9.1-10.1-16.3-26.3-19-44.9c-1-6.6-1.3-12.9-1-18.9c-1.2,0-2.3,0.1-3.3,0.2
				c-2,7.3-2.8,15.9-2.2,25.1c1.1,15.8,6.2,29.8,13.2,38.4H527.1z"/>
			<path class="st16" d="M535.4,444.9c61.6-24.2,82.3-82.6,47.4-70.5l-7.5,2.6c-6.5,2.3-10.8-6.7-5-10.4c3.7-2.3,9-4.7,16.6-6.7
				c31.3-8.6,71.6-23.5,68.2-49.2c-3.4-25.7-28-50.7-13.4-63.4c14.5-12.7,22-27.2,18.6-32.1c-0.2,15.1-23.1,22-32.4,34.3
				c-9.3,12.3,31.7,32.1,14.5,61.2c-17.2,29.1-48.1,14.2-71.6,24.2c-23.5,10.1-94.7,66.4-53.8,92.5c12.5,7.9,26.3,4.5,44.8-5.6
				C568.1,423.5,554.4,433.1,535.4,444.9z"/>
			<g>
				<path class="st17" d="M548.4,426.9c-5.7,2.4-11.4,4-16.8,4.8c8.8,0.1,18.6-3.6,30.2-10c6.3,1.8-7.5,11.4-26.5,23.1
					c46.6-18.3,69.8-56.2,63.2-68.3C603.5,388.5,569.5,417.9,548.4,426.9z"/>
				<path class="st17" d="M641.7,247.2c7.8-6.8,13.6-14.2,16.8-20.3c-3,5.1-7.3,10.1-12.5,14.8c-6.3,5.6-13.1,9.7-19.5,12
					c0.2,9.6,18.9,23,20.1,40.6c4.7,5.3,7.3,11.3,7.5,17.6c1.4,38.6-120.8,59-102.9,34.8c-19.5,14-43.1,36.6-46.2,56.2
					c3.9-11.6,35.6-62.5,62.8-30c-0.6-2.2,0.1-4.7,2.6-6.3c3.7-2.3,9-4.7,16.6-6.7c31.3-8.6,71.6-23.5,68.2-49.2
					C651.7,284.9,627.1,259.9,641.7,247.2z"/>
			</g>
			<path class="st15" d="M580,461.7c0,0.2,0,0.4,0,0.6c0,2.7,0.3,5.3,0.9,7.7c10.4-3.4,16.8,3.1,11.1,14.4c1.1,0.4,2.3,0.6,3.4,0.6
				c0.8,0,1.5-0.1,2.2-0.3C607.3,465.8,596.7,455,580,461.7z"/>
			<path class="st18" d="M559,454.2c-2.2-0.3-4.1,1.3-4.2,3.5c-0.4,10.6,1.1,18.6,3.8,18.9c2.7,0.3,5.6-7.2,7.3-17.6
				c0.3-2-1-3.9-3.1-4.2C561.6,454.6,560.3,454.4,559,454.2z"/>
			
				<ellipse transform="matrix(0.9166 -0.3999 0.3999 0.9166 -118.431 249.4045)" class="st19" cx="538.5" cy="408.5" rx="26.4" ry="18.1"/>
			<path class="st19" d="M581.1,390.5c-2.1-2.5-6.5-2.2-9.8,0.6c-3.3,2.8-4.2,7.1-2.1,9.6c2.1,2.5,6.5,2.2,9.8-0.6
				C582.2,397.2,583.2,392.9,581.1,390.5z"/>
			<path class="st19" d="M497.3,455.8c24.4,0.9,68.5,3.8,78.7,4.5c0-0.6,0-1.3,0-1.9c-9.8-1.1-38.2-4.1-78.5-5.1
				C497.5,454.2,497.4,455,497.3,455.8z"/>
		</g>
		<g>
			<g>
				<g>
					<path class="st20" d="M144.3,434.9c-1.4-3-1.7-5.8-0.7-8.3c1.4-3.6,5-5.1,5.2-5.2l0.8,2c0,0-2.9,1.2-4,3.9
						c-0.7,1.9-0.5,4,0.6,6.5L144.3,434.9z"/>
				</g>
				<g>
					<path class="st20" d="M146.4,426.1l-1.9-1c0.8-1.4,0.5-6.5-2.3-8.1l1.1-1.9C147.2,417.3,147.7,423.7,146.4,426.1z"/>
				</g>
				<g>
					<path class="st20" d="M143.2,427.5c0,0-0.4-4.7-10.4-5.8l0.2-2.2c12,1.4,12.3,7.6,12.3,7.9L143.2,427.5z"/>
				</g>
				<g>
					<path class="st20" d="M144.8,421.2c-0.9-2.7-2.1-5.1-3.2-7.2c-2.4-4.5-4.4-8.5-0.5-12.9l1.6,1.4c-2.8,3.2-1.7,5.6,0.8,10.4
						c1.1,2.2,2.4,4.6,3.3,7.5L144.8,421.2z"/>
				</g>
				<g>
					<path class="st20" d="M140,408.1c-3.5-0.9-4.9-3.1-6.5-5.7c-1.3-2-2.7-4.3-5.4-6.7l1.5-1.6c2.9,2.6,4.5,5.1,5.8,7.1
						c1.6,2.5,2.6,4.1,5.2,4.8L140,408.1z"/>
				</g>
				<g>
					<path class="st20" d="M137.1,406.6c-8.6-13.1,1.8-26.2,1.9-26.3l1.7,1.4c-0.4,0.5-9.5,12-1.8,23.7L137.1,406.6z"/>
				</g>
				<g>
					<path class="st20" d="M137.9,386.5l-2.2-0.3c0-0.2,0.5-5.2-8.3-7.5l0.5-2.1C138.7,379.4,137.9,386.2,137.9,386.5z"/>
				</g>
				<g>
					<path class="st20" d="M136.3,383.5c-1.5-7.9-3.6-9.8-5.6-11.5c-1.3-1.2-2.7-2.4-3.5-5.2c-2.8-9.7,5.4-16.6,8-18.5l1.3,1.8
						c-2.3,1.7-9.6,7.8-7.1,16.2c0.6,2.2,1.6,3,2.8,4.1c2.1,1.8,4.7,4.1,6.3,12.8L136.3,383.5z"/>
				</g>
				<g>
					<path class="st20" d="M128,366.6c-0.2-0.1-5.3-2-7.7-7.3l2-0.9c2,4.4,6.5,6.1,6.5,6.1L128,366.6z"/>
				</g>
				<g>
					<path class="st20" d="M128,358.3c-5.1-5.9-2.7-11.8-0.9-16.1c1-2.5,1.9-4.7,1.1-6.1l1.9-1.1c1.4,2.3,0.2,5.1-1,8.1
						c-1.7,4.2-3.7,8.9,0.6,13.9L128,358.3z"/>
				</g>
				<g>
					<path class="st20" d="M131.6,333.5l-2-0.9c4.6-10.5,2.9-17.1,2.9-17.2l2.1-0.6C134.7,315.2,136.6,322.3,131.6,333.5z"/>
				</g>
				<g>
					<path class="st20" d="M132,325.1c-0.8-1.9-2.4-4.1-4.2-6.5c-4.5-6.1-10.2-13.7-8.1-23.7l2.1,0.4c-1.9,9.1,3.5,16.2,7.7,22
						c1.9,2.6,3.6,4.9,4.5,7L132,325.1z"/>
				</g>
			</g>
			<path class="st21" d="M174.4,510.5h-64.5c0,0-19-38.8-21.3-71.6c14.2-6.7,90.6-10.7,94.4-9.7
				C188.9,430.7,181.1,499.7,174.4,510.5z"/>
			<path class="st20" d="M143.9,418.1c-43.9-8.4-73.8-40.4-69.6-45.9C79.4,365.4,150.1,414.8,143.9,418.1z"/>
			<path class="st20" d="M141.7,407.5c-15.8-10.1,27.1-43.9,38.6-44.2C191.7,363,148.7,412,141.7,407.5z"/>
			<path class="st20" d="M132.4,381.5c-16.1,2.5-40-8.7-37.8-17.1C96.9,356,145,379.5,132.4,381.5z"/>
			<path class="st20" d="M134,354.6c-12.6,0.5,11.5-30.5,27.1-31.3C176.8,322.5,141.2,354.3,134,354.6z"/>
			<path class="st20" d="M131.3,338.4c-12.1,5.9-24.6-24.6-20.7-30.5C114.5,302,143.9,332.2,131.3,338.4z"/>
			<path class="st20" d="M139.7,383.2c-6.4,0.7-2.5-20.7,6.7-20.1C155.7,363.6,145,382.6,139.7,383.2z"/>
			<path class="st20" d="M132.2,397.1c-8.8,1.9-14.8-6.2-12.6-9.5C121.8,384.3,136.1,396.3,132.2,397.1z"/>
			<path class="st20" d="M120.3,361.3c-11.3-1.2-17.3-14.2-15.5-17.9C108.3,336.4,134.4,362.7,120.3,361.3z"/>
			<path class="st20" d="M131.3,318c-5.4-2.7,1.4-38.6,6.7-37.2C143.3,282.2,145.6,325.3,131.3,318z"/>
			<path class="st20" d="M134.4,422.9c-5.7,2.9-27.4-0.3-26.6-5.9C108.7,411.4,143.3,418.4,134.4,422.9z"/>
			<path class="st20" d="M148.7,424.5c-4.4-0.8,7.3-14.8,13.4-13.1C168.2,413.1,160.1,426.5,148.7,424.5z"/>
			<path class="st20" d="M121.2,298.2c3.5,1.3,18.3-59.9,9.8-57.9C122.5,242.3,103.9,291.7,121.2,298.2z"/>
			<path class="st22" d="M183,429.2c-1.7-0.4-17.6,0.1-36,1.4c5.4,33.9-2.2,64.2-17.3,68.1c-15.3,4-32.6-20.8-38.5-55.3
				c-0.3-1.8-0.6-3.5-0.8-5.2c-0.6,0.2-1.2,0.5-1.7,0.7c2.2,32.8,21.3,71.6,21.3,71.6l64.5,0C181.1,499.7,188.9,430.7,183,429.2z"/>
			<path class="st23" d="M179.4,435.3c-0.4-0.1-2-0.1-4.4-0.1c-4.5,0.1-8.3,3.7-8.5,8.2c-0.1,3.3-0.2,6.7-0.2,10.1
				c0,20.6,2.6,38.8,6.6,49.6C178.5,489.7,184.2,436.5,179.4,435.3z"/>
			<path class="st24" d="M94.7,364.4c-0.7,2.8,1.4,5.9,5.2,8.7c7.4,4.2,14.8,4.8,18.7,0.9c1.1-1.1,1.8-2.5,2.2-4.1
				C109.7,364.4,95.9,360,94.7,364.4z"/>
			<path class="st24" d="M114.3,397.9c1.1-1.1,1.8-2.7,1.9-4.6c-18.3-12.7-39.2-24.7-41.9-21.1c-0.8,1-0.3,3,1.2,5.7
				C91.1,394.5,108.5,403.4,114.3,397.9z"/>
			<path class="st24" d="M125.4,416.3c-7.8-1.7-17.1-2.2-17.5,0.7c-0.2,1.1,0.6,2.2,2,3.1C117,420,123.1,418.4,125.4,416.3z"/>
			<path class="st24" d="M110.6,307.9c-1.2,1.8-0.9,6,0.6,10.7c4.7,3.8,9.7,5.2,13,3.2c1.2-0.8,2.1-2,2.7-3.4
				C120.7,310.9,112.6,305,110.6,307.9z"/>
			<path class="st24" d="M131,240.3c-2.6,0.6-6.1,5.6-9.2,12.3c-0.1,0.7-0.2,1.3-0.4,2c-3,17.5-1.2,32.6,4,34.9
				C130.6,273,137.4,238.8,131,240.3z"/>
			<path class="st24" d="M141.5,290.2c-0.7-5.1-2-9-3.5-9.4c-2-0.5-4.2,4.2-5.9,10.4c0.6,1.3,1.4,2.2,2.4,2.5
				C136.7,294.4,139.3,293,141.5,290.2z"/>
			<path class="st24" d="M114.6,350.3c0.8-0.7,1.1-2,0.9-3.5c-4.5-3.8-9.3-6.2-10.7-3.4c-0.4,0.8-0.4,1.9-0.2,3.3
				C108.5,350.3,112.7,351.9,114.6,350.3z"/>
			<path class="st25" d="M89.2,444.5c0.1,1.1,0.3,2.1,0.4,3.2c21.3-5.2,81.2-8.3,95.5-8.3c0-1,0-2-0.1-2.9
				C164.4,437,114.1,439.9,89.2,444.5z"/>
		</g>
		<path class="st26" d="M163,277.8c-14.4,0-16.8,3.6-14.8,11.3l48,216.6c0.6,2.6,3.1,4.8,5.5,4.8h264.8c2.5,0,3.9-2.1,3.2-4.8
			L163,277.8z"/>
		<path class="st27" d="M199.3,334.7c-11.2,2-23.7,15.3-33.5,33.8l19.2,86.9c13-12.7,25.3-36,31.3-61.4
			C224.7,358,217.1,331.5,199.3,334.7z"/>
		<path class="st28" d="M413.6,277.8H160.8c-2.4,0-3.9,1.9-3.3,4.3L207,501.4c0.6,2.6,3.1,4.7,5.5,4.7h264.8c2.5,0,3.9-2.1,3.2-4.7
			l-61.4-219.3C418.4,279.7,416,277.8,413.6,277.8z"/>
		<path class="st27" d="M197.4,499.3l131.9-0.7c0.3,0,0.7,0.4,0.8,0.9l2.1,10.1c0.1,0.5-0.1,0.9-0.4,0.9H199.8
			c-0.3,0-0.7-0.4-0.8-0.9l-1.9-9.3C197,499.7,197.1,499.3,197.4,499.3z"/>
		<g>
			<path class="st26" d="M214.4,499.2l-17,0.1c-0.3,0-0.5,0.4-0.4,0.9l1.9,9.3c0.1,0.5,0.5,0.9,0.8,0.9h10.3
				C211.3,506.8,212.8,503,214.4,499.2z"/>
			<path class="st26" d="M332.2,509.6l-2.1-10.1c-0.1-0.5-0.5-0.9-0.8-0.9l-42.5,0.2c-1.1,3.8-2.4,7.7-3.9,11.7h48.9
				C332.2,510.5,332.3,510.1,332.2,509.6z"/>
		</g>
		<path class="st29" d="M543.4,500.8l-214.8-2.2c-4.4,0-4.4,11.9,0,11.9h214.8C545.7,510.5,545.7,500.8,543.4,500.8z"/>
		<polygon class="st30" points="413.3,285.3 163.8,285.3 210.2,490.6 468.6,490.6 		"/>
		<polygon class="st31" points="410,289.8 166,289.8 211.4,490.6 464.2,490.6 		"/>
		<polygon class="st32" points="380.1,289.8 285.8,289.8 227.3,490.6 344.1,490.6 		"/>
		
			<ellipse transform="matrix(0.676 -0.7369 0.7369 0.676 -250.025 332.6048)" class="st33" cx="253.2" cy="450.6" rx="31.1" ry="36.9"/>
		
			<ellipse transform="matrix(0.676 -0.7369 0.7369 0.676 -225.0126 389.4899)" class="st33" cx="330.4" cy="450.6" rx="31.1" ry="36.9"/>
		
			<ellipse transform="matrix(0.676 -0.7369 0.7369 0.676 -200.6048 445.0023)" class="st33" cx="405.7" cy="450.6" rx="31.1" ry="36.9"/>
		<g>
			<polygon class="st28" points="359,408.9 427.4,408.9 399.5,305.3 331.1,305.3 			"/>
			<polygon class="st28" points="284.8,408.9 354.9,408.9 327,305.3 256.9,305.3 			"/>
			<polygon class="st28" points="252.8,305.3 179.7,305.3 203.1,408.9 280.7,408.9 			"/>
		</g>
		<g>
			<path class="st34" d="M312.4,353.8c-1.1-1.1-3.1-8.8-3.1-8.8l-2.4,2.1l2.4,9.9l6.5,4.7C317.4,357.8,313.5,354.9,312.4,353.8z"/>
			<path class="st35" d="M346.5,401.2h-56.6c0,0,0-22.4,1-26.9c0.9-4.5,17.6-10.4,17.6-10.4s18.9,6.8,19.7,7.2
				C328.9,371.6,346.5,401.2,346.5,401.2z"/>
			<g>
				<path class="st36" d="M332.3,377.7c-0.9-1.4-1.7-2.7-2.3-3.8c-9.5,1.4-24.2,3-39.4,2.5c0,0.4-0.1,0.8-0.1,1.2
					C303.7,378,321.4,377.9,332.3,377.7z"/>
				<path class="st36" d="M328.1,371.2c-0.2-0.1-2.4-1-5.2-2c-7.4,0.4-16.7,0.6-26.5,0.1c-0.5,0.3-1.1,0.6-1.6,0.9
					c11.8,0.7,25.3,1.2,33.7,1.4C328.3,371.4,328.2,371.2,328.1,371.2z"/>
				<path class="st36" d="M341.4,392.7c-0.6-1.1-1.3-2.2-2-3.4c-10,0.4-30.5,1.1-49.4,0.4c0,0.8,0,1.6,0,2.3
					C306,392.7,331.7,392.7,341.4,392.7z"/>
				<path class="st36" d="M336.7,384.8c-0.3-0.4-0.5-0.8-0.8-1.3c-16.1,0.6-33-0.5-45.7-1.8c0,1-0.1,2.1-0.1,3.2
					C304.1,385.1,322.9,385.2,336.7,384.8z"/>
				<path class="st36" d="M343.5,396.3c-19.1,1.7-39.9,0.7-53.6-0.4c0,1.5,0,2.7,0,3.6c15.2-0.3,39.3-0.9,54.4-2
					C344.1,397.2,343.8,396.7,343.5,396.3z"/>
			</g>
			<path class="st37" d="M317.7,367.3c-4.7-1.7-9.3-3.3-9.3-3.3s-4,1.4-8.1,3.3c3.4,6.6,8.1,12.6,13.7,12.7
				C319.1,380.1,319.2,374,317.7,367.3z"/>
			<path class="st38" d="M316.4,367.1l-0.1-0.4c-4.1-1.5-7.8-2.8-7.8-2.8s-3,1-6.5,2.6c0.5,1.1,4.8,10.3,10.6,10.5
				C318.7,377.3,316.4,367.1,316.4,367.1z"/>
			<path class="st39" d="M308.5,349.7l-8.4,1.8l3,14.7c0,0,4.4,4.2,7.2,4.1c2.9-0.1,4.7-4,4.7-4L308.5,349.7z"/>
			<path class="st34" d="M311.7,339.1c0,0,2.8-2.9-1-9.4c-3.8-6.5-3.6-2.2-3.6-2.2s-0.8-5.3-7.1-8.4c-4.7-2.3-3.9,1.6-3.1,4.1
				c-0.9-1.6-2.7-3.8-6.2-3.2c-5.9,1-2.7,4.2-2.7,4.2s-2.7-2-5.5,3.6c-3,5.9,4,5.6,4,5.6s-3.1,0.2-1.8,7.7c1.3,7.8,5.9,4.9,5.9,4.9
				s-1,11.1,8.8,9.7l6.9-6.7c4.4,6.5,7.3,2.7,7.3,2.7s2.7-1.2,2.1-6.4C315.2,340.3,311.7,339.1,311.7,339.1z"/>
			<path class="st38" d="M297.3,347.4c-1,0.9,2.7,10.8,3.6,11.7c0.9,0.9,3.9,4.8,5.1,5c1.2,0.2,9.7-1.1,9.7-2.3
				c0-0.5-0.2-4.1-2.6-5.6c-2.7-1.7-3.5-7.7-3.8-8.6c-0.5-1.5-2.9-10.7-4.7-13.7c-2.1-3.5-10.8-2-10.1-0.3
				C299.2,345,297.3,347.4,297.3,347.4z"/>
			<path class="st34" d="M297.1,337.6c0,0,4.6-1.1,4.9-0.2c0.3,0.9,0.7,2,0.7,2.7c0,0.7-4.1,0.9-4.5,0.6
				C297.8,340.3,297.1,337.6,297.1,337.6z"/>
			<path class="st34" d="M303.5,337.1c0,0,4.6-1.1,4.9-0.2c0.3,0.9,0.7,2,0.7,2.7c0,0.7-4.1,0.9-4.5,0.6S303.5,337.1,303.5,337.1z"
				/>
			<path class="st34" d="M305.8,363.8c-0.3-2.8-1.7-5.8-3.6-7.9c-0.4-0.4-0.7-0.8-0.8-1.1c-0.3-0.9-3-9.2-4.1-12.7
				c0.8,4.1-0.5,4.3-0.5,4.3c-1,0.9,3.2,11.8,4.1,12.7c0.8,0.9,3.6,4.4,4.9,4.9L305.8,363.8z"/>
			<path class="st40" d="M296.3,341.9l14.2-1c0,0,4,9.4,0.3,9.4c-3.7,0-5.6-7.4-5.6-7.4h-0.8c0,0,2.5,7.8-1.7,7.8
				S296.3,341.9,296.3,341.9z"/>
			<g>
				<polygon class="st41" points="310.4,342.6 305.1,343.2 305.2,343.7 310.7,343.6 				"/>
				<polygon class="st41" points="310.9,344.2 305.5,344.5 305.6,345 311.2,345.1 				"/>
				<polygon class="st41" points="310.9,345.8 306.3,345.8 306.4,346.3 311.2,346.5 				"/>
				<polygon class="st41" points="311.3,347 306.7,347.1 306.8,347.6 311.6,347.7 				"/>
				<polygon class="st41" points="308.7,348.3 310.9,348.4 311.1,348.8 308.9,348.9 				"/>
			</g>
			<path class="st39" d="M305.1,342.8c1.6,2.5,5.3,10,5.2,10.6c-0.1,0.5-3.4,0.5-3.4,0.5l-3-11L305.1,342.8z"/>
			<polygon class="st40" points="296.3,341.9 292.5,342.9 293.1,344.6 297.6,344.7 			"/>
			<path class="st38" d="M298,349.3c-2.9-5.7-5.7-10.7-6.3-5.7c-0.6,4.9,6,9.8,6.5,8.5C298.8,350.8,298,349.3,298,349.3z"/>
			<path class="st39" d="M296.9,349.7c-0.6,0-1.2-0.7-1.5-1.6c-0.2-0.8-0.1-1.4,0.3-1.6c-1.4-2.5-2.6-4.1-2.9-1.6
				c-0.4,3,3.7,6.1,4,5.3C297,350,297,349.9,296.9,349.7C297,349.7,297,349.7,296.9,349.7z"/>
			<path class="st42" d="M320.2,392.6c0,0,7.3-4,1.8-23.7c-0.4-0.2-0.9-0.3-1.4-0.5c4.9,17.2-0.2,21.1-1.1,22.3
				c-2-0.9-13.7-4.4-22.4-21.8c-0.3,0.2-0.7,0.4-1,0.6C306,389.2,320.2,392.6,320.2,392.6z"/>
			<path class="st42" d="M318.3,395.6c0.7,2.4,2.5,4.3,4.2,4.3s2.4-1.9,1.8-4.3c-0.7-2.4-2.5-4.3-4.2-4.3S317.6,393.3,318.3,395.6z"
				/>
			<path class="st37" d="M304.2,354.7l6.1-0.5c0,0,0.8,2.4,0.7,2.8c-0.1,0.4-3.2,2.2-4.5,2C305.3,358.6,304.2,354.7,304.2,354.7z"/>
			<path class="st39" d="M312.3,360c-0.3-0.7-0.7-1.2-0.9-1.1c-0.2,0.1,0.2,0.7,0.5,1.4c0.3,0.7,0.4,1.1,0.6,1.1
				C312.7,361.3,312.6,360.7,312.3,360z"/>
			<g>
				<polygon class="st41" points="303.2,342.6 297.9,343.2 298,343.7 303.6,343.6 				"/>
				<polygon class="st41" points="303.7,344.2 298.3,344.5 298.4,345 304,345.1 				"/>
				<polygon class="st41" points="303.8,345.8 299.1,345.8 299.2,346.3 304,346.5 				"/>
				<polygon class="st41" points="304.1,347 299.5,347.1 299.6,347.6 304.4,347.7 				"/>
				<polygon class="st41" points="300.7,348.3 303.6,348.4 303.7,348.8 300.8,348.9 				"/>
			</g>
			<path class="st43" d="M323.8,394.4c-0.6-1.2-1.4-2.2-2.4-2.7c0.7,3.3-0.2,5.9-2.2,6c0.7,1,1.6,1.8,2.4,2.1
				C321.7,397.3,322.5,395.3,323.8,394.4z"/>
			<g>
				<path class="st43" d="M323.3,387.5c0.5-1.9,0.9-4.5,0.6-8c-0.5-0.7-0.9-1.3-1.4-1.9c0.3,3.2,0.2,5.6-0.2,7.5
					C322.7,385.9,323,386.7,323.3,387.5z"/>
				<path class="st43" d="M307.9,385.3c-0.1-0.6-0.1-1.2-0.1-1.8c-1.6-1.4-3.2-3.2-4.8-5.3c-0.1,0.5-0.2,1-0.3,1.6
					C304.4,381.9,306.2,383.8,307.9,385.3z"/>
			</g>
		</g>
		<g>
			<path class="st44" d="M217.6,325.6c-0.2,0.1-0.4,0.2-0.7,0.3c-2.6,1.2-3.5,5.2-2.2,9.6l0,0l14.4-1.1l-2.6-3.9
				C224,326.4,220.3,324.4,217.6,325.6z"/>
			<path class="st45" d="M222.9,354.2c-5.9-2-9.8-9.9-11.3-14.1c-1.5-4.2,7.1-7.2,7.1-7.2C223.2,340.5,224.9,347.7,222.9,354.2z"/>
			<path class="st45" d="M233.1,350.2c2.6-1.7,1.8-8.1,1-11.6c-0.8-3.5-6.8-5.9-6.8-5.9C227.7,339,229.4,344.9,233.1,350.2z"/>
			<path class="st44" d="M270.6,401.2H214c0,0,0-22.4,1-26.9c0.9-4.5,17.6-10.4,17.6-10.4s18.9,6.8,19.7,7.2
				C253,371.6,270.6,401.2,270.6,401.2z"/>
			<path class="st37" d="M234.4,371.2l1.5-0.5l5.4,7.9c1.8-2.1,1.6-6.6,0.5-11.4c-4.7-1.7-9.3-3.3-9.3-3.3s-4,1.4-8.1,3.3
				c2.6,5.1,6.1,9.8,10.1,11.8L234.4,371.2z"/>
			<path class="st39" d="M232.6,349.7l-8.4,1.8l3,14.7c0,0,4.4,4.2,7.2,4.1c2.9-0.1,4.7-4,4.7-4L232.6,349.7z"/>
			<path class="st38" d="M221.4,347.4c-1,0.9,2.7,10.8,3.6,11.7c0.9,0.9,3.9,4.8,5.1,5c1.2,0.2,9.7-1.1,9.7-2.3
				c0-0.5-0.2-4.1-2.6-5.6c-2.7-1.7-3.5-7.7-3.8-8.6c-0.5-1.5-2.9-10.7-4.7-13.7c-2.1-3.5-10.8-2-10.1-0.3
				C223.3,345,221.4,347.4,221.4,347.4z"/>
			<path class="st45" d="M221.2,337.6c0,0,4.6-1.1,4.9-0.2c0.3,0.9,0.7,2,0.7,2.7c0,0.7-4.1,0.9-4.5,0.6S221.2,337.6,221.2,337.6z"
				/>
			<path class="st45" d="M227.6,337.1c0,0,4.6-1.1,4.9-0.2c0.3,0.9,0.7,2,0.7,2.7c0,0.7-4.1,0.9-4.5,0.6S227.6,337.1,227.6,337.1z"
				/>
			<path class="st38" d="M222.1,349.3c-2.9-5.7-5.7-10.7-6.3-5.7c-0.6,4.9,6,9.8,6.5,8.5C222.9,350.8,222.1,349.3,222.1,349.3z"/>
			<path class="st39" d="M221,349.7c-0.6,0-1.2-0.7-1.5-1.6c-0.2-0.8-0.1-1.4,0.3-1.6c-1.4-2.5-2.6-4.1-2.9-1.6
				c-0.4,3,3.7,6.1,4,5.3C221.1,350,221.1,349.9,221,349.7C221.1,349.7,221.1,349.7,221,349.7z"/>
			<path class="st42" d="M241,387.7c0,0,5.5-7.6,4.8-19c-0.4-0.2-0.9-0.3-1.3-0.5c0.3,10.4-4.2,17.2-4.2,17.2s-9.8-5.2-16.7-17.7
				c-0.4,0.2-0.7,0.3-1,0.5C229.6,382,241,387.7,241,387.7z"/>
			<polygon class="st42" points="241.4,390.2 239.5,385.3 240.7,385.2 242.2,390 244.4,389.7 244.9,391.5 243,391.8 245.4,398.3 
				244.3,398.5 242,391.8 239.7,391.9 239.6,390.4 			"/>
			<polygon class="st45" points="235.4,359.1 232.6,356.3 234.7,356 			"/>
			<path class="st45" d="M232.8,354.4c0,0,2.2,2.1,6.4,0.9c0,0-6-2.5-6.1-2.6C232.3,352.5,230.9,353.3,232.8,354.4z"/>
			<path class="st45" d="M232.3,354.6c0,0-0.8,2.5-5.7,2.4c0,0,4.1-3.8,4.2-3.9C231.4,352.7,233.3,353.1,232.3,354.6z"/>
			<path class="st39" d="M228.9,342.8c1.6,2.5,5,9.8,4.9,10.3s-2.9,0-2.9,0l-2.8-10.2L228.9,342.8z"/>
			<path class="st45" d="M225.7,343.6c-0.3,0-0.6,0.1-0.8,0.2c0.6,1.5,1.5,2.7,2,2.6c0.5,0,0.5-1.3,0-2.7
				C226.5,343.6,226.1,343.6,225.7,343.6z"/>
			<path class="st45" d="M230.6,343.3c-0.2,0-0.5,0.1-0.7,0.1c0.5,1.5,1.3,2.7,1.8,2.7c0.4,0,0.3-1.2-0.2-2.7
				C231.2,343.3,230.9,343.3,230.6,343.3z"/>
		</g>
		<g>
			<g>
				<path class="st46" d="M379.2,327.3c0.6,1.9-1.1,2.7-2.8,1.8s-8.4-1.2-11.1-0.9c-2.7,0.3-4.6,4.4-4.2,6.4
					c0.4,2,3.7,8.8,11.4,20.7c3.8-3.9,12.9,0.5,7.6-17.8C384.2,337.8,382.6,330.9,379.2,327.3z"/>
				<path class="st47" d="M419.4,401.2h-56.6c0,0,0-22.4,1-26.9c0.9-4.5,17.6-10.4,17.6-10.4s18.9,6.8,19.7,7.2
					C401.8,371.6,419.4,401.2,419.4,401.2z"/>
				<g>
					<path class="st48" d="M389.2,366.7l0.1,0.4c0,0,3.4,12.2-2.7,12c-5.8-0.2-11.2-11.4-11.7-12.5c-0.5,0.2-1.1,0.5-1.7,0.8
						c3.4,6.6,8.1,12.6,13.7,12.7c5.1,0.1,5.2-6,3.7-12.7C390.2,367.1,389.7,366.9,389.2,366.7z"/>
				</g>
				<path class="st39" d="M381.4,349.7l-8.4,1.8l3,14.7c0,0,4.4,4.2,7.2,4.1c2.9-0.1,4.7-4,4.7-4L381.4,349.7z"/>
				<path class="st49" d="M386.9,363.4c0,0,0,5.5-3.2,5.5c-3.4,0-8.6-6.5-8.6-6.5l0.4,3.7c0,0,5,6.2,6.8,7.1c1.9,1,2.3-1.1,2.3-1.1
					s1.2,1.9,2.5,1.3c1.3-0.6,1.2-7,1.2-7L386.9,363.4z"/>
				<path class="st38" d="M370.3,347.4c-1,0.9,2.7,10.8,3.6,11.7c0.9,0.9,3.9,4.8,5.1,5c1.2,0.2,9.7-1.1,9.7-2.3
					c0-0.5-0.2-4.1-2.6-5.6c-2.7-1.7-3.5-7.7-3.8-8.6c-0.5-1.5-2.9-10.7-4.7-13.7c-2.1-3.5-10.8-2-10.1-0.3
					C372.1,345,370.3,347.4,370.3,347.4z"/>
				<path class="st46" d="M370.8,340.3c0,0,4.7-0.6,4.9-0.1c0.2,0.5,0.5,1.1,0.4,1.5c-0.1,0.4-4.2,0.5-4.6,0.3
					C371.2,341.8,370.8,340.3,370.8,340.3z"/>
				<path class="st46" d="M377.2,340c0,0,4.7-0.6,4.9-0.1c0.2,0.5,0.5,1.1,0.4,1.5c-0.1,0.4-4.2,0.5-4.6,0.3
					C377.6,341.5,377.2,340,377.2,340z"/>
				<path class="st38" d="M371,349.3c-2.9-5.7-5.7-10.7-6.3-5.7c-0.6,4.9,6,9.8,6.5,8.5C371.7,350.8,371,349.3,371,349.3z"/>
				<path class="st39" d="M369.9,349.7c-0.6,0-1.2-0.7-1.5-1.6c-0.2-0.8-0.1-1.4,0.3-1.6c-1.4-2.5-2.6-4.1-2.9-1.6
					c-0.4,3,3.7,6.1,4,5.3C370,350,370,349.9,369.9,349.7C370,349.7,369.9,349.7,369.9,349.7z"/>
				<path class="st39" d="M385.3,360.3c-0.3-0.7-0.7-1.2-0.9-1.1c-0.2,0.1,0.2,0.7,0.5,1.4s0.4,1.1,0.6,1.1
					C385.7,361.6,385.6,361,385.3,360.3z"/>
				<path class="st50" d="M375.4,345.2c-0.3-1.2-0.9-2.2-1.4-2.2s-0.5,1-0.1,2.2c0.3,1.2,0.9,2.2,1.4,2.2S375.7,346.4,375.4,345.2z"
					/>
				<path class="st50" d="M381,344.7c-0.4-1.2-1-2.1-1.4-2.1c-0.4,0-0.4,0.9-0.1,2.1c0.4,1.2,1,2.1,1.4,2.1
					C381.3,346.8,381.3,345.9,381,344.7z"/>
				<path class="st39" d="M378,342.8c1.6,2.5,5.3,10,5.2,10.6c-0.1,0.5-3.4,0.5-3.4,0.5l-3-11L378,342.8z"/>
				<g>
					<path class="st39" d="M378.1,356.2c-0.1,0-0.3-0.2-0.4-0.4c-0.1-0.2-0.1-0.5,0.1-0.5c2.3-0.7,4.4-0.8,6.4-0.5
						c0.2,0,0.4,0.2,0.4,0.5c0,0.2,0,0.5-0.2,0.4C382.2,355,380.2,355.1,378.1,356.2C378.1,356.2,378.1,356.2,378.1,356.2z"/>
				</g>
				<path class="st39" d="M382.6,356.2c0-0.1-0.6-0.5-1.2-0.5c-0.6,0-1,0.4-1,0.6c0,0.1,0.5,0,1.1,0
					C382.2,356.3,382.7,356.4,382.6,356.2z"/>
				<path class="st47" d="M366.2,311.5c-1.4-4.6-15.3,6.7-13.8,8.2c1.6,1.6,3.8,3.8,9.8,15.7l12.7-7.9
					C372.7,325.6,366.6,312.8,366.2,311.5z"/>
				<path class="st51" d="M363,339.6c2.1-8.5,14.6-10.2,14.6-10.2s3.1-4,2.3-5.3c-2.8-4.4-24.4,9.1-22.5,15
					C358.2,341.5,363,339.6,363,339.6z"/>
				<path class="st52" d="M363.8,320.1c-3.1,1.3-5.3,3.6-6.5,6.3c0.8,1.4,1.8,3,2.8,5.1c0.9-2.6,2.4-5.1,4.6-6.9
					c2-1.7,4.2-2.6,6.4-2.9c-0.5-0.8-0.9-1.7-1.3-2.6C367.8,319,365.7,319.3,363.8,320.1z"/>
				<polygon class="st48" points="385,380.3 384.3,376.5 387.1,376.4 389.2,381.5 387.3,382.8 				"/>
				<path class="st48" d="M387.5,380.9l-1,0.1c1.8,6.5,5.4,20.2,5.4,20.2h3.6L387.5,380.9z"/>
			</g>
			<g>
				<path class="st53" d="M397.3,393c0.4,1.4,1.5,2.6,2.5,2.6c1,0,1.5-1.1,1.1-2.6c-0.4-1.4-1.5-2.6-2.5-2.6
					C397.4,390.4,396.9,391.5,397.3,393z"/>
				<polygon class="st53" points="398.1,388.6 397.7,388.6 398.5,391.4 398.9,391.4 				"/>
				<polygon class="st54" points="394.7,384.4 396.8,389.6 399.6,389.6 398.8,384.4 				"/>
				<polygon class="st55" points="396,384.4 397.7,389.6 398.7,389.6 397.5,384.4 				"/>
			</g>
		</g>
		<path class="st56" d="M273.5,461.9c-2.8-9.3-13.3-12.6-14.8-13.1c1.1-0.4,2.1-1.1,2.8-2c1.3-1.6,2.2-4.3,0.8-9
			c-2.1-6.9-6.2-9.6-10.8-10.5l-0.4-1.4c-0.2-0.5-0.7-1-1.2-1h-1.6c-0.5,0-0.8,0.4-0.7,1l0.3,1c-0.4,0-0.8,0-1.1,0
			c-0.8,0-1.6,0-2.4,0.1l-0.3-1.1c-0.2-0.5-0.7-1-1.2-1h-1.6c-0.5,0-0.8,0.4-0.7,1l0.4,1.5c-0.9,0.1-1.6,0.3-1.8,0.3
			c-0.4,0.1-0.6,0.3-0.5,0.5c0,0.1,0.1,0.2,0.1,0.3c0.1,0.3,0.7,1.7,1.1,3c0.2,0.6,0.4,1.2,0.4,1.7c0.3,1.7,3,10.9,3.9,14.2
			c0.4,1.9,0.7,3,1.1,4.1c0.3,0.9,0.5,1.7,0.9,2.9l3.9,13.3c0.4,1.2,0.9,2.3,2.4,2.3c0.3,0,0.7,0,1.3,0l0.5,1.7c0.2,0.5,0.7,1,1.2,1
			h1.6c0.5,0,0.8-0.4,0.7-1l-0.5-1.8c1.3,0,2.5-0.1,3.5-0.1l0.5,1.8c0.2,0.5,0.7,1,1.2,1h1.6c0.5,0,0.8-0.4,0.7-1l-0.6-1.9
			C268.4,469.7,275.5,468.7,273.5,461.9z M251.6,447.5c-0.1-0.4-0.1-0.8-0.4-1.7l-2-6.8c-0.5-1.7-1.2-4.3-1.8-6.4l-1-3.8
			c5.5,0,11.1,0.4,13.9,9.7c2.7,9.2-7.6,9.7-8,9.7C251.8,448,251.8,447.9,251.6,447.5z M259.9,468.8c-1.1,0-1.7,0.2-2.1-1
			c-0.3-1.1-1.7-4.9-2.1-6.3c-0.4-1.4-0.4-1.6-0.7-2.8c-0.3-1.1-2-5.8-2.3-7.1c-0.2-0.7-0.3-1.1-0.4-1.4c-0.1-0.2-0.1-0.3-0.1-0.5
			c2.6-0.1,5,0.3,7.2,1.1c3.9,1.4,8.2,4.4,10.2,10.9C270.9,465.9,268.1,468.8,259.9,468.8z"/>
		<path class="st30" d="M341,433.2c-7-4.9-9.9-4.7-11.5-4.8c-1.8-0.2-3.7-0.3-6.4-0.3c-0.8,0-1.7-0.1-2.5-0.1c-0.1,0-0.2,0-0.4,0
			l0-0.1h-3.5c-0.1,0-0.1,0-0.2,0h-4.6c-1.4,0-2.1,1.1-1.7,2.4l1.4,4.6c0.4,1.4,1.8,2.4,3.2,2.4h4.2c0.4,1.1,0.7,2.1,0.9,2.9
			c0.8,2.7,2.4,8.4,3.7,12.6c0.7,2.3,1.9,6.1,2.9,9.3h-4.3c-1.4,0-2.1,1.1-1.7,2.4l1.4,4.6c0.4,1.4,1.8,2.4,3.2,2.4h8.3l0,0l3.4,0
			c1.7,0,9.7-0.5,13.5-3.5c3.7-3,3.9-11.9,2.3-17.3C350.7,445.3,348,438.1,341,433.2z M346.4,467.7c-2,1.2-4.4,1.8-7.5,1.6
			c-0.6-2.1-1.2-4.1-1.7-6c-1-3.2-2-6.8-2.3-8.1c-0.8-2.7-2.1-5.8-3.2-9.6c-0.5-1.8-1.6-5.4-2.3-8.5l-1.4-5.7c3,0.1,5.8,0.8,8.5,2.1
			c4.5,2.3,10,7.2,13,17.3C352.4,460.9,349.8,465.7,346.4,467.7z"/>
		<path class="st13" d="M425.1,458.5c-0.9,0-6.9-0.2-9.2-0.2c-2.2,0-9,0.1-11.2,0.1c-1.1,0.1-2.3,0-3.2-0.1l-1.5-0.1
			c-0.1-0.1-0.1-0.1-0.1-0.3c0-0.2-0.1-0.5-0.1-1.1c0-0.3,0-0.8-0.1-1.6c-0.2-1.8-0.7-4.7-0.8-5.6l-0.1-0.6l5.2-1.7
			c0.7-0.2,0.9-1.1,0.5-1.9l-0.9-1.5c-0.5-0.8-1.5-1.3-2.2-1l-3.1,1l-0.3-3c-0.2-1.8-1-12.2-1-12.7c0-0.4-0.2-0.5-0.4-0.5
			c-0.1,0-0.3,0-0.5,0c-1.4,0-1.8-0.1-2.3-0.1c-0.5,0-1.6-0.3-1.5,0.4l0,0.1c0.1,0.8,0.5,3.3,0.6,3.9l0.8,6.9
			c0.1,0.8,0.3,3.7,0.4,6.4l-6.1,2c-0.7,0.2-0.9,1.1-0.5,1.9l0.9,1.5c0.5,0.8,1.5,1.3,2.2,1l3.8-1.2c0,0.7,0,0.9-0.1,0.2
			c0.2,2,1,6.1,1.1,7.3c0.2,1.4,0.8,9.9,0.9,10.9c0.1,1.2-0.1,1.6,1.2,1.6c1,0,3.1-0.1,4.6-0.1c0.5,0,1,0,1.4,0.1
			c0.2,0,0.6,0.1,1,0.1c2.4,0,8.1-0.4,9.8-0.4c2.1,0,10.8,0.2,12,0.2c1,0,1.4-0.1,1.3-0.5c0-0.1-0.1-0.2-0.1-0.3
			c-0.1-0.7-1.3-5.8-1.4-7.2l-0.3-2.8c0-0.2,0.1-0.5,0-0.7C425.8,458.7,425.7,458.5,425.1,458.5z"/>
		<g>
			<g>
				<path class="st47" d="M361.3,478.2C361.3,478.2,361.3,478.2,361.3,478.2c-0.6-0.2-1-0.7-1.1-1.3l-3.5-19.5
					c-0.1-0.5,0.1-1,0.6-1.3c0.5-0.3,1.1-0.3,1.6-0.1l17.5,8.8c0.5,0.3,0.9,0.7,1,1.2c0.1,0.5-0.1,1-0.5,1.3l-3.8,3l4,4.3
					c0.7,0.7,0.7,1.8,0,2.4l-4.6,3.9c-0.4,0.3-0.9,0.4-1.4,0.3c-0.5-0.1-1-0.4-1.3-0.8l-3.4-4.9l-3.4,2.6
					C362.5,478.4,361.9,478.4,361.3,478.2z M360.2,459.7l2.7,14l2.6-2c0.4-0.3,0.8-0.4,1.3-0.3c0.5,0.1,0.9,0.3,1.2,0.7l3.4,4.7
					l1.9-1.6l-3.9-4.3c-0.3-0.3-0.5-0.8-0.4-1.2c0-0.4,0.2-0.8,0.6-1l3.2-2.5L360.2,459.7z"/>
			</g>
			<polygon class="st57" points="375.7,475.6 370.6,470 375.6,466.1 358.2,457.1 361.9,476.7 366.6,473 371.1,479.4 			"/>
		</g>
		<g>
			<polygon class="st13" points="485.6,233.2 448.2,292.9 453,231.8 			"/>
			<path class="st58" d="M277.4,254.7c-22.3-3.4-28.4-118.4-21.2-129.3c7.3-10.9,248.3-31,256-21.8c7.7,9.2-13.8,150.7-22.1,152.6
				C481.9,258.2,282.5,255.5,277.4,254.7z"/>
			<g>
				<path class="st33" d="M320.1,137.6c0.5,0.5,0.7,0.8,0.7,1.1c0.1,0.6-0.5,0.9-1.1,1.3c-0.8,0.6-3.5,3.3-4.3,3.8
					c-0.2,0.1-0.3,0.2-0.4,0.2c-0.6,0-0.9-0.6-1.3-1c-0.6-0.5-1.7-2-3.7-1.8c-2,0.1-3.3,2.1-2.4,10c0.9,7.7,3.5,9.9,4.9,9.9
					c1.4-0.1,2.1-0.5,2.4-2.4c0.2-1,0.7-1.3,1.3-1.4c0.5,0,1,0.2,1.4,0.2c0.8,0.2,5.1,0.9,6.7,1.1c0.6,0.1,0.9,0.6,0.9,1.3
					c0,0.3,0.1,0.5,0,0.8c0,0.6-0.1,1.2-0.3,1.9c-0.7,3-2.9,9.1-11.3,9.4c-5.7,0.2-15.2-3.9-17.3-19.9c-2.1-16.5,6.3-19.6,11.4-20
					C316,131.5,318.7,136.2,320.1,137.6z"/>
				<path class="st33" d="M347.1,148.2c1.7-0.1,4.7-0.3,7.2-0.5c1.5-0.1,3-0.2,4.6-0.3l-0.1-1.7c-0.1-1-0.2-2.2-0.3-3.2
					c-0.2-2-0.6-12.5-0.6-13.3c0-0.5,0.3-0.6,0.6-0.6c0.2,0,0.5,0,0.7,0c0.3,0,0.6,0,0.9,0c0.3,0,0.8-0.1,1.1,0
					c0.4,0.1,0.6,0.2,0.7,0.5c0,0.1,0,0.3-0.1,0.5c0,0.7-0.1,2.5-0.2,5.1c-0.1,2.7,0.7,15.1,0.9,17.6c0.2,2.6,0.4,11,0.5,12
					c0,0.6,0,1.5,0.1,2.2c0,0.7,0.2,1.2,0.2,1.6c0.1,0.2,0.1,0.3,0.1,0.3c0,0.4-0.3,0.3-0.6,0.4c-0.3,0.1-1.5,0.2-2.2,0.2
					c-0.4,0-0.5-0.3-0.5-0.5c0.1,1.5-0.3-5.1-0.6-8.1c-0.2-1.2-0.3-3.8-0.5-6l-0.3-4.2l-4.9,0.4c-2.6,0.2-5.6,0.4-7,0.5l-5.6,0.3
					c-1.1,0.1-2.2,0.1-3.5,0.1c0,0.4,0.1,0.9,0.1,1.5c0,0.9,0.1,2.1,0.2,3.4c0.1,1.3,0.3,3.6,0.5,6c0.2,2.3,0.5,4.6,0.8,5.7
					c0.1,0.3,0.2,0.6,0.2,0.8c0.1,1.3-1.1,1.1-1.9,1.2c-1.1,0-3,0.1-4.6,0.3c-1.6,0.2-1.4-1-1.7-3.3c-0.2-2.2-1.7-15.6-2-19
					c-0.4-3.6-1.2-13.2-1.4-14.6c-0.2-1.7,0.3-1.8,0.9-1.9c0.4,0,0.8,0,1.3,0c0.4,0,0.8-0.1,1.3-0.2c0.3-0.1,0.6-0.1,1-0.1
					c1-0.1,2,0,2.9-0.1c1.1-0.1,1,1,1.1,1.7c0.1,0.7,0.3,3.7,0.4,6.8l0.3,5.6l0.1,3.3l3.5-0.1C343,148.3,345.4,148.3,347.1,148.2z"
					/>
				<path class="st33" d="M405.3,146.6c0.1,4.1-0.5,21.6-17.8,22.3c-8.5,0.3-12.9-4.9-15.5-10.3c-1.5-3.2-2.5-6.8-2.9-11
					c-0.7-10.5,6.8-20.9,15.3-21.5c3.6-0.3,6.8-0.7,9.2,0.6C402.8,131.4,405.2,143.4,405.3,146.6z M399.8,146.9
					c-0.4-9.8-5.9-18-13.8-17.4c-2.4,0.2-4.2,0.1-6,2.2c-1.8,1.9-7.5,7.1-6.9,16.3c0.6,9.1,4.5,18.2,13.8,17.8
					C396.6,165.3,400.2,156.6,399.8,146.9z"/>
				<path class="st33" d="M426.6,127.1c-6.8,0.5-9.7,3.9-9.6,7.6c0.1,3.8,4.1,5.8,7.6,7.2c3.6,1.3,15.1,2.5,15.2,13
					c0.1,10.4-11.1,12.3-17,12.5c-5.8,0.2-10.5-3.2-11.1-3.6c-0.5-0.4-0.6-0.7-0.4-1c0.2-0.3,0.9-1.8,1.4-1.8c0.1,0,0.1,0,0.1,0
					c0.4,0,0.3,0,1.4,0.9c1.1,0.9,5.3,2.5,7.8,2.4c2.4-0.1,10.2-0.7,10.1-7.5c0-3.4-5.6-5-10.9-7.4c-5.3-2.3-10.3-5.3-10.5-12
					c-0.3-8.1,8.7-13.2,15.7-13.8c7-0.6,11.7,3.1,12.4,3.5c0.5,0.3,0.7,0.5,0.7,0.8c0,0.2-0.1,0.3-0.3,0.5c-0.4,0.3-1.3,2-1.9,2
					c-0.3,0-0.6-0.1-0.9-0.2l-0.5-0.3C435.2,129.4,430.6,126.8,426.6,127.1z"/>
				<path class="st33" d="M447.9,142.1c0-4.8-0.4-5.3-0.4-9.1c0-3.8,0.1-7.6,0.2-9.4c0-1.2,0.6-1.5,1.4-1.5c0.4,0,0.7,0,1.1,0
					c1.1-0.1,2.4,0,5.8-0.3c3.2-0.3,8.4-1.3,11.3-1.5c3.1-0.2,7.1-0.3,8.5-0.4c1.5-0.1,1.6,0.5,1.6,1.7c0,1.4,0.2,3,0.2,5
					c0,0.6,0,1.3-0.3,2.5c-0.1,0.8-0.6,1-1.1,1.1c-0.5,0-1.2-0.2-1.7-0.2c-1.1-0.1-3.4,0-6.6,0.3c-1.9,0.1-3.8,0.1-5.7,0.3
					c-0.7,0-1.3,0.1-2,0.2c-1.1,0.1-2.5,0.3-3.9,0.4c-1.8,0.1-3.5,0.2-3.9,0.2c-0.8,0.1-0.7,0.4-0.7,1.3c0,1-0.2,3.9-0.2,6.1l0,3.7
					c0,0.7,0,1.3,0.1,2c0.6,0,1.2,0,2-0.1c1.2,0,3.1-0.1,5.1-0.2c2.7-0.2,6.1-0.6,7.9-0.7c1.8-0.1,2.8,0,3.7,0c0.8,0,1,0.3,1,0.7
					c0,0.4-0.2,0.8-0.2,2c0,1.2,0,1.8,0,3.4c0,0.8-0.2,1-0.7,1c-0.3,0-0.8-0.1-1.3-0.1c-1.2,0.1-2.8,0-7.4,0.3
					c-4.7,0.2-7.8,0.9-8.6,0.9c-0.5,0-0.8,0-0.9,0c-0.2,0-0.4,0-0.4,0l0,6.2c0.2,0,0.5,0,0.8-0.1c0.5,0,1.2-0.1,2-0.2
					c1.7-0.1,5.3-0.3,8.6-0.5c2.4-0.1,6.3-0.2,9.3-0.3c1.3-0.1,2.5-0.2,3.1-0.2c1.3-0.1,1.5,0.5,1.5,1.2c0,0.4-0.1,0.9-0.1,1.3
					c0,1.2-0.1,2.6-0.2,4.4c0,1.7-1.2,1.4-3.6,1.5c-2.4,0.1-9.5,0.3-12.9,0.4c-3.5,0.1-10.4,0.7-11.3,0.7c-0.1,0-0.3,0.1-0.4,0.1
					c-0.6,0-0.6-0.5-0.6-1c-0.1-0.7-0.1-1.5-0.1-2.2c0-0.7-0.1-1.3-0.1-2.6l0-8.4C447.4,148.1,447.9,146.9,447.9,142.1z"/>
			</g>
			<g>
				<path class="st33" d="M311.1,236c-1.1,0.1-1.8,0.1-2.1,0.1c-0.5,0-0.7-0.1-0.7-0.4c0-0.2,0.2-0.4,0.2-0.7c0.2-0.6,1.8-5,2.1-6
					c0.2-1.1,1.2-3.5,1.6-4.7c0.4-1.1,0.8-1.7,0.6-2.4c-0.3-0.7-1-4-1.6-5.5c-0.6-1.7-1-3.7-1.6-5.7c-0.6-1.9-3.8-12.6-4.3-14.3
					c-0.4-1.7-1.1-2.7-1.1-3.4c0-0.7,0.9-0.8,1.7-0.9c0.2-0.1,0.5-0.1,0.9-0.1c0.3,0,0.9,0,1.4,0c1.1-0.1,1.9-0.1,2.4-0.1
					c1,0.1,0.6,0.6,0.8,1.3c0.2,0.7,0.8,3.1,1.4,5.4c0.4,1.6,1.1,4.4,1.7,6c0.4,1.2,1.1,3.1,1.6,4.9c0.3,1,0.6,2,0.9,3.1l0.5-1.6
					c0.3-1,0.6-2,0.9-2.8l0.7-2l0.6-1.7c0.1-0.3,0.3-0.9,0.6-1.7c0.3-0.9,0.6-1.6,0.8-1.9c0.7-1.5,1.8-5.4,2.4-7.7
					c0.5-2.3,1.5-2,2.3-2.1c0.5,0,2.7-0.2,3.8-0.1c1,0.1,1.3,0.3,1.3,0.6c0,0.2-0.1,0.3-0.1,0.6c-0.3,0.8-1.7,5.3-2.7,7.8
					c-1,2.5-4.5,11.9-5.5,14.8c-0.9,3-5.5,14.2-5.7,15.2c-0.4,1.1-0.8,3.7-0.9,4.6c-0.2,0.9-0.5,1.3-0.9,1.3l-1.5,0
					C313.1,236,312.3,236,311.1,236z"/>
				<path class="st33" d="M369.4,211.7c-0.3,4.6-2.6,24.4-19.4,24.5c-8.2,0.1-12-6-13.9-12.2c-1.1-3.7-1.7-7.8-1.7-12.6
					c0.4-11.9,8.6-23.3,16.9-23.7c3.5-0.2,6.6-0.5,8.8,1C368.4,194.4,369.6,208.1,369.4,211.7z M364,211.9
					c0.6-11.1-3.9-20.5-11.5-20.2c-2.3,0.1-4.1,0-6,2.2c-1.9,2.1-7.9,7.8-8.3,18.2c-0.3,10.2,2.5,20.7,11.6,20.6
					C359.2,232.6,363.4,222.8,364,211.9z"/>
				<path class="st33" d="M378.6,216c-0.5,7.9,2.3,13.5,6.5,13.5c4.4-0.1,5.8-3.6,5.9-5.4c0.1-1.7,1.1-10.4,1.5-15.6
					c0.3-3.6,1.1-9.8,1.4-14.3c0.2-2.1,0.2-3.8,0.1-4.9c-0.1-0.6-0.1-1-0.1-1.3c0.1-1.8,1.4-1.5,2-1.5c0.8,0,3.3-0.2,4.9-0.3
					c1.6-0.1,1.4,0.5,1.4,1.7c0,0.8,0,2.3-0.2,3.9c-0.1,0.8-0.1,1.6-0.2,2.3c-0.4,2.5-0.3,11.1-1.5,24.3c-1.2,12.8-8.6,16.7-15,16.8
					c-6.3,0.1-8.9-5.6-9.7-9c-0.5-2.2-0.5-7.4-0.2-11.5c0.1-2.3,0.3-4.3,0.5-5.2c0.2-1,0.3-3.4,0.5-6.4c0.3-4.8,0.5-10.7,0.5-12.7
					c0-0.4,0-0.8,0-1.1c0.1-2,0.9-1.9,1.4-1.7c0.3,0,0.5,0,0.7,0c0.4,0,0.7-0.2,1.2-0.2c0.3,0,0.3,0.3,0.3,0.8
					C380.9,183,379.3,206,378.6,216z"/>
				<path class="st33" d="M412.6,212.2c0,3.1-1.4,20.2-1.6,21.9c-0.1,1.7-2,1.7-2.9,1.7c-0.8,0-0.7-1.1-0.7-1.9c0-0.5,0-1.8,0.1-3.2
					c0.1-0.7,0.1-1.4,0.2-2.1c0.2-1.5,2-18.8,2.9-30.2c0.4-5,0.7-8.7,0.6-9.7c0-0.6,0-1.1,0.1-1.5c0.1-1.5,0.6-1.7,1.4-1.7
					c0.9-0.1,7.7-0.2,10.7-0.4c3.1-0.2,14,0.1,13.3,6.6c-0.9,8.7-13.2,10.5-16.8,10.6c-0.6,0-0.9,0-1,0c0.6,0.6,17.9,27.1,20.2,29.6
					c1.4,1.5,1.7,2.2,1.7,2.6c0,0.2-0.3,0.4-0.4,0.5c-0.5,0.3-1.9,0.4-3.3,0.4c-3,0-2.8-0.4-3.3-1.9c-0.5-1.1-6.3-9.1-9.3-13.9
					c-1.5-2.4-4.2-6.2-6.6-9.5l-4.3-6l-0.5,2.9C412.8,208.7,412.6,210.7,412.6,212.2z M417.4,199.5c2-0.2,4.5-0.4,6.5-0.8
					c3.9-0.8,6.9-1.9,7.3-5.1c0.3-3.2-5.6-4.4-8.5-4.3c-1.8,0-3.6,0.1-5.1,0.2l-2.4,0.1l-1.3,10.1
					C415.1,199.7,416.2,199.6,417.4,199.5z"/>
				<path class="st33" d="M488.1,188.8c0.2,0.2,0.3,0.5,0.2,0.7c0,0.3-0.3,0.6-0.6,1.1c-0.7,0.7-2.4,3-3.4,4
					c-0.8,0.9-0.9,1.3-1.8,1.4c-0.8,0-7.1-7.5-12.9-7.3c-2.1,0.1-5.1,0.4-5.7,5.5c-0.6,5,4.7,6.9,8.1,8.2
					c3.5,1.4,14.8,4.7,12.7,19.6c-1.4,9.7-10.4,14.1-22.9,14.2c-12.2,0.1-15.2-7.2-15.8-7.9c-0.2-0.3-0.2-0.5-0.2-0.7
					c0-0.3,0.3-0.5,0.7-0.9c0.7-0.8,2.3-2.3,3.2-3.1c0.2-0.2,0.4-0.3,0.6-0.3c0.5,0,0.9,0.8,1.4,1.3c0.7,0.8,3.7,4.2,9.6,4.1
					c2.7,0,7.3-0.7,7.8-5.1c0.6-4.5-3.9-8.3-7-10.6c-3.2-2.3-13.2-5.3-12.1-14.8c1.1-9.7,13.1-16.4,18.9-16.7
					C481.1,180.7,487.5,188.2,488.1,188.8z"/>
			</g>
		</g>
	</g>
	<g>
		<circle class="st3" cx="229.2" cy="39.2" r="36.3"/>
		<path class="st10" d="M207.8,35.9c-5.5,0-10.5,4.2-14.1,11.1c3.5,16,17.5,28,34.4,28.5c0-0.1,0-0.3,0-0.4
			C228.1,53.4,219,35.9,207.8,35.9z"/>
		<path class="st8" d="M229.7,75c-20.1,0-36.3-16.3-36.3-36.3c0-9.9,4-18.9,10.4-25.4c-6.7,6.6-10.9,15.8-10.9,25.9
			c0,20.1,16.3,36.3,36.3,36.3c10.1,0,19.3-4.2,25.9-10.9C248.6,71,239.6,75,229.7,75z"/>
		
			<linearGradient id="SVGID_00000144325483116237778940000005919175871382124181_" gradientUnits="userSpaceOnUse" x1="217.9859" y1="89.2653" x2="244.469" y2="-17.522">
			<stop  offset="0" style="stop-color:#FFC135"/>
			<stop  offset="1" style="stop-color:#FFDB7B"/>
		</linearGradient>
		<circle style="fill:url(#SVGID_00000144325483116237778940000005919175871382124181_);" cx="231.1" cy="36.3" r="36.3"/>
		<path class="st6" d="M245,22.8c3.3-4.9,6.8-9.3,10.6-13.4c-4.8-4.3-10.7-7.4-17.3-8.7c-2.5,5.5-5.5,11-9.1,16.3
			c-9.3,13.8-20.8,24.4-32.4,30.8c4.5,13.5,16.7,23.4,31.4,24.6C228,57.5,233.7,39.5,245,22.8z"/>
		
			<linearGradient id="SVGID_00000160164060345757037630000009376157458926012809_" gradientUnits="userSpaceOnUse" x1="208.4243" y1="36.3365" x2="251.7276" y2="36.3365">
			<stop  offset="0" style="stop-color:#FFC135"/>
			<stop  offset="1" style="stop-color:#FFDB7B"/>
		</linearGradient>
		<path style="fill:url(#SVGID_00000160164060345757037630000009376157458926012809_);" d="M234.7,13c-7-1.2-9.2,0.5-10.6,1.2
			c-1.5,0.7-3.1,1.6-5.4,3.1c-0.6,0.4-1.4,0.8-2,1.2c-0.1,0.1-0.2,0.1-0.3,0.2l0-0.1l-2.8,1.8c-0.1,0-0.1,0.1-0.2,0.1l-3.8,2.4
			c-1.1,0.7-1.5,2.2-0.8,3.3l2.2,3.8c0.7,1.1,2.1,1.5,3.2,0.8l3.4-2.2c0.6,0.9,1.1,1.7,1.5,2.4c1.3,2.3,4.1,7.1,6.1,10.7
			c1.1,1.9,3,5.1,4.6,7.8l-3.5,2.3c-1.1,0.7-1.5,2.2-0.8,3.3l2.2,3.8c0.7,1.1,2.1,1.5,3.2,0.8l6.8-4.4l0,0l2.8-1.8
			c1.4-0.9,7.8-5.6,10.2-10.6c2.3-4.9,0.2-13.9-2.4-18.5C245.6,20,241.6,14.2,234.7,13z M247.6,44.6c-1.3,2.2-3.2,4.1-5.7,5.5
			c-1-1.8-2-3.5-2.9-5.1c-1.6-2.7-3.3-5.7-3.9-6.9c-1.3-2.3-3.2-4.7-5-7.9c-0.9-1.5-2.6-4.5-4-7.2l-2.6-4.9c2.5-1.5,4.9-2.3,7.5-2.3
			c4.3-0.1,10,2,14.9,10.5C250.9,34.7,249.9,40.8,247.6,44.6z"/>
		<path class="st8" d="M235.2,12.5c-7-1.2-9.2,0.5-10.6,1.2c-1.5,0.7-3.1,1.6-5.4,3.1c-0.6,0.4-1.4,0.8-2,1.2
			c-0.1,0.1-0.2,0.1-0.3,0.2l0-0.1l-2.8,1.8c-0.1,0-0.1,0.1-0.2,0.1l-3.8,2.4c-1.1,0.7-1.5,2.2-0.8,3.3l2.2,3.8
			c0.7,1.1,2.1,1.5,3.2,0.8l3.4-2.2c0.6,0.9,1.1,1.7,1.5,2.4c1.3,2.3,4.1,7.1,6.1,10.7c1.1,1.9,3,5.1,4.6,7.8l-3.5,2.3
			c-1.1,0.7-1.5,2.2-0.8,3.3l2.2,3.8c0.7,1.1,2.1,1.5,3.2,0.8l6.8-4.4l0,0l2.8-1.8c1.4-0.9,7.8-5.6,10.2-10.6
			c2.3-4.9,0.2-13.9-2.4-18.5C246.2,19.5,242.2,13.7,235.2,12.5z M248.2,44.1c-1.3,2.2-3.2,4.1-5.7,5.5c-1-1.8-2-3.5-2.9-5.1
			c-1.6-2.7-3.3-5.7-3.9-6.9c-1.3-2.3-3.2-4.7-5-7.9c-0.9-1.5-2.6-4.5-4-7.2l-2.6-4.9c2.5-1.5,4.9-2.3,7.5-2.3
			c4.3-0.1,10,2,14.9,10.5C251.4,34.2,250.4,40.4,248.2,44.1z"/>
		<path class="st2" d="M231.1,0c-20.1,0-36.3,16.3-36.3,36.3s16.3,36.3,36.3,36.3s36.3-16.3,36.3-36.3S251.2,0,231.1,0z M231.4,70.6
			c-19.1,0-34.7-15.5-34.7-34.7c0-19.1,15.5-34.7,34.7-34.7c19.1,0,34.7,15.5,34.7,34.7C266.1,55.1,250.6,70.6,231.4,70.6z"/>
		<path class="st4" d="M216.5,69.5c1.6-0.1,3.1-0.3,4.6-0.5c-11.3-3.5-20.1-12.7-23.1-24.2c-0.7,0.1-1.4,0.3-2,0.4
			C198.7,56.1,206.4,65.1,216.5,69.5z"/>
		<path class="st4" d="M240.3,1.2c-0.2,0.4-0.3,0.8-0.4,1.2c13.4,3.4,23.7,14.6,25.8,28.5c0.4-0.3,0.8-0.7,1.1-1.1
			C264.3,15.9,253.9,4.7,240.3,1.2z"/>
		<path class="st3" d="M231.5,3.4c-17.8,0-32.2,14.4-32.2,32.2c0,17.8,14.4,32.2,32.2,32.2c17.8,0,32.2-14.4,32.2-32.2
			C263.7,17.8,249.3,3.4,231.5,3.4z M231.6,66.9c-17.5,0-31.6-14-31.7-31.4C199.9,18.1,214,4,231.5,4c17.5,0,31.6,14,31.7,31.4
			C263.2,52.7,249,66.8,231.6,66.9z"/>
	</g>
	<g>
		<polygon class="st13" points="374.5,137.1 374.5,137.1 374.5,137.1 		"/>
		<path class="st13" d="M352,110c0,0.2,0.1,0.3,0.1,0.5c0.1,0.2,0.2,0.4,0.2,0.6c0.2,0.6,0.4,1.1,0.6,1.7c0.1,0.2,0.2,0.4,0.3,0.6
			c0.2,0.5,0.4,1.1,0.7,1.6c0.1,0.2,0.2,0.4,0.3,0.6c0.3,0.5,0.5,1.1,0.8,1.6c0.1,0.2,0.2,0.3,0.3,0.5c0.3,0.5,0.6,1.1,0.9,1.6
			c0.1,0.1,0.2,0.3,0.3,0.4c0.3,0.5,0.7,1.1,1,1.6c0.1,0.1,0.2,0.2,0.2,0.3c0.4,0.6,0.7,1.1,1.1,1.6c0.1,0.1,0.1,0.2,0.2,0.2
			c0.4,0.6,0.8,1.1,1.3,1.6c0,0.1,0.1,0.1,0.1,0.2c0.5,0.6,0.9,1.1,1.4,1.6c0,0,0.1,0.1,0.1,0.1c0.5,0.6,1,1.1,1.5,1.6c0,0,0,0,0,0
			c0.5,0.5,1.1,1.1,1.6,1.6c0,0,0,0,0,0c2.9,2.6,6,4.9,9.4,6.8c0,0,0,0,0,0c3.3,1.8,6.8,3.2,10.5,4.2c1.3,0.5,2.7,1,4.1,1.3
			c0.7,0.2,1.5,0.4,2.2,0.6c7.5,1.7,15.6,1.6,23.6-0.6c2.1-0.6,4-1.3,5.9-2.1c1.3-0.6,2.6-1.2,3.8-1.9c1.8-1,3.6-2.1,5.3-3.3
			c1.3-0.9,2.5-1.9,3.6-2.9c0.2-0.2,0.4-0.4,0.7-0.6c0,0,0,0,0,0c1.7-1.5,3.2-3.2,4.6-4.9c0,0,0,0,0,0c1.4-1.7,2.7-3.5,3.9-5.4
			c0,0,0,0,0-0.1c0.5-0.9,1.1-1.8,1.6-2.8c0-0.1,0.1-0.1,0.1-0.2c0.1-0.2,0.2-0.4,0.3-0.6l0,0c0,0,0,0,0,0c0.4-0.8,0.8-1.6,1.1-2.4
			c0,0,0,0,0,0c0-0.1,0-0.1,0.1-0.2c0.1-0.2,0.2-0.5,0.3-0.7c0.3-0.7,0.5-1.3,0.8-2c0-0.1,0.1-0.2,0.1-0.3c0-0.1,0.1-0.3,0.1-0.4
			c0.3-0.9,0.6-1.9,0.9-2.8c0-0.1,0.1-0.3,0.1-0.4c0.2-0.8,0.4-1.7,0.6-2.5c0-0.1,0-0.2,0.1-0.3c0-0.1,0-0.2,0.1-0.3
			c0.2-1,0.3-1.9,0.5-2.9C420.1,104,384.5,106.8,352,110z"/>
	</g>
	<g>
		<g>
			
				<ellipse transform="matrix(0.2928 -0.9562 0.9562 0.2928 203.8913 430.7003)" class="st3" cx="393.1" cy="77.5" rx="47.9" ry="47.9"/>
			<path class="st10" d="M389.7,49.2c-2-7-9.1-11.8-19.1-14c-19.1,10.1-29.4,32.3-23.9,53.9c0.2,0,0.3-0.1,0.5-0.1
				C374.7,81.3,393.7,63.4,389.7,49.2z"/>
			<path class="st8" d="M347.8,91c-7.2-25.5,7.6-52,33.1-59.1c12.6-3.5,25.4-1.7,36,4.1c-10.8-6.2-23.9-8.2-36.8-4.5
				C354.6,38.6,339.8,65,347,90.5c3.6,12.9,12.2,23.1,23.1,29C359.6,113.5,351.3,103.5,347.8,91z"/>
			
				<linearGradient id="SVGID_00000166666495989549544030000011866419188791449745_" gradientUnits="userSpaceOnUse" x1="530.2761" y1="2284.9399" x2="565.2365" y2="2143.9697" gradientTransform="matrix(0.2713 0.9625 -0.9625 0.2713 2380.8721 -1049.0968)">
				<stop  offset="0" style="stop-color:#FFC135"/>
				<stop  offset="1" style="stop-color:#FFDB7B"/>
			</linearGradient>
			<circle style="fill:url(#SVGID_00000166666495989549544030000011866419188791449745_);" cx="397.5" cy="78.9" r="47.9"/>
			<path class="st6" d="M419.6,91.7c7.4,2.4,14.3,5.3,20.8,8.6c3.8-7.6,5.6-16.3,4.9-25.2c-7.8-1.2-15.9-3-24-5.7
				c-20.9-6.9-38.5-17.7-50.8-30.1c-15.5,10.6-23.7,29.6-20,48.7C369.4,82.5,394.3,83.3,419.6,91.7z"/>
			
				<linearGradient id="SVGID_00000139259273862471205000000001183765390748899762_" gradientUnits="userSpaceOnUse" x1="517.6534" y1="2215.0684" x2="574.8185" y2="2215.0684" gradientTransform="matrix(0.2713 0.9625 -0.9625 0.2713 2380.8721 -1049.0968)">
				<stop  offset="0" style="stop-color:#FFC135"/>
				<stop  offset="1" style="stop-color:#FFDB7B"/>
			</linearGradient>
			<path style="fill:url(#SVGID_00000139259273862471205000000001183765390748899762_);" d="M428.4,75.1c-1-9.3-4-11.5-5.3-13
				c-1.5-1.6-3.2-3.3-5.8-5.7c-0.7-0.6-1.5-1.5-2.3-2.2c-0.1-0.1-0.2-0.2-0.3-0.3l0.1-0.1l-3.3-3c-0.1-0.1-0.1-0.1-0.2-0.2l-4.5-4
				c-1.3-1.2-3.3-1.1-4.5,0.2l-4.1,4.2c-1.2,1.2-1.1,3.2,0.2,4.3l4,3.6c-0.9,1-1.8,2-2.5,2.7c-2.4,2.5-7.6,7.7-11.3,11.6
				c-2,2.1-5.4,5.6-8.2,8.7l-4.1-3.7c-1.3-1.2-3.3-1.1-4.5,0.2l-4.1,4.2c-1.2,1.2-1.1,3.2,0.2,4.3l8,7.1l0,0l3.2,2.9
				c1.6,1.4,9.9,8,17.1,9.1c7.1,1.1,17.8-4.7,22.6-9.7C423.4,91.5,429.4,84.3,428.4,75.1z M392.9,102.9c-3.3-0.9-6.3-2.6-9-5.3
				c1.9-2,3.7-3.8,5.5-5.5c2.9-3,6.1-6.2,7.3-7.4c2.4-2.5,4.9-5.7,8.2-9.2c1.6-1.7,4.8-5,7.8-7.7l5.4-5.1c2.8,2.6,4.6,5.4,5.6,8.7
				c1.6,5.4,1.1,13.4-8,22.7C406.6,103.4,398.5,104.4,392.9,102.9z"/>
			<path class="st8" d="M429.2,75.6c-1-9.3-4-11.5-5.3-13c-1.5-1.6-3.2-3.3-5.8-5.7c-0.7-0.6-1.5-1.5-2.3-2.2
				c-0.1-0.1-0.2-0.2-0.3-0.3l0.1-0.1l-3.3-3c-0.1-0.1-0.1-0.1-0.2-0.2l-4.5-4c-1.3-1.2-3.3-1.1-4.5,0.2l-4.1,4.2
				c-1.2,1.2-1.1,3.2,0.2,4.3l4,3.6c-0.9,1-1.8,2-2.5,2.7c-2.4,2.5-7.6,7.7-11.3,11.6c-2,2.1-5.4,5.6-8.2,8.7l-4.1-3.7
				c-1.3-1.2-3.3-1.1-4.5,0.2l-4.1,4.2c-1.2,1.2-1.1,3.2,0.2,4.3l8,7.1l0,0l3.2,2.9c1.6,1.4,9.9,8,17.1,9.1
				c7.1,1.1,17.8-4.7,22.6-9.7C424.2,92,430.1,84.9,429.2,75.6z M393.6,103.4c-3.3-0.9-6.3-2.6-9-5.3c1.9-2,3.7-3.8,5.5-5.5
				c2.9-3,6.1-6.2,7.3-7.4c2.4-2.5,4.9-5.7,8.2-9.2c1.6-1.7,4.8-5,7.8-7.7l5.4-5.1c2.8,2.6,4.6,5.4,5.6,8.7c1.6,5.4,1.1,13.4-8,22.7
				C407.4,103.9,399.2,104.9,393.6,103.4z"/>
			<path class="st2" d="M443.6,65.9c-7.2-25.5-33.7-40.3-59.1-33.1C359,40,344.2,66.4,351.3,91.9c7.2,25.5,33.7,40.3,59.1,33.1
				C436,117.9,450.8,91.4,443.6,65.9z M354,91.6c-6.9-24.3,7.3-49.6,31.6-56.4c24.3-6.9,49.6,7.3,56.4,31.6
				c6.9,24.3-7.3,49.6-31.6,56.4C386.1,130.1,360.8,115.9,354,91.6z"/>
			<path class="st4" d="M350,72.2c0.7,2,1.5,3.8,2.2,5.6c0.5-15.6,9-30.1,22.5-38.1c-0.4-0.8-0.8-1.6-1.2-2.4
				C360.7,44.8,352.1,57.8,350,72.2z"/>
			<path class="st4" d="M445.4,78c-0.6-0.1-1.1-0.1-1.7-0.1c0.5,18.3-10,35.4-26.9,43c0.6,0.4,1.2,0.7,1.8,1
				C435.3,113.8,445.8,96.5,445.4,78z"/>
			<path class="st3" d="M439.5,67.7c-6.4-22.6-29.8-35.7-52.4-29.4c-22.6,6.4-35.7,29.8-29.4,52.4c6.4,22.6,29.8,35.7,52.4,29.4
				C432.7,113.7,445.9,90.3,439.5,67.7z M358.8,90.4c-6.3-22.2,6.5-45.2,28.6-51.5c22.1-6.3,45,6.6,51.3,28.8
				c6.3,22.2-6.5,45.2-28.6,51.5C388.1,125.5,365.1,112.6,358.8,90.4z"/>
		</g>
	</g>
</g>
</svg>
