<svg id="Layer_1" data-name="Layer 1" xmlns="http://www.w3.org/2000/svg" viewBox="0 0 111.23 207.61"><defs><style>.cls-1{fill:#3182cf;}</style></defs><path class="cls-1" d="M1.69,192.55h.76c5,10.35,30.73,15.06,52.72,15.06s47.76-4.71,52.72-15.06h.84V122.67a8.76,8.76,0,0,0,2.5-5.89c0-4.65-4.23-8.47-11-11.43V7.5A7.51,7.51,0,0,0,92.78,0H63.34a7.51,7.51,0,0,0-7.5,7.5V98.13h-.23c-2.41,0-4.84.05-7.26.16L43.12,51.65a3.26,3.26,0,0,0-1.66-2.53L29.77,23.36A2.81,2.81,0,0,0,27,21.46a2.81,2.81,0,0,0-2.26,2.46L19.09,51.58a2.65,2.65,0,0,0-.54.63l-.07.1A3.29,3.29,0,0,0,18,54.47l5.27,47C9.79,104.53,0,109.7,0,116.78a8.27,8.27,0,0,0,1.61,4.78v68.19Zm98.59-81.11c3.82,2,5.34,3.93,5.34,5.34s-1.52,3.33-5.34,5.33ZM60.15,7.5a3.19,3.19,0,0,1,3.19-3.19H92.78A3.19,3.19,0,0,1,96,7.5V29.55H84.1a1.72,1.72,0,0,0-1.36.6,1.9,1.9,0,0,0-.45,1.26,1.77,1.77,0,0,0,1.81,1.86H96v7.58H84.1a1.71,1.71,0,0,0-1.36.59,2,2,0,0,0-.45,1.27,1.78,1.78,0,0,0,1.81,1.86H96v7.57H84.1a1.72,1.72,0,0,0-1.36.6A2,2,0,0,0,82.29,54a1.78,1.78,0,0,0,1.81,1.86H96v7.57H75.53a1.72,1.72,0,0,0-1.36.6,2,2,0,0,0-.45,1.27,1.78,1.78,0,0,0,1.81,1.86H96v7.57H84.1a1.72,1.72,0,0,0-1.36.6,1.92,1.92,0,0,0-.45,1.26,1.77,1.77,0,0,0,1.81,1.86H96V86H84.1a1.71,1.71,0,0,0-1.36.59,2,2,0,0,0-.45,1.27,1.78,1.78,0,0,0,1.81,1.86H96v7.58H84.1a1.71,1.71,0,0,0-1.36.59,2,2,0,0,0-.45,1.27,1.78,1.78,0,0,0,1.81,1.86H96v7.57H75.53a1.72,1.72,0,0,0-1.36.6,1.94,1.94,0,0,0-.45,1.26,1.78,1.78,0,0,0,1.81,1.87H96v7.57H84.1a1.72,1.72,0,0,0-1.36.6,1.9,1.9,0,0,0-.45,1.26,1.78,1.78,0,0,0,1.81,1.87H96v.43c-1,.29-2,.61-3.06.92a51.92,51.92,0,0,1-8.47,2.1h0a8.49,8.49,0,0,0-2.28.62,159.78,159.78,0,0,1-22,1.86Zm-4.54,96.24h.23v26.07h-.23c-1.25,0-2.49,0-3.73-.05L49,103.87C51.16,103.79,53.37,103.74,55.61,103.74Zm0,31.68c19.64,0,37.73-3.27,47.51-8.55l0,62.45c-.45,2.9-5.68,6.08-14,8.5-9.28,2.7-21.32,4.19-33.92,4.19s-24.63-1.49-33.92-4.19c-8.31-2.42-13.55-5.6-14-8.52l0-62.93C16.69,131.88,35.54,135.42,55.61,135.42ZM26.86,40.09l4.45-.5,4,8.76L24.93,49.51ZM38.27,55.32l8.31,74.06c-3-.15-6.29-.39-10.25-.74a7.13,7.13,0,0,0-1.7-.21h-.37l-1.19-.1-1.51-.14L23.57,57Zm-19.45,53c1.6-.49,3.33-.93,5.11-1.34l2.25,20.08c-2.61-.54-5.09-1.16-7.36-1.86-9.74-3-13.21-6.31-13.21-8.43S9.08,111.31,18.82,108.33Z"/><path class="cls-1" d="M78.06,23.23a6.19,6.19,0,1,0-2.4-.49A6.18,6.18,0,0,0,78.06,23.23Zm0-8a1.87,1.87,0,1,1-1.87,1.87A1.87,1.87,0,0,1,78.06,15.18Z"/></svg>