<?xml version="1.0" encoding="utf-8"?>
<!-- Generator: Adobe Illustrator 26.5.0, SVG Export Plug-In . SVG Version: 6.00 Build 0)  -->
<svg version="1.1" id="ffc6174e-1e40-46a6-931e-56b63d1699b5"
	 xmlns="http://www.w3.org/2000/svg" xmlns:xlink="http://www.w3.org/1999/xlink" x="0px" y="0px" viewBox="0 0 255.4 91"
	 style="enable-background:new 0 0 255.4 91;" xml:space="preserve">
<style type="text/css">
	.st0{fill:#FFFFFF;}
	.st1{fill:#399CFC;}
</style>
<path class="st0" d="M17.4,68.9c1.2,0,2.4-0.2,3.5-0.6c1-0.4,2-0.9,2.8-1.6c0.7-0.6,1.4-1.4,1.8-2.2c0.4-0.8,0.7-1.6,0.7-2.5
	c0-1.3-0.4-2.7-1.1-3.8c-0.8-1.1-1.7-2.1-2.9-2.9c-1.3-0.9-2.6-1.7-4-2.3c-1.5-0.7-3-1.4-4.6-2.2s-3.1-1.5-4.6-2.4
	c-1.5-0.8-2.8-1.8-4-3c-1.2-1.1-2.2-2.5-2.9-3.9C0.6,38.1,0.7,34.3,2.2,31c0.8-1.6,2-3,3.3-4.2c1.5-1.2,3.2-2.1,5.1-2.7
	c2.1-0.7,4.3-1,6.4-1c1.5,0,2.9,0.1,4.4,0.3c1.4,0.2,2.7,0.7,4,1.3c1.4,0.7,2.7,1.6,3.9,2.7c1.5,1.4,2.8,2.9,4,4.6l-3.4,3
	c-1.5-2.6-3.5-4.8-6-6.5c-3.2-2.1-7.1-2.7-10.7-1.6c-1,0.3-1.9,0.7-2.8,1.3c-0.7,0.5-1.4,1.2-1.8,2C8.2,30.7,8,31.6,8,32.5
	c0,1.3,0.4,2.6,1.2,3.7c0.9,1.1,1.9,2.1,3.1,2.9c1.4,0.9,2.9,1.7,4.4,2.3l5,2.2c1.7,0.7,3.4,1.5,5,2.4c1.6,0.8,3,1.8,4.4,3
	c1.3,1.1,2.3,2.4,3.1,3.9c0.8,1.6,1.2,3.4,1.2,5.2c0,1.9-0.4,3.8-1.1,5.6c-0.8,1.7-1.9,3.2-3.3,4.4c-1.7,1.4-3.6,2.4-5.6,3
	c-2.6,0.8-5.2,1.2-7.9,1.1c-1.4,0-2.8-0.1-4.2-0.3c-1.5-0.2-3-0.7-4.4-1.3c-1.6-0.7-3.1-1.6-4.4-2.7C2.7,66.5,1.2,65,0,63.3l3.9-3.4
	c1,1.4,2.1,2.8,3.3,4.1c0.9,1.1,2,2,3.2,2.8c1,0.7,2.2,1.2,3.3,1.6C14.9,68.7,16.1,68.9,17.4,68.9z"/>
<path class="st0" d="M44.8,24.1h9.3v9.6c0.9-1.2,2-2.4,3.1-3.6c1.2-1.3,2.4-2.4,3.8-3.4c1.4-1,3-1.9,4.6-2.5c1.8-0.7,3.7-1,5.6-1
	c2.6,0,5.2,0.6,7.6,1.8c2.2,1.2,4.2,2.8,5.8,4.8c1.7,2.1,2.9,4.5,3.7,7c0.9,2.8,1.3,5.7,1.3,8.6c0,3.6-0.5,7.3-1.6,10.8
	c-1,3.1-2.5,6-4.6,8.5c-2,2.4-4.4,4.3-7.2,5.6c-3,1.4-6.3,2.1-9.6,2c-1.2,0-2.4-0.1-3.6-0.2c-1.1-0.1-2.1-0.3-3.2-0.6
	c-1-0.3-1.9-0.7-2.9-1.1c-1-0.5-1.9-1-2.9-1.6V91h-9.3L44.8,24.1z M54.1,58.4c0,1.4,0.3,2.8,0.9,4c0.6,1.3,1.5,2.4,2.6,3.3
	c1.2,1,2.5,1.7,4,2.2c1.6,0.5,3.3,0.8,5.1,0.8c1.8,0,3.5-0.5,5-1.3c1.6-1,3-2.2,4-3.8c1.2-1.8,2.1-3.8,2.7-5.8c0.7-2.5,1-5,1-7.5
	c0-3.1-0.3-6.1-0.9-9.1c-0.5-2.3-1.4-4.5-2.6-6.5c-0.9-1.6-2.3-2.9-3.9-3.8c-1.5-0.8-3.2-1.3-4.9-1.3c-1.3,0-2.7,0.2-3.9,0.6
	c-1.2,0.4-2.4,1-3.5,1.7c-1.1,0.7-2.1,1.5-3,2.4c-0.9,0.9-1.8,1.9-2.5,2.9L54.1,58.4z"/>
<path class="st0" d="M133.1,71.1h-9.4v-6.4c-1.1,0.9-2.2,1.7-3.2,2.6c-1.1,0.9-2.2,1.7-3.4,2.4c-1.3,0.7-2.7,1.3-4.1,1.8
	c-1.7,0.5-3.5,0.7-5.2,0.7c-1.7,0-3.4-0.3-5-0.9c-2.9-1.1-5.1-3.4-6.2-6.2c-0.6-1.5-0.9-3.1-0.8-4.6c0-1.9,0.4-3.8,1.2-5.5
	c0.8-1.6,1.9-3.1,3.3-4.4c1.5-1.3,3.1-2.5,4.8-3.4c1.9-1,3.9-1.9,5.9-2.7c2.1-0.8,4.2-1.5,6.4-2.1l6.4-1.7v-2.9
	c0-1.8-0.2-3.6-0.7-5.4c-0.3-1.3-1-2.5-1.8-3.6c-0.8-0.9-1.7-1.6-2.9-2c-1.2-0.4-2.5-0.6-3.8-0.6c-1.3,0-2.6,0.2-3.9,0.6
	c-0.9,0.3-1.7,0.9-2.3,1.6c-0.6,0.7-0.9,1.4-1.2,2.3c-0.2,0.9-0.3,1.7-0.3,2.6c0,0.8-0.1,1.6-0.2,2.4c-0.1,0.7-0.4,1.4-0.7,2
	c-0.3,0.6-0.8,1.1-1.4,1.4c-2,1-4.3,0.5-5.8-1.1c-0.9-1.1-1.4-2.5-1.4-3.9c0-1.6,0.6-3.1,1.6-4.4c1.1-1.4,2.5-2.6,4.1-3.5
	c1.9-1.1,3.9-1.8,6.1-2.3c2.4-0.6,4.8-0.9,7.3-0.9c2.6-0.1,5.3,0.3,7.8,0.9c1.9,0.5,3.6,1.3,5.2,2.5c1.3,1,2.3,2.4,2.9,4
	c0.6,1.6,0.9,3.4,0.9,5.2L133.1,71.1z M123.8,43.7c-2.2,0.7-4.3,1.5-6.3,2.3c-2.1,0.9-4.2,2-6.1,3.2c-1.7,1.1-3.3,2.4-4.6,4
	c-1.1,1.3-1.8,2.9-1.8,4.7c0,1.1,0.2,2.2,0.6,3.2c0.4,1,1,1.9,1.7,2.7c0.7,0.8,1.5,1.4,2.4,1.9c0.9,0.5,1.9,0.7,2.9,0.7
	c1,0,2-0.1,3-0.4c1-0.3,1.9-0.7,2.8-1.1c0.9-0.5,1.8-1,2.7-1.6l2.7-2L123.8,43.7z"/>
<path class="st0" d="M145.6,24.1h9.3V33c0.9-1.3,1.9-2.6,3-3.8c1-1.1,2.1-2.2,3.3-3.1c1.1-0.9,2.2-1.6,3.5-2.2
	c1.2-0.5,2.4-0.8,3.7-0.8c1,0,1.9,0.1,2.9,0.5c0.8,0.3,1.6,0.7,2.3,1.2c0.6,0.5,1.2,1.1,1.6,1.8c0.4,0.7,0.6,1.4,0.6,2.2
	c0.1,1.3-0.4,2.6-1.4,3.4c-1.2,0.8-2.6,1.2-4,1.1c-0.8,0-1.7-0.1-2.5-0.3c-0.6-0.2-1.2-0.4-1.7-0.7c-0.5-0.3-1-0.5-1.6-0.7
	c-2.1-0.8-4.5-0.1-5.7,1.7c-1.5,1.6-2.8,3.4-3.9,5.3v32.6h-9.3L145.6,24.1z"/>
<path class="st0" d="M191,43l23.6-19h6.1l-21.1,17.2l26,29.9h-12.2L191,45.3v25.8h-9.3V2.6l6.6-2.6h2.7V43z"/>
<path class="st1" d="M238.4,39.7c1.2,0,2.4-0.2,3.6-0.5c1-0.3,1.8-0.8,2.6-1.4c0.7-0.6,1.2-1.3,1.6-2.1c0.4-0.8,0.5-1.6,0.6-2.5
	c0.1-1.9-0.7-3.8-2.2-4.9c-1.5-1.1-3.9-1.6-7.2-1.6h-4.8v-4.5l7.9-9.7l3.9-2.8l-5.3,0.7h-11.1V3.1h25.5v4.6L244.2,19l-3,1.6V21
	l2.8-0.4c1.5,0.1,2.9,0.4,4.3,1c1.4,0.6,2.6,1.3,3.7,2.3c1.1,1,1.9,2.3,2.5,3.6c0.6,1.6,1,3.3,0.9,5.1c0.1,2.2-0.4,4.3-1.3,6.3
	c-0.8,1.7-2.1,3.3-3.6,4.5c-1.6,1.2-3.4,2.1-5.4,2.6c-2.2,0.6-4.4,0.9-6.6,0.9c-1,0-2,0-3-0.1c-1-0.1-2-0.2-3-0.4s-1.9-0.4-2.8-0.6
	c-0.8-0.2-1.6-0.5-2.3-0.8l2.3-7c1.2,0.6,2.5,1,3.9,1.3C235.2,39.6,236.8,39.8,238.4,39.7z"/>
</svg>
