<svg id="ffc6174e-1e40-46a6-931e-56b63d1699b5" data-name="fcb0529a-ba17-4b21-98bb-3cb715491a57" xmlns="http://www.w3.org/2000/svg" viewBox="0 0 255.4 91"><path d="M17.37,68.86a10.08,10.08,0,0,0,3.49-.55,9.37,9.37,0,0,0,2.79-1.57,7.85,7.85,0,0,0,1.83-2.22A5.54,5.54,0,0,0,26.15,62a6.56,6.56,0,0,0-1.09-3.77A11.71,11.71,0,0,0,22.2,55.3a25.1,25.1,0,0,0-4-2.35c-1.52-.7-3-1.42-4.62-2.16s-3.1-1.54-4.61-2.4a20.21,20.21,0,0,1-4-3,13.5,13.5,0,0,1-2.86-3.92A12.59,12.59,0,0,1,2.23,31a12.78,12.78,0,0,1,3.35-4.17,15.81,15.81,0,0,1,5.08-2.73,20.11,20.11,0,0,1,6.44-1,26.75,26.75,0,0,1,4.38.33,15.15,15.15,0,0,1,4,1.26,17.52,17.52,0,0,1,3.89,2.66,30.89,30.89,0,0,1,4,4.55l-3.4,3a20.13,20.13,0,0,0-6-6.52,13.1,13.1,0,0,0-10.74-1.65A9.64,9.64,0,0,0,10.42,28,6.11,6.11,0,0,0,8.6,30,4.7,4.7,0,0,0,8,32.46a5.94,5.94,0,0,0,1.19,3.68A12.61,12.61,0,0,0,12.25,39a27.94,27.94,0,0,0,4.38,2.35l5,2.16q2.58,1.11,5,2.4a23.84,23.84,0,0,1,4.39,3,13.93,13.93,0,0,1,3.11,3.89A10.68,10.68,0,0,1,35.32,58a14.12,14.12,0,0,1-1.11,5.59A12,12,0,0,1,30.86,68a16.5,16.5,0,0,1-5.62,3,25.22,25.22,0,0,1-7.91,1.11,27.78,27.78,0,0,1-4.18-.28,18.49,18.49,0,0,1-4.38-1.27,19.86,19.86,0,0,1-4.44-2.73A24.5,24.5,0,0,1,0,63.35l3.86-3.41a40.49,40.49,0,0,0,3.27,4.12,18.31,18.31,0,0,0,3.16,2.8,11.66,11.66,0,0,0,3.35,1.57A13.41,13.41,0,0,0,17.37,68.86Z"/><path d="M44.79,24.07h9.33v9.58q1.4-1.76,3.12-3.63a25.52,25.52,0,0,1,3.84-3.43,19.79,19.79,0,0,1,4.63-2.52,15.16,15.16,0,0,1,5.57-1,16.39,16.39,0,0,1,7.58,1.79,17.68,17.68,0,0,1,5.79,4.77,22.16,22.16,0,0,1,3.72,7,27.63,27.63,0,0,1,1.31,8.61A34.44,34.44,0,0,1,88.08,56a25.44,25.44,0,0,1-4.58,8.53,20.85,20.85,0,0,1-7.25,5.62,22,22,0,0,1-9.56,2,29.34,29.34,0,0,1-3.63-.21,21.71,21.71,0,0,1-3.2-.59A18.39,18.39,0,0,1,57,70.24a25.72,25.72,0,0,1-2.86-1.59V91h-9.3Zm9.33,34.37a8.8,8.8,0,0,0,.93,4,9.89,9.89,0,0,0,2.6,3.25,12.8,12.8,0,0,0,4,2.19,15.33,15.33,0,0,0,5.07.8,9.76,9.76,0,0,0,5-1.34,12.75,12.75,0,0,0,4-3.77,19.49,19.49,0,0,0,2.71-5.85,26.78,26.78,0,0,0,1-7.55,39.64,39.64,0,0,0-.93-9.09,20.94,20.94,0,0,0-2.64-6.5A11,11,0,0,0,72,30.74a10,10,0,0,0-4.92-1.26,12.13,12.13,0,0,0-3.92.62,15.91,15.91,0,0,0-3.51,1.67,18.38,18.38,0,0,0-3,2.42,23.27,23.27,0,0,0-2.52,2.91Z"/><path d="M133.13,71.12h-9.38V64.68c-1.1.86-2.19,1.72-3.25,2.6a27.26,27.26,0,0,1-3.45,2.4,19.33,19.33,0,0,1-4.13,1.77,17.55,17.55,0,0,1-5.25.7,13.33,13.33,0,0,1-5-.9A10.57,10.57,0,0,1,96.47,65a12.47,12.47,0,0,1-.85-4.64,12,12,0,0,1,1.24-5.46,15.32,15.32,0,0,1,3.3-4.36A23.54,23.54,0,0,1,105,47.15a51.3,51.3,0,0,1,5.9-2.68c2.1-.79,4.25-1.49,6.44-2.08l6.45-1.73V37.72a19.11,19.11,0,0,0-.65-5.38,9.44,9.44,0,0,0-1.83-3.56,6.68,6.68,0,0,0-2.86-2,11.34,11.34,0,0,0-3.79-.59,10.39,10.39,0,0,0-3.86.62,6,6,0,0,0-2.35,1.62,5.77,5.77,0,0,0-1.16,2.27,11.33,11.33,0,0,0-.3,2.6,13.47,13.47,0,0,1-.21,2.37,6.23,6.23,0,0,1-.72,2,3.79,3.79,0,0,1-1.42,1.39A4.93,4.93,0,0,1,98.82,38a5.79,5.79,0,0,1-1.37-3.94A7.17,7.17,0,0,1,99,29.71a13.21,13.21,0,0,1,4.12-3.5,23.44,23.44,0,0,1,6.06-2.32,30.17,30.17,0,0,1,7.27-.85,29.52,29.52,0,0,1,7.83.9,14.2,14.2,0,0,1,5.18,2.52,9.16,9.16,0,0,1,2.86,4,14.57,14.57,0,0,1,.88,5.15ZM123.75,43.7a62.64,62.64,0,0,0-6.34,2.35,39.7,39.7,0,0,0-6.08,3.22,19.72,19.72,0,0,0-4.59,4,7.24,7.24,0,0,0-1.8,4.67,8.21,8.21,0,0,0,.64,3.24,9.45,9.45,0,0,0,1.7,2.71,8.39,8.39,0,0,0,2.42,1.85,6.17,6.17,0,0,0,2.86.7,11.3,11.3,0,0,0,3-.41,16.08,16.08,0,0,0,2.76-1.11A22.93,22.93,0,0,0,121,63.27l2.73-2Z"/><path d="M145.6,24.07h9.26V33a39,39,0,0,1,3-3.79,26.23,26.23,0,0,1,3.27-3.14,15.76,15.76,0,0,1,3.51-2.19,9,9,0,0,1,3.69-.8,8.44,8.44,0,0,1,2.86.46,7.71,7.71,0,0,1,2.29,1.24,6,6,0,0,1,1.55,1.8,4.44,4.44,0,0,1,.56,2.17,4.15,4.15,0,0,1-1.41,3.45,6.28,6.28,0,0,1-4,1.13,7.52,7.52,0,0,1-2.49-.33,17.5,17.5,0,0,1-1.73-.72c-.52-.26-1-.5-1.55-.73a4.83,4.83,0,0,0-5.73,1.73,34.49,34.49,0,0,0-3.87,5.29V71.12h-9.28Z"/><path d="M191,43l23.61-19h6.13L199.61,41.18l26,29.94H213.37L191,45.35V71.12h-9.33V2.63L188.27,0H191Z"/><path d="M238.4,39.72a11.54,11.54,0,0,0,3.6-.52,7.51,7.51,0,0,0,2.61-1.44,6.5,6.5,0,0,0,1.59-2.12,5.9,5.9,0,0,0,.55-2.48,5.61,5.61,0,0,0-2.23-4.9q-2.24-1.59-7.2-1.59h-4.84V22.13l7.9-9.68,3.86-2.81-5.27.67H227.92V3.14h25.49v4.6L244.22,19l-3,1.65V21l2.78-.4a14.61,14.61,0,0,1,4.32,1A12.35,12.35,0,0,1,252,23.93a10.61,10.61,0,0,1,2.48,3.65,13,13,0,0,1,.92,5.05,14,14,0,0,1-1.32,6.28,12.8,12.8,0,0,1-3.58,4.45A15.44,15.44,0,0,1,245.14,46a24.26,24.26,0,0,1-6.62.86q-1.47,0-3-.12c-1-.09-2-.22-3-.4s-1.91-.39-2.79-.62a11.9,11.9,0,0,1-2.3-.82l2.33-7a21.8,21.8,0,0,0,3.86,1.35A19.2,19.2,0,0,0,238.4,39.72Z" fill="#399cfc"/></svg>