<!-- 
  SVG icons are rendered as components in components/iconcomponents/
 -->

<svg
  id="sparkwhite"
  data-name="Spark white"
  xmlns="http://www.w3.org/2000/svg"
  viewBox="0 0 738.49 354"
>
  <g id="text">
    <path
      d="M44.9,259.93a30.53,30.53,0,0,0,9.11,11,38.86,38.86,0,0,0,13.33,6.23,61.34,61.34,0,0,0,15.85,2,80.86,80.86,0,0,0,11.88-.94A41.06,41.06,0,0,0,107,274.57a26,26,0,0,0,9.24-7.46q3.69-4.74,3.7-12.06,0-7.86-4.89-12.74a38.68,38.68,0,0,0-12.8-8.13,125.68,125.68,0,0,0-18-5.69q-10-2.44-20.33-5.42a175.28,175.28,0,0,1-20.59-6.64,70.42,70.42,0,0,1-18-10.16,47.48,47.48,0,0,1-12.8-15.59q-4.89-9.35-4.89-22.63,0-14.91,6.21-25.88a57,57,0,0,1,16.24-18.3A69.81,69.81,0,0,1,52.82,113a94.23,94.23,0,0,1,25.35-3.52,117.33,117.33,0,0,1,28.38,3.38,70.06,70.06,0,0,1,24.16,11,55.15,55.15,0,0,1,16.77,19.38q6.2,11.79,6.2,28.59H113.55q-.54-8.67-3.56-14.36a23.77,23.77,0,0,0-8.06-8.94,33.39,33.39,0,0,0-11.48-4.61,69.29,69.29,0,0,0-14.13-1.36,47.53,47.53,0,0,0-10,1.09,26.5,26.5,0,0,0-9.11,3.79,23.13,23.13,0,0,0-6.73,6.78,18.56,18.56,0,0,0-2.64,10.3,17.71,17.71,0,0,0,2.11,9.21q2.11,3.52,8.32,6.51a104,104,0,0,0,17.16,6q10.95,3,28.64,7.59,5.28,1.08,14.66,3.93a69.19,69.19,0,0,1,18.61,9.08,57.1,57.1,0,0,1,16,16.67Q160,233.91,160,250.17a60.56,60.56,0,0,1-5,24.67,53.26,53.26,0,0,1-14.92,19.65q-9.9,8.26-24.55,12.87T81.6,312A116.16,116.16,0,0,1,51.37,308,75.14,75.14,0,0,1,25.5,295.71,60.39,60.39,0,0,1,7.67,274.29q-6.6-13-6.33-30.89H41.47Q41.47,253.15,44.9,259.93Z"
      transform="translate(-1.33 -2.69)"
      fill="#fff"
    />
    <path
      d="M217.57,167.51V185.4h.53Q225,174,235.53,168.86a52.31,52.31,0,0,1,23.23-5.15q16.11,0,27.73,6.24a57.82,57.82,0,0,1,19.27,16.53,70.61,70.61,0,0,1,11.35,24,109,109,0,0,1,3.7,28.59,98.41,98.41,0,0,1-3.7,27.1,69.47,69.47,0,0,1-11.22,23,55.77,55.77,0,0,1-18.74,16q-11.23,6-26.27,6a52.07,52.07,0,0,1-23.37-5.29A44.54,44.54,0,0,1,220,290.29h-.53v66.4H181.93V167.51Zm48.72,111.12a30.49,30.49,0,0,0,10-9.89,41.35,41.35,0,0,0,5.41-14.23A85.92,85.92,0,0,0,283.32,238a80.2,80.2,0,0,0-1.72-16.54,44.65,44.65,0,0,0-5.68-14.5,32.25,32.25,0,0,0-10.16-10.3q-6.21-3.91-15.18-3.93-9.26,0-15.45,3.93a31.24,31.24,0,0,0-10,10.17,42.78,42.78,0,0,0-5.41,14.36A87.45,87.45,0,0,0,218.1,238a79.42,79.42,0,0,0,1.72,16.53,43.37,43.37,0,0,0,5.54,14.23,30,30,0,0,0,10.17,9.89,29.27,29.27,0,0,0,15.31,3.8Q260.08,282.43,266.29,278.63Z"
      transform="translate(-1.33 -2.69)"
      fill="#fff"
    />
    <path
      d="M343,210.6q.79-13.54,6.6-22.49a45.48,45.48,0,0,1,14.78-14.37,63.42,63.42,0,0,1,20.2-7.72,111.72,111.72,0,0,1,22.58-2.31A149.61,149.61,0,0,1,428,165.2,62.83,62.83,0,0,1,447.28,171a38.23,38.23,0,0,1,14.26,12.06q5.54,7.72,5.54,20.47v72.9a149,149,0,0,0,1.06,18.16q1,8.69,3.69,13h-38A55.25,55.25,0,0,1,432.1,301a60.14,60.14,0,0,1-.93-6.91,48.56,48.56,0,0,1-21.12,13.28,82.77,82.77,0,0,1-24.82,3.8A65.72,65.72,0,0,1,367,308.72a41.39,41.39,0,0,1-14.78-7.59,35.06,35.06,0,0,1-9.9-13,44.92,44.92,0,0,1-3.57-18.7q0-11.93,4.09-19.65a34.91,34.91,0,0,1,10.57-12.34,46.87,46.87,0,0,1,14.78-6.91A157.27,157.27,0,0,1,385,226.86q8.44-1.35,16.63-2.16a99,99,0,0,0,14.52-2.44,25.12,25.12,0,0,0,10-4.75q3.69-3.1,3.43-9.08,0-6.23-2-9.89a14.74,14.74,0,0,0-5.28-5.69,20.35,20.35,0,0,0-7.66-2.71,61.23,61.23,0,0,0-9.37-.68q-11.08,0-17.43,4.88t-7.39,16.26Zm86.6,28.46a16.7,16.7,0,0,1-5.94,3.39,59.72,59.72,0,0,1-7.66,2c-2.73.54-5.59,1-8.58,1.36s-6,.81-9,1.35a66.33,66.33,0,0,0-8.31,2.17A24.59,24.59,0,0,0,383,253a17.24,17.24,0,0,0-4.89,5.83,19.18,19.18,0,0,0-1.85,8.94,18.5,18.5,0,0,0,1.85,8.67,14.45,14.45,0,0,0,5,5.56,20.84,20.84,0,0,0,7.39,2.85,46.22,46.22,0,0,0,8.72.81q11.08,0,17.16-3.8a24.93,24.93,0,0,0,9-9.08,29.41,29.41,0,0,0,3.57-10.7,75.49,75.49,0,0,0,.66-8.67Z"
      transform="translate(-1.33 -2.69)"
      fill="#fff"
    />
    <path
      d="M533.09,167.51v26h.52a47.52,47.52,0,0,1,7.13-12.06A47,47,0,0,1,551,172a49.89,49.89,0,0,1,12.41-6.1,43.88,43.88,0,0,1,13.73-2.17,28.67,28.67,0,0,1,8.18,1.36v35.77q-2.64-.54-6.33-.94a63.31,63.31,0,0,0-7.13-.41q-10.3,0-17.43,3.52A30.39,30.39,0,0,0,543,212.63a39,39,0,0,0-6.21,14.23,79.59,79.59,0,0,0-1.85,17.62v63.15H497.44V167.51Z"
      transform="translate(-1.33 -2.69)"
      fill="#fff"
    />
    <path
      d="M642.39,114.11V217.92l47.26-50.41H734L682.53,219l57.29,88.63H694.41L656.91,245l-14.52,14.37v48.24H604.9V114.11Z"
      transform="translate(-1.33 -2.69)"
      fill="#fff"
    />
  </g>
  <rect
    id="spark"
    x="517.95"
    y="93.34"
    width="53.21"
    height="20.69"
    fill="#188af0"
  />
  <rect
    id="spark-2"
    data-name="spark"
    x="556.82"
    y="24.44"
    width="20.69"
    height="53.21"
    transform="translate(128.7 413.31) rotate(-45)"
    fill="#00b7d8"
  />
  <rect
    id="spark-3"
    data-name="spark"
    x="611.23"
    width="20.69"
    height="53.21"
    fill="#00d4b0"
  />
  <rect
    id="spark-4"
    data-name="spark"
    x="651.62"
    y="41.14"
    width="53.21"
    height="20.69"
    transform="translate(160.92 491.97) rotate(-45)"
    fill="#00e54b"
  />
  <rect
    id="spark-5"
    data-name="spark"
    x="672.04"
    y="93.28"
    width="53.21"
    height="20.69"
    fill="#00f800"
  />
</svg>
